Dimock.ufo
<glyph name="zero" format="1">
  <advance width="674"/>
  <unicode hex="0030"/>
  <outline>
    <contour>
      <point x="305" y="435" type="curve" smooth="yes"/>
      <point x="308" y="436"/>
      <point x="311" y="436"/>
      <point x="314" y="436" type="curve" smooth="yes"/>
      <point x="326" y="436"/>
      <point x="339" y="430"/>
      <point x="341" y="417" type="curve" smooth="yes"/>
      <point x="341" y="416"/>
      <point x="341" y="414"/>
      <point x="341" y="413" type="curve" smooth="yes"/>
      <point x="341" y="394"/>
      <point x="330" y="379"/>
      <point x="311" y="375" type="curve" smooth="yes"/>
      <point x="309" y="375"/>
      <point x="307" y="374"/>
      <point x="305" y="374" type="curve" smooth="yes"/>
      <point x="290" y="374"/>
      <point x="277" y="386"/>
      <point x="275" y="402" type="curve" smooth="yes"/>
      <point x="275" y="403"/>
      <point x="275" y="404"/>
      <point x="275" y="405" type="curve" smooth="yes"/>
      <point x="275" y="420"/>
      <point x="289" y="431"/>
    </contour>
    <contour>
      <point x="443" y="666" type="curve" smooth="yes"/>
      <point x="394" y="663"/>
      <point x="366" y="653"/>
      <point x="323" y="630" type="curve" smooth="yes"/>
      <point x="273" y="604"/>
      <point x="233" y="563"/>
      <point x="209" y="543" type="curve" smooth="yes"/>
      <point x="180" y="520"/>
      <point x="158" y="511"/>
      <point x="137" y="480" type="curve" smooth="yes"/>
      <point x="114" y="446"/>
      <point x="108" y="422"/>
      <point x="98" y="381" type="curve" smooth="yes"/>
      <point x="88" y="339"/>
      <point x="87" y="313"/>
      <point x="86" y="270" type="curve" smooth="yes"/>
      <point x="86" y="242"/>
      <point x="90" y="226"/>
      <point x="95" y="198" type="curve" smooth="yes"/>
      <point x="100" y="170"/>
      <point x="93" y="149"/>
      <point x="110" y="126" type="curve" smooth="yes"/>
      <point x="131" y="97"/>
      <point x="151" y="84"/>
      <point x="185" y="75" type="curve" smooth="yes"/>
      <point x="204" y="70"/>
      <point x="220" y="67"/>
      <point x="235" y="67" type="curve" smooth="yes"/>
      <point x="254" y="67"/>
      <point x="271" y="71"/>
      <point x="293" y="78" type="curve" smooth="yes"/>
      <point x="331" y="90"/>
      <point x="346" y="110"/>
      <point x="377" y="135" type="curve" smooth="yes"/>
      <point x="416" y="167"/>
      <point x="413" y="156"/>
      <point x="473" y="222" type="curve" smooth="yes"/>
      <point x="506" y="259"/>
      <point x="520" y="283"/>
      <point x="548" y="324" type="curve" smooth="yes"/>
      <point x="561" y="344"/>
      <point x="574" y="354"/>
      <point x="578" y="378" type="curve" smooth="yes"/>
      <point x="582" y="402"/>
      <point x="584" y="422"/>
      <point x="584" y="441" type="curve" smooth="yes"/>
      <point x="584" y="458"/>
      <point x="582" y="475"/>
      <point x="577" y="496" type="curve" smooth="yes"/>
      <point x="567" y="536"/>
      <point x="567" y="565"/>
      <point x="541" y="601" type="curve" smooth="yes"/>
      <point x="525" y="623"/>
      <point x="511" y="625"/>
      <point x="488" y="639" type="curve" smooth="yes"/>
      <point x="471" y="650"/>
      <point x="464" y="666"/>
      <point x="445" y="666" type="curve" smooth="yes"/>
      <point x="444" y="666"/>
      <point x="444" y="666"/>
    </contour>
    <contour>
      <point x="458" y="747" type="curve" smooth="yes"/>
      <point x="507" y="746"/>
      <point x="532" y="694"/>
      <point x="569" y="651" type="curve" smooth="yes"/>
      <point x="606" y="607"/>
      <point x="627" y="574"/>
      <point x="643" y="524" type="curve" smooth="yes"/>
      <point x="651" y="499"/>
      <point x="654" y="477"/>
      <point x="654" y="455" type="curve" smooth="yes"/>
      <point x="654" y="399"/>
      <point x="631" y="350"/>
      <point x="599" y="291" type="curve" smooth="yes"/>
      <point x="572" y="240"/>
      <point x="537" y="198"/>
      <point x="488" y="147" type="curve" smooth="yes"/>
      <point x="446" y="104"/>
      <point x="407" y="86"/>
      <point x="353" y="51" type="curve" smooth="yes"/>
      <point x="327" y="34"/>
      <point x="312" y="17"/>
      <point x="281" y="15" type="curve" smooth="yes"/>
      <point x="274" y="14"/>
      <point x="268" y="14"/>
      <point x="262" y="14" type="curve" smooth="yes"/>
      <point x="226" y="14"/>
      <point x="200" y="24"/>
      <point x="161" y="36" type="curve" smooth="yes"/>
      <point x="128" y="46"/>
      <point x="105" y="52"/>
      <point x="83" y="78" type="curve" smooth="yes"/>
      <point x="53" y="112"/>
      <point x="48" y="140"/>
      <point x="32" y="183" type="curve" smooth="yes"/>
      <point x="24" y="204"/>
      <point x="20" y="218"/>
      <point x="20" y="238" type="curve" smooth="yes"/>
      <point x="20" y="242"/>
      <point x="20" y="245"/>
      <point x="20" y="249" type="curve" smooth="yes"/>
      <point x="24" y="308"/>
      <point x="29" y="342"/>
      <point x="47" y="399" type="curve" smooth="yes"/>
      <point x="60" y="438"/>
      <point x="76" y="457"/>
      <point x="98" y="492" type="curve" smooth="yes"/>
      <point x="123" y="531"/>
      <point x="136" y="554"/>
      <point x="167" y="588" type="curve" smooth="yes"/>
      <point x="192" y="616"/>
      <point x="211" y="628"/>
      <point x="242" y="648" type="curve" smooth="yes"/>
      <point x="279" y="672"/>
      <point x="301" y="683"/>
      <point x="341" y="702" type="curve" smooth="yes"/>
      <point x="376" y="719"/>
      <point x="392" y="729"/>
      <point x="428" y="743" type="curve" smooth="yes"/>
      <point x="437" y="747"/>
      <point x="449" y="747"/>
    </contour>
  </outline>
</glyph>
<glyph name="one" format="1">
  <advance width="260"/>
  <unicode hex="0031"/>
  <outline>
    <contour>
      <point x="178" y="736" type="curve" smooth="yes"/>
      <point x="181" y="745"/>
      <point x="180" y="754"/>
      <point x="188" y="760" type="curve" smooth="yes"/>
      <point x="194" y="765"/>
      <point x="201" y="763"/>
      <point x="208" y="760" type="curve" smooth="yes"/>
      <point x="222" y="755"/>
      <point x="237" y="754"/>
      <point x="240" y="740" type="curve" smooth="yes"/>
      <point x="240" y="738"/>
      <point x="240" y="737"/>
      <point x="240" y="735" type="curve" smooth="yes"/>
      <point x="240" y="719"/>
      <point x="226" y="710"/>
      <point x="220" y="694" type="curve" smooth="yes"/>
      <point x="210" y="667"/>
      <point x="203" y="652"/>
      <point x="196" y="624" type="curve" smooth="yes"/>
      <point x="194" y="618"/>
      <point x="194" y="612"/>
      <point x="194" y="607" type="curve" smooth="yes"/>
      <point x="194" y="603"/>
      <point x="194" y="599"/>
      <point x="194" y="596" type="curve" smooth="yes"/>
      <point x="194" y="590"/>
      <point x="194" y="583"/>
      <point x="192" y="576" type="curve" smooth="yes"/>
      <point x="188" y="562"/>
      <point x="179" y="557"/>
      <point x="174" y="544" type="curve" smooth="yes"/>
      <point x="167" y="524"/>
      <point x="166" y="512"/>
      <point x="160" y="492" type="curve" smooth="yes"/>
      <point x="124" y="366" type="line" smooth="yes"/>
      <point x="114" y="332"/>
      <point x="107" y="313"/>
      <point x="100" y="278" type="curve" smooth="yes"/>
      <point x="93" y="242"/>
      <point x="93" y="221"/>
      <point x="88" y="184" type="curve" smooth="yes"/>
      <point x="85" y="166"/>
      <point x="81" y="156"/>
      <point x="80" y="138" type="curve" smooth="yes"/>
      <point x="79" y="129"/>
      <point x="79" y="121"/>
      <point x="79" y="114" type="curve" smooth="yes"/>
      <point x="79" y="104"/>
      <point x="79" y="95"/>
      <point x="80" y="82" type="curve" smooth="yes"/>
      <point x="80" y="73"/>
      <point x="77" y="67"/>
      <point x="84" y="60" type="curve" smooth="yes"/>
      <point x="92" y="52"/>
      <point x="104" y="60"/>
      <point x="110" y="52" type="curve" smooth="yes"/>
      <point x="116" y="44"/>
      <point x="110" y="37"/>
      <point x="108" y="28" type="curve" smooth="yes"/>
      <point x="106" y="21"/>
      <point x="106" y="14"/>
      <point x="100" y="12" type="curve" smooth="yes"/>
      <point x="95" y="10"/>
      <point x="91" y="10"/>
      <point x="87" y="10" type="curve" smooth="yes"/>
      <point x="80" y="10"/>
      <point x="74" y="12"/>
      <point x="68" y="16" type="curve" smooth="yes"/>
      <point x="54" y="26"/>
      <point x="52" y="38"/>
      <point x="44" y="52" type="curve" smooth="yes"/>
      <point x="38" y="63"/>
      <point x="34" y="70"/>
      <point x="30" y="82" type="curve" smooth="yes"/>
      <point x="25" y="96"/>
      <point x="20" y="104"/>
      <point x="20" y="120" type="curve" smooth="yes"/>
      <point x="20" y="135"/>
      <point x="27" y="143"/>
      <point x="28" y="158" type="curve" smooth="yes"/>
      <point x="28" y="162"/>
      <point x="28" y="166"/>
      <point x="28" y="170" type="curve" smooth="yes"/>
      <point x="28" y="188"/>
      <point x="25" y="202"/>
      <point x="25" y="220" type="curve" smooth="yes"/>
      <point x="25" y="224"/>
      <point x="26" y="228"/>
      <point x="26" y="232" type="curve" smooth="yes"/>
      <point x="27" y="248"/>
      <point x="32" y="256"/>
      <point x="36" y="272" type="curve" smooth="yes"/>
      <point x="39" y="284"/>
      <point x="40" y="290"/>
      <point x="44" y="302" type="curve" smooth="yes"/>
      <point x="52" y="325"/>
      <point x="59" y="336"/>
      <point x="66" y="360" type="curve" smooth="yes"/>
      <point x="72" y="382"/>
      <point x="70" y="396"/>
      <point x="76" y="418" type="curve" smooth="yes"/>
      <point x="83" y="443"/>
      <point x="92" y="456"/>
      <point x="100" y="480" type="curve" smooth="yes"/>
      <point x="109" y="505"/>
      <point x="111" y="519"/>
      <point x="120" y="544" type="curve" smooth="yes"/>
      <point x="127" y="565"/>
      <point x="135" y="575"/>
      <point x="140" y="596" type="curve" smooth="yes"/>
      <point x="141" y="601"/>
      <point x="141" y="606"/>
      <point x="141" y="611" type="curve" smooth="yes"/>
      <point x="141" y="616"/>
      <point x="141" y="620"/>
      <point x="141" y="625" type="curve" smooth="yes"/>
      <point x="141" y="631"/>
      <point x="141" y="637"/>
      <point x="144" y="644" type="curve" smooth="yes"/>
      <point x="148" y="657"/>
      <point x="161" y="659"/>
      <point x="166" y="672" type="curve" smooth="yes"/>
      <point x="172" y="687"/>
      <point x="169" y="698"/>
      <point x="172" y="714" type="curve" smooth="yes"/>
      <point x="174" y="723"/>
      <point x="175" y="728"/>
    </contour>
  </outline>
</glyph>
<glyph name="glyph16" format="1">
  <advance width="641"/>
  <unicode hex="0032"/>
  <outline>
    <contour>
      <point x="170" y="609" type="curve" smooth="yes"/>
      <point x="214" y="650"/>
      <point x="248" y="663"/>
      <point x="299" y="696" type="curve" smooth="yes"/>
      <point x="341" y="723"/>
      <point x="363" y="745"/>
      <point x="410" y="762" type="curve" smooth="yes"/>
      <point x="444" y="774"/>
      <point x="468" y="777"/>
      <point x="501" y="777" type="curve" smooth="yes"/>
      <point x="507" y="777"/>
      <point x="514" y="777"/>
      <point x="521" y="777" type="curve" smooth="yes"/>
      <point x="554" y="776"/>
      <point x="576" y="777"/>
      <point x="602" y="756" type="curve" smooth="yes"/>
      <point x="616" y="745"/>
      <point x="621" y="730"/>
      <point x="621" y="713" type="curve" smooth="yes"/>
      <point x="621" y="708"/>
      <point x="621" y="702"/>
      <point x="620" y="696" type="curve" smooth="yes"/>
      <point x="612" y="646"/>
      <point x="597" y="620"/>
      <point x="572" y="576" type="curve" smooth="yes"/>
      <point x="544" y="526"/>
      <point x="522" y="500"/>
      <point x="485" y="456" type="curve" smooth="yes"/>
      <point x="396" y="350"/>
      <point x="335" y="308"/>
      <point x="249" y="200" type="curve" smooth="yes"/>
      <point x="243" y="192"/>
      <point x="247" y="172"/>
      <point x="255" y="176" type="curve" smooth="yes"/>
      <point x="275" y="187"/>
      <point x="290" y="188"/>
      <point x="307" y="188" type="curve" smooth="yes"/>
      <point x="311" y="188"/>
      <point x="315" y="188"/>
      <point x="319" y="188" type="curve" smooth="yes"/>
      <point x="330" y="188"/>
      <point x="343" y="189"/>
      <point x="359" y="192" type="curve" smooth="yes"/>
      <point x="371" y="195"/>
      <point x="383" y="196"/>
      <point x="393" y="196" type="curve" smooth="yes"/>
      <point x="417" y="196"/>
      <point x="438" y="190"/>
      <point x="467" y="183" type="curve" smooth="yes"/>
      <point x="482" y="179"/>
      <point x="491" y="172"/>
      <point x="500" y="159" type="curve" smooth="yes"/>
      <point x="511" y="145"/>
      <point x="518" y="134"/>
      <point x="518" y="117" type="curve" smooth="yes"/>
      <point x="518" y="115"/>
      <point x="518" y="113"/>
      <point x="518" y="111" type="curve" smooth="yes"/>
      <point x="517" y="99"/>
      <point x="505" y="90"/>
      <point x="494" y="93" type="curve" smooth="yes"/>
      <point x="475" y="99"/>
      <point x="475" y="119"/>
      <point x="458" y="129" type="curve" smooth="yes"/>
      <point x="433" y="144"/>
      <point x="418" y="154"/>
      <point x="389" y="156" type="curve" smooth="yes"/>
      <point x="386" y="156"/>
      <point x="384" y="156"/>
      <point x="381" y="156" type="curve" smooth="yes"/>
      <point x="351" y="156"/>
      <point x="333" y="145"/>
      <point x="302" y="138" type="curve" smooth="yes"/>
      <point x="265" y="129"/>
      <point x="244" y="125"/>
      <point x="209" y="111" type="curve" smooth="yes"/>
      <point x="178" y="98"/>
      <point x="163" y="85"/>
      <point x="134" y="69" type="curve" smooth="yes"/>
      <point x="84" y="42"/>
      <point x="98" y="30"/>
      <point x="68" y="15" type="curve" smooth="yes"/>
      <point x="66" y="14"/>
      <point x="64" y="14"/>
      <point x="62" y="14" type="curve" smooth="yes"/>
      <point x="45" y="14"/>
      <point x="20" y="38"/>
      <point x="20" y="55" type="curve" smooth="yes"/>
      <point x="20" y="55"/>
      <point x="20" y="56"/>
      <point x="20" y="57" type="curve" smooth="yes"/>
      <point x="26" y="96"/>
      <point x="71" y="92"/>
      <point x="101" y="120" type="curve" smooth="yes"/>
      <point x="126" y="143"/>
      <point x="134" y="162"/>
      <point x="158" y="186" type="curve" smooth="yes"/>
      <point x="186" y="214"/>
      <point x="207" y="224"/>
      <point x="236" y="252" type="curve" smooth="yes"/>
      <point x="269" y="284"/>
      <point x="286" y="304"/>
      <point x="317" y="339" type="curve" smooth="yes"/>
      <point x="349" y="375"/>
      <point x="366" y="396"/>
      <point x="398" y="432" type="curve" smooth="yes"/>
      <point x="432" y="471"/>
      <point x="454" y="489"/>
      <point x="485" y="531" type="curve" smooth="yes"/>
      <point x="503" y="555"/>
      <point x="504" y="574"/>
      <point x="521" y="600" type="curve" smooth="yes"/>
      <point x="534" y="620"/>
      <point x="532" y="628"/>
      <point x="551" y="651" type="curve" smooth="yes"/>
      <point x="556" y="657"/>
      <point x="558" y="664"/>
      <point x="558" y="672" type="curve" smooth="yes"/>
      <point x="558" y="687"/>
      <point x="552" y="704"/>
      <point x="546" y="721" type="curve" smooth="yes"/>
      <point x="543" y="728"/>
      <point x="533" y="731"/>
      <point x="520" y="731" type="curve" smooth="yes"/>
      <point x="503" y="731"/>
      <point x="483" y="726"/>
      <point x="474" y="724" type="curve" smooth="yes"/>
      <point x="439" y="715"/>
      <point x="429" y="713"/>
      <point x="396" y="697" type="curve" smooth="yes"/>
      <point x="371" y="685"/>
      <point x="358" y="675"/>
      <point x="335" y="660" type="curve" smooth="yes"/>
      <point x="309" y="643"/>
      <point x="290" y="640"/>
      <point x="266" y="621" type="curve" smooth="yes"/>
      <point x="245" y="605"/>
      <point x="246" y="580"/>
      <point x="221" y="570" type="curve" smooth="yes"/>
      <point x="218" y="569"/>
      <point x="216" y="569"/>
      <point x="213" y="569" type="curve" smooth="yes"/>
      <point x="201" y="569"/>
      <point x="193" y="580"/>
      <point x="182" y="588" type="curve" smooth="yes"/>
      <point x="175" y="594"/>
      <point x="163" y="603"/>
    </contour>
  </outline>
</glyph>
<glyph name="glyph18" format="1">
  <advance width="528"/>
  <unicode hex="0033"/>
  <outline>
    <contour>
      <point x="46" y="796" type="curve" smooth="yes"/>
      <point x="51" y="797"/>
      <point x="56" y="797"/>
      <point x="60" y="797" type="curve" smooth="yes"/>
      <point x="95" y="797"/>
      <point x="119" y="782"/>
      <point x="158" y="780" type="curve" smooth="yes"/>
      <point x="165" y="780"/>
      <point x="171" y="780"/>
      <point x="178" y="780" type="curve" smooth="yes"/>
      <point x="216" y="780"/>
      <point x="243" y="784"/>
      <point x="286" y="784" type="curve" smooth="yes"/>
      <point x="317" y="784"/>
      <point x="335" y="781"/>
      <point x="366" y="778" type="curve" smooth="yes"/>
      <point x="397" y="774"/>
      <point x="415" y="771"/>
      <point x="446" y="766" type="curve" smooth="yes"/>
      <point x="451" y="765"/>
      <point x="455" y="765"/>
      <point x="460" y="765" type="curve" smooth="yes"/>
      <point x="463" y="765"/>
      <point x="466" y="765"/>
      <point x="470" y="765" type="curve" smooth="yes"/>
      <point x="480" y="765"/>
      <point x="490" y="764"/>
      <point x="500" y="756" type="curve" smooth="yes"/>
      <point x="506" y="750"/>
      <point x="508" y="744"/>
      <point x="508" y="736" type="curve" smooth="yes"/>
      <point x="508" y="730"/>
      <point x="507" y="723"/>
      <point x="506" y="716" type="curve" smooth="yes"/>
      <point x="503" y="700"/>
      <point x="497" y="691"/>
      <point x="486" y="678" type="curve" smooth="yes"/>
      <point x="467" y="654"/>
      <point x="453" y="642"/>
      <point x="430" y="622" type="curve" smooth="yes"/>
      <point x="399" y="595"/>
      <point x="381" y="581"/>
      <point x="348" y="558" type="curve" smooth="yes"/>
      <point x="325" y="542"/>
      <point x="311" y="533"/>
      <point x="286" y="520" type="curve" smooth="yes"/>
      <point x="258" y="506"/>
      <point x="240" y="502"/>
      <point x="212" y="488" type="curve" smooth="yes"/>
      <point x="197" y="481"/>
      <point x="186" y="479"/>
      <point x="174" y="466" type="curve" smooth="yes"/>
      <point x="169" y="461"/>
      <point x="169" y="453"/>
      <point x="174" y="448" type="curve" smooth="yes"/>
      <point x="187" y="434"/>
      <point x="198" y="433"/>
      <point x="214" y="422" type="curve" smooth="yes"/>
      <point x="236" y="407"/>
      <point x="248" y="398"/>
      <point x="270" y="382" type="curve" smooth="yes"/>
      <point x="289" y="369"/>
      <point x="301" y="364"/>
      <point x="318" y="348" type="curve" smooth="yes"/>
      <point x="333" y="334"/>
      <point x="340" y="323"/>
      <point x="350" y="306" type="curve" smooth="yes"/>
      <point x="359" y="291"/>
      <point x="362" y="281"/>
      <point x="366" y="264" type="curve" smooth="yes"/>
      <point x="371" y="242"/>
      <point x="373" y="229"/>
      <point x="374" y="206" type="curve" smooth="yes"/>
      <point x="374" y="200"/>
      <point x="374" y="195"/>
      <point x="374" y="190" type="curve" smooth="yes"/>
      <point x="374" y="181"/>
      <point x="373" y="173"/>
      <point x="370" y="164" type="curve" smooth="yes"/>
      <point x="363" y="148"/>
      <point x="354" y="142"/>
      <point x="342" y="128" type="curve" smooth="yes"/>
      <point x="327" y="110"/>
      <point x="319" y="100"/>
      <point x="302" y="84" type="curve" smooth="yes"/>
      <point x="284" y="67"/>
      <point x="275" y="57"/>
      <point x="254" y="44" type="curve" smooth="yes"/>
      <point x="241" y="36"/>
      <point x="233" y="32"/>
      <point x="218" y="30" type="curve" smooth="yes"/>
      <point x="204" y="28"/>
      <point x="194" y="27"/>
      <point x="184" y="27" type="curve" smooth="yes"/>
      <point x="174" y="27"/>
      <point x="165" y="28"/>
      <point x="154" y="30" type="curve" smooth="yes"/>
      <point x="137" y="33"/>
      <point x="129" y="38"/>
      <point x="114" y="46" type="curve" smooth="yes"/>
      <point x="99" y="53"/>
      <point x="91" y="58"/>
      <point x="78" y="68" type="curve" smooth="yes"/>
      <point x="68" y="76"/>
      <point x="61" y="79"/>
      <point x="54" y="90" type="curve" smooth="yes"/>
      <point x="44" y="105"/>
      <point x="42" y="116"/>
      <point x="36" y="132" type="curve" smooth="yes"/>
      <point x="30" y="150"/>
      <point x="24" y="159"/>
      <point x="22" y="178" type="curve" smooth="yes"/>
      <point x="21" y="185"/>
      <point x="20" y="191"/>
      <point x="20" y="198" type="curve" smooth="yes"/>
      <point x="20" y="204"/>
      <point x="21" y="210"/>
      <point x="28" y="214" type="curve" smooth="yes"/>
      <point x="37" y="220"/>
      <point x="47" y="224"/>
      <point x="56" y="224" type="curve" smooth="yes"/>
      <point x="63" y="224"/>
      <point x="70" y="222"/>
      <point x="78" y="218" type="curve" smooth="yes"/>
      <point x="88" y="212"/>
      <point x="73" y="200"/>
      <point x="74" y="188" type="curve" smooth="yes"/>
      <point x="76" y="171"/>
      <point x="79" y="161"/>
      <point x="86" y="146" type="curve" smooth="yes"/>
      <point x="93" y="131"/>
      <point x="98" y="122"/>
      <point x="110" y="110" type="curve" smooth="yes"/>
      <point x="120" y="100"/>
      <point x="126" y="94"/>
      <point x="140" y="90" type="curve" smooth="yes"/>
      <point x="146" y="88"/>
      <point x="152" y="87"/>
      <point x="158" y="87" type="curve" smooth="yes"/>
      <point x="167" y="87"/>
      <point x="175" y="89"/>
      <point x="186" y="90" type="curve" smooth="yes"/>
      <point x="203" y="92"/>
      <point x="214" y="92"/>
      <point x="230" y="100" type="curve" smooth="yes"/>
      <point x="251" y="110"/>
      <point x="261" y="118"/>
      <point x="278" y="134" type="curve" smooth="yes"/>
      <point x="291" y="147"/>
      <point x="298" y="155"/>
      <point x="306" y="172" type="curve" smooth="yes"/>
      <point x="314" y="189"/>
      <point x="316" y="199"/>
      <point x="318" y="218" type="curve" smooth="yes"/>
      <point x="318" y="224"/>
      <point x="319" y="229"/>
      <point x="319" y="234" type="curve" smooth="yes"/>
      <point x="319" y="245"/>
      <point x="317" y="254"/>
      <point x="314" y="266" type="curve" smooth="yes"/>
      <point x="310" y="281"/>
      <point x="304" y="288"/>
      <point x="294" y="300" type="curve" smooth="yes"/>
      <point x="280" y="317"/>
      <point x="271" y="325"/>
      <point x="254" y="340" type="curve" smooth="yes"/>
      <point x="237" y="355"/>
      <point x="226" y="361"/>
      <point x="208" y="374" type="curve" smooth="yes"/>
      <point x="185" y="391"/>
      <point x="176" y="406"/>
      <point x="150" y="418" type="curve" smooth="yes"/>
      <point x="144" y="421"/>
      <point x="139" y="421"/>
      <point x="134" y="421" type="curve" smooth="yes"/>
      <point x="128" y="421"/>
      <point x="122" y="420"/>
      <point x="115" y="420" type="curve" smooth="yes"/>
      <point x="111" y="420"/>
      <point x="106" y="420"/>
      <point x="102" y="422" type="curve" smooth="yes"/>
      <point x="90" y="426"/>
      <point x="82" y="432"/>
      <point x="78" y="444" type="curve" smooth="yes"/>
      <point x="76" y="450"/>
      <point x="75" y="455"/>
      <point x="75" y="460" type="curve" smooth="yes"/>
      <point x="75" y="467"/>
      <point x="77" y="473"/>
      <point x="82" y="478" type="curve" smooth="yes"/>
      <point x="100" y="496"/>
      <point x="119" y="496"/>
      <point x="142" y="508" type="curve" smooth="yes"/>
      <point x="169" y="522"/>
      <point x="183" y="531"/>
      <point x="210" y="546" type="curve" smooth="yes"/>
      <point x="231" y="558"/>
      <point x="243" y="566"/>
      <point x="264" y="578" type="curve" smooth="yes"/>
      <point x="288" y="592"/>
      <point x="303" y="598"/>
      <point x="326" y="614" type="curve" smooth="yes"/>
      <point x="347" y="629"/>
      <point x="356" y="640"/>
      <point x="376" y="656" type="curve" smooth="yes"/>
      <point x="387" y="665"/>
      <point x="393" y="669"/>
      <point x="406" y="676" type="curve" smooth="yes"/>
      <point x="419" y="683"/>
      <point x="431" y="679"/>
      <point x="442" y="690" type="curve" smooth="yes"/>
      <point x="449" y="697"/>
      <point x="452" y="708"/>
      <point x="446" y="716" type="curve" smooth="yes"/>
      <point x="437" y="728"/>
      <point x="425" y="728"/>
      <point x="410" y="730" type="curve" smooth="yes"/>
      <point x="398" y="732"/>
      <point x="389" y="732"/>
      <point x="380" y="732" type="curve" smooth="yes"/>
      <point x="372" y="732"/>
      <point x="363" y="732"/>
      <point x="354" y="732" type="curve" smooth="yes"/>
      <point x="350" y="732"/>
      <point x="346" y="732"/>
      <point x="342" y="732" type="curve" smooth="yes"/>
      <point x="312" y="734"/>
      <point x="296" y="738"/>
      <point x="266" y="738" type="curve" smooth="yes"/>
      <point x="238" y="738"/>
      <point x="222" y="733"/>
      <point x="194" y="732" type="curve" smooth="yes"/>
      <point x="183" y="732"/>
      <point x="173" y="732"/>
      <point x="165" y="732" type="curve" smooth="yes"/>
      <point x="141" y="732"/>
      <point x="121" y="733"/>
      <point x="92" y="734" type="curve" smooth="yes"/>
      <point x="79" y="735"/>
      <point x="69" y="733"/>
      <point x="58" y="740" type="curve" smooth="yes"/>
      <point x="48" y="746"/>
      <point x="44" y="755"/>
      <point x="42" y="766" type="curve" smooth="yes"/>
      <point x="40" y="778"/>
      <point x="34" y="795"/>
    </contour>
  </outline>
</glyph>
<glyph name="four" format="1">
  <advance width="540"/>
  <unicode hex="0034"/>
  <outline>
    <contour>
      <point x="253" y="657" type="curve" smooth="yes"/>
      <point x="243" y="631"/>
      <point x="228" y="620"/>
      <point x="213" y="596" type="curve" smooth="yes"/>
      <point x="194" y="564"/>
      <point x="186" y="544"/>
      <point x="167" y="512" type="curve" smooth="yes"/>
      <point x="151" y="485"/>
      <point x="139" y="471"/>
      <point x="123" y="444" type="curve" smooth="yes"/>
      <point x="114" y="429"/>
      <point x="110" y="420"/>
      <point x="103" y="404" type="curve" smooth="yes"/>
      <point x="90" y="374"/>
      <point x="87" y="356"/>
      <point x="73" y="326" type="curve" smooth="yes"/>
      <point x="67" y="314"/>
      <point x="60" y="308"/>
      <point x="57" y="296" type="curve" smooth="yes"/>
      <point x="55" y="288"/>
      <point x="56" y="280"/>
      <point x="59" y="276" type="curve" smooth="yes"/>
      <point x="61" y="273"/>
      <point x="79" y="266"/>
      <point x="89" y="272" type="curve" smooth="yes"/>
      <point x="103" y="280"/>
      <point x="112" y="284"/>
      <point x="127" y="294" type="curve" smooth="yes"/>
      <point x="149" y="309"/>
      <point x="164" y="317"/>
      <point x="187" y="330" type="curve" smooth="yes"/>
      <point x="202" y="338"/>
      <point x="210" y="341"/>
      <point x="225" y="350" type="curve" smooth="yes"/>
      <point x="242" y="360"/>
      <point x="251" y="367"/>
      <point x="267" y="378" type="curve" smooth="yes"/>
      <point x="287" y="391"/>
      <point x="298" y="401"/>
      <point x="319" y="412" type="curve" smooth="yes"/>
      <point x="324" y="414"/>
      <point x="329" y="415"/>
      <point x="333" y="415" type="curve" smooth="yes"/>
      <point x="335" y="415"/>
      <point x="336" y="414"/>
      <point x="337" y="414" type="curve" smooth="yes"/>
      <point x="343" y="414"/>
      <point x="348" y="415"/>
      <point x="351" y="420" type="curve" smooth="yes"/>
      <point x="367" y="443"/>
      <point x="363" y="461"/>
      <point x="371" y="488" type="curve" smooth="yes"/>
      <point x="380" y="517"/>
      <point x="386" y="533"/>
      <point x="395" y="562" type="curve" smooth="yes"/>
      <point x="403" y="586"/>
      <point x="408" y="600"/>
      <point x="415" y="624" type="curve" smooth="yes"/>
      <point x="423" y="650"/>
      <point x="427" y="664"/>
      <point x="433" y="690" type="curve" smooth="yes"/>
      <point x="439" y="717"/>
      <point x="433" y="736"/>
      <point x="447" y="760" type="curve" smooth="yes"/>
      <point x="457" y="778"/>
      <point x="472" y="782"/>
      <point x="491" y="788" type="curve" smooth="yes"/>
      <point x="500" y="791"/>
      <point x="509" y="788"/>
      <point x="515" y="780" type="curve" smooth="yes"/>
      <point x="521" y="772"/>
      <point x="521" y="763"/>
      <point x="517" y="754" type="curve" smooth="yes"/>
      <point x="513" y="745"/>
      <point x="502" y="747"/>
      <point x="497" y="738" type="curve" smooth="yes"/>
      <point x="487" y="718"/>
      <point x="488" y="705"/>
      <point x="481" y="684" type="curve" smooth="yes"/>
      <point x="474" y="662"/>
      <point x="473" y="651"/>
      <point x="467" y="629" type="curve" smooth="yes"/>
      <point x="460" y="602"/>
      <point x="457" y="584"/>
      <point x="449" y="558" type="curve" smooth="yes"/>
      <point x="439" y="527"/>
      <point x="426" y="511"/>
      <point x="417" y="480" type="curve" smooth="yes"/>
      <point x="415" y="475"/>
      <point x="416" y="467"/>
      <point x="421" y="466" type="curve" smooth="yes"/>
      <point x="422" y="466"/>
      <point x="423" y="466"/>
      <point x="423" y="466" type="curve" smooth="yes"/>
      <point x="436" y="466"/>
      <point x="442" y="475"/>
      <point x="455" y="476" type="curve" smooth="yes"/>
      <point x="465" y="477"/>
      <point x="477" y="479"/>
      <point x="479" y="470" type="curve" smooth="yes"/>
      <point x="481" y="463"/>
      <point x="482" y="456"/>
      <point x="482" y="450" type="curve" smooth="yes"/>
      <point x="482" y="437"/>
      <point x="479" y="426"/>
      <point x="473" y="412" type="curve" smooth="yes"/>
      <point x="470" y="404"/>
      <point x="462" y="404"/>
      <point x="453" y="404" type="curve" smooth="yes"/>
      <point x="453" y="404"/>
      <point x="453" y="404"/>
      <point x="452" y="404" type="curve" smooth="yes"/>
      <point x="440" y="404"/>
      <point x="429" y="414"/>
      <point x="419" y="414" type="curve" smooth="yes"/>
      <point x="416" y="414"/>
      <point x="413" y="413"/>
      <point x="409" y="410" type="curve" smooth="yes"/>
      <point x="389" y="393"/>
      <point x="393" y="373"/>
      <point x="387" y="348" type="curve" smooth="yes"/>
      <point x="375" y="303"/>
      <point x="371" y="276"/>
      <point x="363" y="230" type="curve" smooth="yes"/>
      <point x="355" y="184"/>
      <point x="349" y="158"/>
      <point x="345" y="112" type="curve" smooth="yes"/>
      <point x="345" y="106"/>
      <point x="345" y="101"/>
      <point x="345" y="95" type="curve" smooth="yes"/>
      <point x="345" y="84"/>
      <point x="346" y="73"/>
      <point x="346" y="62" type="curve" smooth="yes"/>
      <point x="346" y="58"/>
      <point x="346" y="55"/>
      <point x="345" y="52" type="curve" smooth="yes"/>
      <point x="344" y="34"/>
      <point x="338" y="20"/>
      <point x="321" y="12" type="curve" smooth="yes"/>
      <point x="310" y="7"/>
      <point x="302" y="19"/>
      <point x="295" y="28" type="curve" smooth="yes"/>
      <point x="285" y="41"/>
      <point x="278" y="57"/>
      <point x="278" y="70" type="curve" smooth="yes"/>
      <point x="278" y="98"/>
      <point x="289" y="114"/>
      <point x="296" y="142" type="curve" smooth="yes"/>
      <point x="306" y="185"/>
      <point x="302" y="209"/>
      <point x="310" y="253" type="curve" smooth="yes"/>
      <point x="317" y="291"/>
      <point x="335" y="335"/>
      <point x="335" y="352" type="curve" smooth="yes"/>
      <point x="335" y="357"/>
      <point x="334" y="359"/>
      <point x="331" y="360" type="curve" smooth="yes"/>
      <point x="330" y="360"/>
      <point x="328" y="361"/>
      <point x="326" y="361" type="curve" smooth="yes"/>
      <point x="316" y="361"/>
      <point x="312" y="352"/>
      <point x="299" y="341" type="curve" smooth="yes"/>
      <point x="270" y="317"/>
      <point x="251" y="316"/>
      <point x="219" y="296" type="curve" smooth="yes"/>
      <point x="181" y="273"/>
      <point x="161" y="257"/>
      <point x="119" y="242" type="curve" smooth="yes"/>
      <point x="105" y="236"/>
      <point x="93" y="235"/>
      <point x="81" y="235" type="curve" smooth="yes"/>
      <point x="73" y="235"/>
      <point x="65" y="236"/>
      <point x="55" y="236" type="curve" smooth="yes"/>
      <point x="46" y="236"/>
      <point x="41" y="240"/>
      <point x="33" y="246" type="curve" smooth="yes"/>
      <point x="28" y="250"/>
      <point x="24" y="254"/>
      <point x="23" y="260" type="curve" smooth="yes"/>
      <point x="21" y="273"/>
      <point x="20" y="283"/>
      <point x="20" y="293" type="curve" smooth="yes"/>
      <point x="20" y="300"/>
      <point x="20" y="307"/>
      <point x="21" y="316" type="curve" smooth="yes"/>
      <point x="23" y="334"/>
      <point x="28" y="344"/>
      <point x="35" y="360" type="curve" smooth="yes"/>
      <point x="45" y="384"/>
      <point x="53" y="397"/>
      <point x="65" y="420" type="curve" smooth="yes"/>
      <point x="93" y="476" type="line" smooth="yes"/>
      <point x="105" y="500"/>
      <point x="111" y="514"/>
      <point x="125" y="536" type="curve" smooth="yes"/>
      <point x="141" y="561"/>
      <point x="154" y="573"/>
      <point x="169" y="598" type="curve" smooth="yes"/>
      <point x="179" y="614"/>
      <point x="179" y="626"/>
      <point x="189" y="642" type="curve" smooth="yes"/>
      <point x="199" y="657"/>
      <point x="204" y="667"/>
      <point x="219" y="676" type="curve" smooth="yes"/>
      <point x="227" y="681"/>
      <point x="235" y="681"/>
      <point x="243" y="676" type="curve" smooth="yes"/>
      <point x="251" y="671"/>
      <point x="256" y="666"/>
    </contour>
  </outline>
</glyph>
<glyph name="five" format="1">
  <advance width="525"/>
  <unicode hex="0035"/>
  <outline>
    <contour>
      <point x="160" y="720" type="curve" smooth="yes"/>
      <point x="159" y="722"/>
      <point x="159" y="724"/>
      <point x="159" y="726" type="curve" smooth="yes"/>
      <point x="159" y="736"/>
      <point x="167" y="745"/>
      <point x="177" y="750" type="curve" smooth="yes"/>
      <point x="199" y="761"/>
      <point x="215" y="758"/>
      <point x="239" y="762" type="curve" smooth="yes"/>
      <point x="265" y="766"/>
      <point x="279" y="769"/>
      <point x="305" y="772" type="curve" smooth="yes"/>
      <point x="325" y="774"/>
      <point x="337" y="774"/>
      <point x="357" y="774" type="curve" smooth="yes"/>
      <point x="376" y="774"/>
      <point x="386" y="773"/>
      <point x="405" y="770" type="curve" smooth="yes"/>
      <point x="433" y="765"/>
      <point x="454" y="769"/>
      <point x="477" y="752" type="curve" smooth="yes"/>
      <point x="494" y="739"/>
      <point x="505" y="724"/>
      <point x="505" y="703" type="curve" smooth="yes"/>
      <point x="505" y="700"/>
      <point x="505" y="697"/>
      <point x="505" y="694" type="curve" smooth="yes"/>
      <point x="504" y="687"/>
      <point x="496" y="685"/>
      <point x="488" y="685" type="curve" smooth="yes"/>
      <point x="479" y="685"/>
      <point x="469" y="687"/>
      <point x="462" y="689" type="curve" smooth="yes"/>
      <point x="445" y="694"/>
      <point x="441" y="705"/>
      <point x="424" y="710" type="curve" smooth="yes"/>
      <point x="401" y="717"/>
      <point x="390" y="723"/>
      <point x="367" y="726" type="curve" smooth="yes"/>
      <point x="359" y="727"/>
      <point x="353" y="727"/>
      <point x="348" y="727" type="curve" smooth="yes"/>
      <point x="337" y="727"/>
      <point x="328" y="726"/>
      <point x="314" y="726" type="curve" smooth="yes"/>
      <point x="301" y="726"/>
      <point x="292" y="729"/>
      <point x="283" y="729" type="curve" smooth="yes"/>
      <point x="276" y="729"/>
      <point x="269" y="727"/>
      <point x="262" y="719" type="curve" smooth="yes"/>
      <point x="246" y="702"/>
      <point x="253" y="689"/>
      <point x="249" y="666" type="curve" smooth="yes"/>
      <point x="245" y="645"/>
      <point x="238" y="634"/>
      <point x="231" y="614" type="curve" smooth="yes"/>
      <point x="223" y="590"/>
      <point x="219" y="576"/>
      <point x="209" y="552" type="curve" smooth="yes"/>
      <point x="201" y="533"/>
      <point x="192" y="524"/>
      <point x="185" y="504" type="curve" smooth="yes"/>
      <point x="181" y="494"/>
      <point x="173" y="483"/>
      <point x="173" y="475" type="curve" smooth="yes"/>
      <point x="173" y="472"/>
      <point x="175" y="468"/>
      <point x="179" y="466" type="curve" smooth="yes"/>
      <point x="182" y="464"/>
      <point x="185" y="463"/>
      <point x="188" y="463" type="curve" smooth="yes"/>
      <point x="201" y="463"/>
      <point x="211" y="477"/>
      <point x="227" y="480" type="curve" smooth="yes"/>
      <point x="236" y="482"/>
      <point x="242" y="483"/>
      <point x="249" y="483" type="curve" smooth="yes"/>
      <point x="253" y="483"/>
      <point x="258" y="482"/>
      <point x="263" y="482" type="curve" smooth="yes"/>
      <point x="277" y="481"/>
      <point x="286" y="482"/>
      <point x="299" y="476" type="curve" smooth="yes"/>
      <point x="315" y="468"/>
      <point x="321" y="459"/>
      <point x="333" y="446" type="curve" smooth="yes"/>
      <point x="349" y="428"/>
      <point x="358" y="418"/>
      <point x="369" y="396" type="curve" smooth="yes"/>
      <point x="377" y="379"/>
      <point x="379" y="368"/>
      <point x="381" y="348" type="curve" smooth="yes"/>
      <point x="381" y="341"/>
      <point x="382" y="336"/>
      <point x="382" y="330" type="curve" smooth="yes"/>
      <point x="382" y="319"/>
      <point x="381" y="309"/>
      <point x="381" y="296" type="curve" smooth="yes"/>
      <point x="381" y="283"/>
      <point x="382" y="273"/>
      <point x="382" y="262" type="curve" smooth="yes"/>
      <point x="382" y="256"/>
      <point x="382" y="251"/>
      <point x="381" y="244" type="curve" smooth="yes"/>
      <point x="377" y="220"/>
      <point x="371" y="206"/>
      <point x="363" y="184" type="curve" smooth="yes"/>
      <point x="351" y="153"/>
      <point x="345" y="135"/>
      <point x="329" y="106" type="curve" smooth="yes"/>
      <point x="317" y="84"/>
      <point x="310" y="72"/>
      <point x="293" y="54" type="curve" smooth="yes"/>
      <point x="279" y="39"/>
      <point x="269" y="30"/>
      <point x="251" y="22" type="curve" smooth="yes"/>
      <point x="239" y="17"/>
      <point x="230" y="15"/>
      <point x="219" y="15" type="curve" smooth="yes"/>
      <point x="215" y="15"/>
      <point x="210" y="15"/>
      <point x="205" y="16" type="curve" smooth="yes"/>
      <point x="182" y="18"/>
      <point x="171" y="26"/>
      <point x="149" y="32" type="curve" smooth="yes"/>
      <point x="133" y="37"/>
      <point x="123" y="41"/>
      <point x="107" y="44" type="curve" smooth="yes"/>
      <point x="90" y="47"/>
      <point x="80" y="48"/>
      <point x="63" y="48" type="curve" smooth="yes"/>
      <point x="53" y="48"/>
      <point x="45" y="44"/>
      <point x="38" y="44" type="curve" smooth="yes"/>
      <point x="35" y="44"/>
      <point x="32" y="44"/>
      <point x="29" y="46" type="curve" smooth="yes"/>
      <point x="23" y="49"/>
      <point x="20" y="59"/>
      <point x="20" y="68" type="curve" smooth="yes"/>
      <point x="20" y="72"/>
      <point x="20" y="76"/>
      <point x="22" y="78" type="curve" smooth="yes"/>
      <point x="29" y="89"/>
      <point x="42" y="86"/>
      <point x="55" y="88" type="curve" smooth="yes"/>
      <point x="62" y="89"/>
      <point x="68" y="90"/>
      <point x="75" y="90" type="curve" smooth="yes"/>
      <point x="83" y="90"/>
      <point x="92" y="89"/>
      <point x="102" y="87" type="curve" smooth="yes"/>
      <point x="120" y="84"/>
      <point x="131" y="81"/>
      <point x="149" y="79" type="curve" smooth="yes"/>
      <point x="168" y="77"/>
      <point x="176" y="68"/>
      <point x="195" y="68" type="curve" smooth="yes"/>
      <point x="209" y="68"/>
      <point x="219" y="68"/>
      <point x="231" y="76" type="curve" smooth="yes"/>
      <point x="245" y="85"/>
      <point x="249" y="95"/>
      <point x="259" y="108" type="curve" smooth="yes"/>
      <point x="271" y="124"/>
      <point x="278" y="133"/>
      <point x="287" y="150" type="curve" smooth="yes"/>
      <point x="297" y="170"/>
      <point x="300" y="183"/>
      <point x="307" y="204" type="curve" smooth="yes"/>
      <point x="315" y="227"/>
      <point x="322" y="240"/>
      <point x="325" y="264" type="curve" smooth="yes"/>
      <point x="326" y="275"/>
      <point x="327" y="284"/>
      <point x="327" y="293" type="curve" smooth="yes"/>
      <point x="327" y="305"/>
      <point x="326" y="315"/>
      <point x="323" y="330" type="curve" smooth="yes"/>
      <point x="318" y="355"/>
      <point x="311" y="369"/>
      <point x="301" y="392" type="curve" smooth="yes"/>
      <point x="295" y="406"/>
      <point x="295" y="420"/>
      <point x="281" y="426" type="curve" smooth="yes"/>
      <point x="273" y="430"/>
      <point x="265" y="431"/>
      <point x="258" y="431" type="curve" smooth="yes"/>
      <point x="248" y="431"/>
      <point x="238" y="429"/>
      <point x="227" y="426" type="curve" smooth="yes"/>
      <point x="204" y="420"/>
      <point x="193" y="411"/>
      <point x="171" y="400" type="curve" smooth="yes"/>
      <point x="154" y="392"/>
      <point x="147" y="383"/>
      <point x="129" y="378" type="curve" smooth="yes"/>
      <point x="120" y="376"/>
      <point x="113" y="373"/>
      <point x="107" y="373" type="curve" smooth="yes"/>
      <point x="102" y="373"/>
      <point x="97" y="374"/>
      <point x="93" y="378" type="curve" smooth="yes"/>
      <point x="85" y="384"/>
      <point x="78" y="394"/>
      <point x="78" y="403" type="curve" smooth="yes"/>
      <point x="78" y="407"/>
      <point x="79" y="411"/>
      <point x="82" y="414" type="curve" smooth="yes"/>
      <point x="99" y="440"/>
      <point x="107" y="458"/>
      <point x="122" y="486" type="curve" smooth="yes"/>
      <point x="135" y="510"/>
      <point x="143" y="523"/>
      <point x="154" y="548" type="curve" smooth="yes"/>
      <point x="162" y="567"/>
      <point x="164" y="578"/>
      <point x="171" y="598" type="curve" smooth="yes"/>
      <point x="177" y="616"/>
      <point x="183" y="625"/>
      <point x="187" y="644" type="curve" smooth="yes"/>
      <point x="189" y="654"/>
      <point x="190" y="662"/>
      <point x="190" y="670" type="curve" smooth="yes"/>
      <point x="190" y="677"/>
      <point x="189" y="684"/>
      <point x="186" y="693" type="curve" smooth="yes"/>
      <point x="180" y="708"/>
      <point x="165" y="704"/>
    </contour>
  </outline>
</glyph>
<glyph name="glyph17" format="1">
  <advance width="376"/>
  <unicode hex="0036"/>
  <outline>
    <contour>
      <point x="226" y="390" type="curve" smooth="yes"/>
      <point x="220" y="391"/>
      <point x="214" y="391"/>
      <point x="209" y="391" type="curve" smooth="yes"/>
      <point x="196" y="391"/>
      <point x="184" y="388"/>
      <point x="174" y="378" type="curve" smooth="yes"/>
      <point x="156" y="361"/>
      <point x="162" y="341"/>
      <point x="152" y="318" type="curve" smooth="yes"/>
      <point x="146" y="304"/>
      <point x="136" y="299"/>
      <point x="132" y="284" type="curve" smooth="yes"/>
      <point x="127" y="264"/>
      <point x="129" y="252"/>
      <point x="128" y="232" type="curve" smooth="yes"/>
      <point x="127" y="230"/>
      <point x="127" y="228"/>
      <point x="127" y="226" type="curve" smooth="yes"/>
      <point x="127" y="219"/>
      <point x="128" y="213"/>
      <point x="128" y="206" type="curve" smooth="yes"/>
      <point x="128" y="203"/>
      <point x="128" y="200"/>
      <point x="128" y="196" type="curve" smooth="yes"/>
      <point x="127" y="190"/>
      <point x="125" y="179"/>
      <point x="120" y="182" type="curve" smooth="yes"/>
      <point x="102" y="191"/>
      <point x="104" y="219"/>
      <point x="85" y="219" type="curve" smooth="yes"/>
      <point x="84" y="219"/>
      <point x="84" y="219"/>
      <point x="84" y="219" type="curve" smooth="yes"/>
      <point x="73" y="218"/>
      <point x="72" y="208"/>
      <point x="72" y="197" type="curve" smooth="yes"/>
      <point x="72" y="195"/>
      <point x="72" y="192"/>
      <point x="72" y="190" type="curve" smooth="yes"/>
      <point x="72" y="187"/>
      <point x="72" y="183"/>
      <point x="72" y="180" type="curve" smooth="yes"/>
      <point x="70" y="171"/>
      <point x="70" y="165"/>
      <point x="70" y="158" type="curve" smooth="yes"/>
      <point x="70" y="150"/>
      <point x="71" y="142"/>
      <point x="72" y="132" type="curve" smooth="yes"/>
      <point x="73" y="122"/>
      <point x="75" y="117"/>
      <point x="78" y="108" type="curve" smooth="yes"/>
      <point x="81" y="99"/>
      <point x="80" y="92"/>
      <point x="88" y="86" type="curve" smooth="yes"/>
      <point x="101" y="76"/>
      <point x="110" y="71"/>
      <point x="126" y="68" type="curve" smooth="yes"/>
      <point x="144" y="65"/>
      <point x="157" y="63"/>
      <point x="173" y="63" type="curve" smooth="yes"/>
      <point x="180" y="63"/>
      <point x="187" y="63"/>
      <point x="196" y="64" type="curve" smooth="yes"/>
      <point x="217" y="66"/>
      <point x="230" y="67"/>
      <point x="248" y="78" type="curve" smooth="yes"/>
      <point x="266" y="89"/>
      <point x="273" y="100"/>
      <point x="284" y="118" type="curve" smooth="yes"/>
      <point x="295" y="137"/>
      <point x="300" y="150"/>
      <point x="304" y="172" type="curve" smooth="yes"/>
      <point x="305" y="180"/>
      <point x="306" y="187"/>
      <point x="306" y="194" type="curve" smooth="yes"/>
      <point x="306" y="205"/>
      <point x="304" y="216"/>
      <point x="302" y="230" type="curve" smooth="yes"/>
      <point x="298" y="255"/>
      <point x="292" y="268"/>
      <point x="284" y="292" type="curve" smooth="yes"/>
      <point x="278" y="310"/>
      <point x="272" y="319"/>
      <point x="264" y="336" type="curve" smooth="yes"/>
      <point x="257" y="350"/>
      <point x="255" y="359"/>
      <point x="246" y="372" type="curve" smooth="yes"/>
      <point x="240" y="381"/>
      <point x="236" y="389"/>
    </contour>
    <contour>
      <point x="302" y="770" type="curve" smooth="yes"/>
      <point x="308" y="777"/>
      <point x="317" y="778"/>
      <point x="326" y="776" type="curve" smooth="yes"/>
      <point x="335" y="774"/>
      <point x="342" y="771"/>
      <point x="346" y="762" type="curve" smooth="yes"/>
      <point x="348" y="756"/>
      <point x="350" y="750"/>
      <point x="350" y="744" type="curve" smooth="yes"/>
      <point x="350" y="740"/>
      <point x="349" y="735"/>
      <point x="348" y="730" type="curve" smooth="yes"/>
      <point x="343" y="709"/>
      <point x="335" y="700"/>
      <point x="326" y="680" type="curve" smooth="yes"/>
      <point x="315" y="656"/>
      <point x="310" y="641"/>
      <point x="296" y="618" type="curve" smooth="yes"/>
      <point x="289" y="606"/>
      <point x="279" y="603"/>
      <point x="272" y="592" type="curve" smooth="yes"/>
      <point x="259" y="571"/>
      <point x="257" y="558"/>
      <point x="246" y="536" type="curve" smooth="yes"/>
      <point x="234" y="513"/>
      <point x="228" y="500"/>
      <point x="214" y="478" type="curve" smooth="yes"/>
      <point x="208" y="469"/>
      <point x="201" y="467"/>
      <point x="196" y="458" type="curve" smooth="yes"/>
      <point x="191" y="450"/>
      <point x="182" y="441"/>
      <point x="188" y="434" type="curve" smooth="yes"/>
      <point x="199" y="422"/>
      <point x="212" y="428"/>
      <point x="228" y="422" type="curve" smooth="yes"/>
      <point x="242" y="416"/>
      <point x="251" y="413"/>
      <point x="262" y="404" type="curve" smooth="yes"/>
      <point x="279" y="390"/>
      <point x="288" y="381"/>
      <point x="300" y="362" type="curve" smooth="yes"/>
      <point x="318" y="333"/>
      <point x="324" y="315"/>
      <point x="336" y="284" type="curve" smooth="yes"/>
      <point x="344" y="263"/>
      <point x="348" y="250"/>
      <point x="352" y="228" type="curve" smooth="yes"/>
      <point x="355" y="210"/>
      <point x="356" y="198"/>
      <point x="356" y="184" type="curve" smooth="yes"/>
      <point x="356" y="178"/>
      <point x="356" y="172"/>
      <point x="356" y="166" type="curve" smooth="yes"/>
      <point x="355" y="144"/>
      <point x="352" y="132"/>
      <point x="344" y="112" type="curve" smooth="yes"/>
      <point x="336" y="93"/>
      <point x="330" y="83"/>
      <point x="316" y="68" type="curve" smooth="yes"/>
      <point x="300" y="52"/>
      <point x="289" y="44"/>
      <point x="268" y="34" type="curve" smooth="yes"/>
      <point x="245" y="23"/>
      <point x="231" y="19"/>
      <point x="206" y="16" type="curve" smooth="yes"/>
      <point x="192" y="14"/>
      <point x="181" y="13"/>
      <point x="170" y="13" type="curve" smooth="yes"/>
      <point x="158" y="13"/>
      <point x="146" y="14"/>
      <point x="130" y="16" type="curve" smooth="yes"/>
      <point x="112" y="18"/>
      <point x="101" y="20"/>
      <point x="84" y="28" type="curve" smooth="yes"/>
      <point x="71" y="34"/>
      <point x="66" y="41"/>
      <point x="56" y="52" type="curve" smooth="yes"/>
      <point x="44" y="65"/>
      <point x="36" y="72"/>
      <point x="30" y="88" type="curve" smooth="yes"/>
      <point x="22" y="109"/>
      <point x="20" y="123"/>
      <point x="20" y="146" type="curve" smooth="yes"/>
      <point x="20" y="176"/>
      <point x="23" y="192"/>
      <point x="28" y="222" type="curve" smooth="yes"/>
      <point x="32" y="245"/>
      <point x="35" y="258"/>
      <point x="44" y="280" type="curve" smooth="yes"/>
      <point x="53" y="304"/>
      <point x="62" y="315"/>
      <point x="74" y="338" type="curve" smooth="yes"/>
      <point x="90" y="369"/>
      <point x="99" y="387"/>
      <point x="116" y="418" type="curve" smooth="yes"/>
      <point x="134" y="450"/>
      <point x="144" y="468"/>
      <point x="162" y="500" type="curve" smooth="yes"/>
      <point x="178" y="528"/>
      <point x="189" y="542"/>
      <point x="204" y="570" type="curve" smooth="yes"/>
      <point x="219" y="597"/>
      <point x="224" y="615"/>
      <point x="238" y="642" type="curve" smooth="yes"/>
      <point x="254" y="672"/>
      <point x="267" y="687"/>
      <point x="282" y="718" type="curve" smooth="yes"/>
      <point x="292" y="737"/>
      <point x="289" y="753"/>
    </contour>
  </outline>
</glyph>
<glyph name="seven" format="1">
  <advance width="638"/>
  <unicode hex="0037"/>
  <outline>
    <contour>
      <point x="54" y="692" type="curve" smooth="yes"/>
      <point x="84" y="692"/>
      <point x="98" y="678"/>
      <point x="128" y="676" type="curve" smooth="yes"/>
      <point x="139" y="675"/>
      <point x="149" y="675"/>
      <point x="158" y="675" type="curve" smooth="yes"/>
      <point x="162" y="675"/>
      <point x="166.188" y="674.938"/>
      <point x="170.453" y="674.938" type="curve" smooth="yes"/>
      <point x="183.25" y="674.938"/>
      <point x="196.75" y="675.5"/>
      <point x="208" y="680" type="curve" smooth="yes"/>
      <point x="233" y="690"/>
      <point x="251" y="698"/>
      <point x="260" y="700" type="curve" smooth="yes"/>
      <point x="276" y="703"/>
      <point x="289" y="705"/>
      <point x="308" y="710" type="curve" smooth="yes"/>
      <point x="333" y="717"/>
      <point x="347" y="722"/>
      <point x="372" y="730" type="curve" smooth="yes"/>
      <point x="395" y="737"/>
      <point x="409" y="743"/>
      <point x="432" y="748" type="curve" smooth="yes"/>
      <point x="465" y="756"/>
      <point x="484" y="759"/>
      <point x="518" y="764" type="curve" smooth="yes"/>
      <point x="544" y="768"/>
      <point x="561" y="774"/>
      <point x="585" y="774" type="curve" smooth="yes"/>
      <point x="589" y="774"/>
      <point x="592" y="774"/>
      <point x="596" y="774" type="curve" smooth="yes"/>
      <point x="607" y="773"/>
      <point x="616" y="767"/>
      <point x="618" y="756" type="curve" smooth="yes"/>
      <point x="618" y="754"/>
      <point x="618" y="753"/>
      <point x="618" y="752" type="curve" smooth="yes"/>
      <point x="618" y="738"/>
      <point x="610" y="730"/>
      <point x="604" y="716" type="curve" smooth="yes"/>
      <point x="588" y="683"/>
      <point x="580" y="664"/>
      <point x="560" y="634" type="curve" smooth="yes"/>
      <point x="539" y="603"/>
      <point x="524" y="588"/>
      <point x="500" y="560" type="curve" smooth="yes"/>
      <point x="465" y="518"/>
      <point x="461" y="502"/>
      <point x="430" y="458" type="curve" smooth="yes"/>
      <point x="415" y="438"/>
      <point x="397" y="416"/>
      <point x="382" y="396" type="curve" smooth="yes"/>
      <point x="366" y="375"/>
      <point x="365" y="372"/>
      <point x="347" y="352" type="curve" smooth="yes"/>
      <point x="329" y="331"/>
      <point x="312" y="312"/>
      <point x="292" y="292" type="curve" smooth="yes"/>
      <point x="260" y="260" type="line" smooth="yes"/>
      <point x="198" y="194"/>
      <point x="163" y="157"/>
      <point x="102" y="90" type="curve" smooth="yes"/>
      <point x="96" y="83"/>
      <point x="96" y="73"/>
      <point x="94" y="64" type="curve" smooth="yes"/>
      <point x="91" y="50"/>
      <point x="120" y="45"/>
      <point x="108" y="39" type="curve" smooth="yes"/>
      <point x="98" y="34"/>
      <point x="91" y="32"/>
      <point x="84" y="32" type="curve" smooth="yes"/>
      <point x="72" y="32"/>
      <point x="61" y="38"/>
      <point x="42" y="40" type="curve" smooth="yes"/>
      <point x="33" y="41"/>
      <point x="32" y="50"/>
      <point x="28" y="58" type="curve" smooth="yes"/>
      <point x="24" y="67"/>
      <point x="17" y="75"/>
      <point x="22" y="84" type="curve" smooth="yes"/>
      <point x="41" y="116"/>
      <point x="62" y="126"/>
      <point x="86" y="154" type="curve" smooth="yes"/>
      <point x="133" y="207"/>
      <point x="154" y="242"/>
      <point x="204" y="292" type="curve" smooth="yes"/>
      <point x="212" y="300"/>
      <point x="217" y="307"/>
      <point x="225" y="315" type="curve" smooth="yes"/>
      <point x="266" y="355"/>
      <point x="285" y="375"/>
      <point x="320" y="420" type="curve" smooth="yes"/>
      <point x="331" y="434"/>
      <point x="332" y="443"/>
      <point x="342" y="456" type="curve" smooth="yes"/>
      <point x="413" y="551"/>
      <point x="464" y="596"/>
      <point x="534" y="692" type="curve" smooth="yes"/>
      <point x="539" y="698"/>
      <point x="538" y="712"/>
      <point x="530" y="712" type="curve" smooth="yes"/>
      <point x="527" y="712"/>
      <point x="524" y="712"/>
      <point x="522" y="712" type="curve" smooth="yes"/>
      <point x="496" y="712"/>
      <point x="479" y="703"/>
      <point x="452" y="696" type="curve" smooth="yes"/>
      <point x="392" y="680"/>
      <point x="360" y="666"/>
      <point x="300" y="652" type="curve" smooth="yes"/>
      <point x="272" y="645"/>
      <point x="256" y="647"/>
      <point x="228" y="642" type="curve" smooth="yes"/>
      <point x="190" y="635"/>
      <point x="170" y="623"/>
      <point x="132" y="620" type="curve" smooth="yes"/>
      <point x="129" y="620"/>
      <point x="126" y="620"/>
      <point x="123" y="620" type="curve" smooth="yes"/>
      <point x="106" y="620"/>
      <point x="95" y="625"/>
      <point x="76" y="630" type="curve" smooth="yes"/>
      <point x="61" y="634"/>
      <point x="50" y="634"/>
      <point x="40" y="646" type="curve" smooth="yes"/>
      <point x="33" y="655"/>
      <point x="34" y="664"/>
      <point x="38" y="676" type="curve" smooth="yes"/>
      <point x="41" y="684"/>
      <point x="45" y="692"/>
    </contour>
  </outline>
</glyph>
<glyph name="eight" format="1">
  <advance width="505"/>
  <unicode hex="0038"/>
  <outline>
    <contour>
      <point x="167" y="344" type="curve" smooth="yes"/>
      <point x="141" y="334"/>
      <point x="139" y="318"/>
      <point x="121" y="296" type="curve" smooth="yes"/>
      <point x="114" y="287"/>
      <point x="110" y="282"/>
      <point x="107" y="270" type="curve" smooth="yes"/>
      <point x="103" y="255"/>
      <point x="98" y="249"/>
      <point x="91" y="235" type="curve" smooth="yes"/>
      <point x="87" y="227"/>
      <point x="82" y="223"/>
      <point x="81" y="214" type="curve" smooth="yes"/>
      <point x="80" y="206"/>
      <point x="80" y="200"/>
      <point x="80" y="193" type="curve" smooth="yes"/>
      <point x="80" y="176"/>
      <point x="82" y="162"/>
      <point x="89" y="142" type="curve" smooth="yes"/>
      <point x="95" y="123"/>
      <point x="106" y="115"/>
      <point x="119" y="100" type="curve" smooth="yes"/>
      <point x="134" y="83"/>
      <point x="142" y="73"/>
      <point x="161" y="60" type="curve" smooth="yes"/>
      <point x="174" y="51"/>
      <point x="184" y="49"/>
      <point x="199" y="44" type="curve" smooth="yes"/>
      <point x="206" y="42"/>
      <point x="212" y="38"/>
      <point x="219" y="42" type="curve" smooth="yes"/>
      <point x="235" y="52"/>
      <point x="236" y="59"/>
      <point x="244" y="76" type="curve" smooth="yes"/>
      <point x="247" y="82"/>
      <point x="248" y="87"/>
      <point x="248" y="93" type="curve" smooth="yes"/>
      <point x="248" y="99"/>
      <point x="246" y="106"/>
      <point x="246" y="115" type="curve" smooth="yes"/>
      <point x="245" y="131"/>
      <point x="241" y="138"/>
      <point x="240" y="154" type="curve" smooth="yes"/>
      <point x="240" y="155"/>
      <point x="239" y="157"/>
      <point x="239" y="158" type="curve" smooth="yes"/>
      <point x="239" y="167"/>
      <point x="242" y="175"/>
      <point x="242" y="183" type="curve" smooth="yes"/>
      <point x="242" y="187"/>
      <point x="241" y="190"/>
      <point x="241" y="193" type="curve" smooth="yes"/>
      <point x="236" y="215"/>
      <point x="229" y="216"/>
      <point x="219" y="237" type="curve" smooth="yes"/>
      <point x="212" y="252"/>
      <point x="212" y="269"/>
      <point x="205" y="284" type="curve" smooth="yes"/>
      <point x="197" y="301"/>
      <point x="197" y="312"/>
      <point x="187" y="328" type="curve" smooth="yes"/>
      <point x="182" y="336"/>
      <point x="176" y="347"/>
    </contour>
    <contour>
      <point x="191" y="420" type="curve" smooth="yes"/>
      <point x="229" y="425"/>
      <point x="243" y="451"/>
      <point x="275" y="472" type="curve" smooth="yes"/>
      <point x="297" y="487"/>
      <point x="310" y="495"/>
      <point x="331" y="512" type="curve" smooth="yes"/>
      <point x="352" y="529"/>
      <point x="362" y="541"/>
      <point x="383" y="558" type="curve" smooth="yes"/>
      <point x="393" y="566"/>
      <point x="400" y="569"/>
      <point x="411" y="576" type="curve" smooth="yes"/>
      <point x="418" y="581"/>
      <point x="427" y="582"/>
      <point x="429" y="590" type="curve" smooth="yes"/>
      <point x="430" y="596"/>
      <point x="423" y="599"/>
      <point x="417" y="600" type="curve" smooth="yes"/>
      <point x="413" y="601"/>
      <point x="411" y="601"/>
      <point x="408" y="601" type="curve" smooth="yes"/>
      <point x="401" y="601"/>
      <point x="396" y="600"/>
      <point x="389" y="600" type="curve" smooth="yes"/>
      <point x="387" y="600"/>
      <point x="385" y="600"/>
      <point x="383" y="600" type="curve" smooth="yes"/>
      <point x="370" y="602"/>
      <point x="364" y="610"/>
      <point x="351" y="610" type="curve" smooth="yes"/>
      <point x="324" y="610"/>
      <point x="310" y="603"/>
      <point x="283" y="600" type="curve" smooth="yes"/>
      <point x="262" y="598"/>
      <point x="250" y="598"/>
      <point x="229" y="596" type="curve" smooth="yes"/>
      <point x="207" y="594"/>
      <point x="195" y="595"/>
      <point x="173" y="592" type="curve" smooth="yes"/>
      <point x="171" y="592"/>
      <point x="169" y="592"/>
      <point x="167" y="592" type="curve" smooth="yes"/>
      <point x="160" y="592"/>
      <point x="153" y="593"/>
      <point x="147" y="593" type="curve" smooth="yes"/>
      <point x="139" y="593"/>
      <point x="133" y="591"/>
      <point x="129" y="584" type="curve" smooth="yes"/>
      <point x="126" y="580"/>
      <point x="125" y="576"/>
      <point x="125" y="572" type="curve" smooth="yes"/>
      <point x="125" y="560"/>
      <point x="135" y="549"/>
      <point x="139" y="534" type="curve" smooth="yes"/>
      <point x="143" y="520"/>
      <point x="146" y="512"/>
      <point x="151" y="498" type="curve" smooth="yes"/>
      <point x="156" y="482"/>
      <point x="157" y="473"/>
      <point x="165" y="458" type="curve" smooth="yes"/>
      <point x="172" y="443"/>
      <point x="173" y="420"/>
      <point x="189" y="420" type="curve" smooth="yes"/>
      <point x="189" y="420"/>
      <point x="190" y="420"/>
    </contour>
    <contour>
      <point x="115" y="636" type="curve" smooth="yes"/>
      <point x="124" y="634"/>
      <point x="128" y="633"/>
      <point x="132" y="633" type="curve" smooth="yes"/>
      <point x="137" y="633"/>
      <point x="140" y="635"/>
      <point x="156" y="639" type="curve" smooth="yes"/>
      <point x="164" y="641"/>
      <point x="165" y="647"/>
      <point x="163" y="656" type="curve" smooth="yes"/>
      <point x="158" y="682"/>
      <point x="164" y="699"/>
      <point x="151" y="722" type="curve" smooth="yes"/>
      <point x="146" y="732"/>
      <point x="132" y="737"/>
      <point x="123" y="730" type="curve" smooth="yes"/>
      <point x="111" y="720"/>
      <point x="108" y="706"/>
      <point x="108" y="690" type="curve" smooth="yes"/>
      <point x="108" y="688"/>
      <point x="108" y="687"/>
      <point x="108" y="685" type="curve" smooth="yes"/>
      <point x="108" y="676"/>
      <point x="107" y="665"/>
      <point x="107" y="656" type="curve" smooth="yes"/>
      <point x="107" y="646"/>
      <point x="108" y="638"/>
    </contour>
    <contour>
      <point x="185" y="640" type="curve" smooth="yes"/>
      <point x="185" y="638"/>
      <point x="189" y="637"/>
      <point x="195" y="637" type="curve" smooth="yes"/>
      <point x="211" y="637"/>
      <point x="243" y="642"/>
      <point x="265" y="644" type="curve" smooth="yes"/>
      <point x="289" y="646"/>
      <point x="303" y="652"/>
      <point x="327" y="652" type="curve" smooth="yes"/>
      <point x="360" y="652"/>
      <point x="378" y="647"/>
      <point x="411" y="644" type="curve" smooth="yes"/>
      <point x="424" y="643"/>
      <point x="433" y="645"/>
      <point x="445" y="640" type="curve" smooth="yes"/>
      <point x="459" y="634"/>
      <point x="472" y="628"/>
      <point x="481" y="616" type="curve" smooth="yes"/>
      <point x="484" y="611"/>
      <point x="485" y="606"/>
      <point x="485" y="600" type="curve" smooth="yes"/>
      <point x="485" y="592"/>
      <point x="482" y="582"/>
      <point x="478" y="574" type="curve" smooth="yes"/>
      <point x="466" y="551"/>
      <point x="450" y="544"/>
      <point x="431" y="526" type="curve" smooth="yes"/>
      <point x="411" y="507"/>
      <point x="396" y="502"/>
      <point x="373" y="486" type="curve" smooth="yes"/>
      <point x="355" y="474"/>
      <point x="344" y="467"/>
      <point x="327" y="454" type="curve" smooth="yes"/>
      <point x="311" y="442"/>
      <point x="304" y="433"/>
      <point x="287" y="422" type="curve" smooth="yes"/>
      <point x="272" y="413"/>
      <point x="262" y="412"/>
      <point x="247" y="404" type="curve" smooth="yes"/>
      <point x="237" y="399"/>
      <point x="231" y="395"/>
      <point x="223" y="388" type="curve" smooth="yes"/>
      <point x="216" y="382"/>
      <point x="207" y="380"/>
      <point x="207" y="372" type="curve" smooth="yes"/>
      <point x="207" y="356"/>
      <point x="216" y="349"/>
      <point x="223" y="334" type="curve" smooth="yes"/>
      <point x="235" y="310"/>
      <point x="243" y="297"/>
      <point x="255" y="274" type="curve" smooth="yes"/>
      <point x="267" y="253"/>
      <point x="276" y="243"/>
      <point x="285" y="220" type="curve" smooth="yes"/>
      <point x="292" y="202"/>
      <point x="294" y="191"/>
      <point x="295" y="172" type="curve" smooth="yes"/>
      <point x="295" y="168"/>
      <point x="295" y="165"/>
      <point x="295" y="162" type="curve" smooth="yes"/>
      <point x="295" y="141"/>
      <point x="292" y="127"/>
      <point x="291" y="104" type="curve" smooth="yes"/>
      <point x="291" y="103"/>
      <point x="291" y="101"/>
      <point x="291" y="100" type="curve" smooth="yes"/>
      <point x="291" y="88"/>
      <point x="292" y="78"/>
      <point x="292" y="68" type="curve" smooth="yes"/>
      <point x="292" y="60"/>
      <point x="291" y="52"/>
      <point x="287" y="44" type="curve" smooth="yes"/>
      <point x="277" y="25"/>
      <point x="261" y="20"/>
      <point x="241" y="12" type="curve" smooth="yes"/>
      <point x="233" y="9"/>
      <point x="227" y="8"/>
      <point x="220" y="8" type="curve" smooth="yes"/>
      <point x="213" y="8"/>
      <point x="207" y="9"/>
      <point x="199" y="10" type="curve" smooth="yes"/>
      <point x="177" y="13"/>
      <point x="165" y="15"/>
      <point x="145" y="24" type="curve" smooth="yes"/>
      <point x="128" y="32"/>
      <point x="120" y="39"/>
      <point x="107" y="52" type="curve" smooth="yes"/>
      <point x="91" y="67"/>
      <point x="82" y="77"/>
      <point x="71" y="96" type="curve" smooth="yes"/>
      <point x="60" y="113"/>
      <point x="58" y="124"/>
      <point x="51" y="144" type="curve" smooth="yes"/>
      <point x="44" y="164"/>
      <point x="40" y="176"/>
      <point x="37" y="196" type="curve" smooth="yes"/>
      <point x="36" y="201"/>
      <point x="35" y="206"/>
      <point x="35" y="211" type="curve" smooth="yes"/>
      <point x="35" y="217"/>
      <point x="36" y="223"/>
      <point x="39" y="230" type="curve" smooth="yes"/>
      <point x="45" y="251"/>
      <point x="52" y="261"/>
      <point x="63" y="280" type="curve" smooth="yes"/>
      <point x="72" y="295"/>
      <point x="78" y="303"/>
      <point x="89" y="316" type="curve" smooth="yes"/>
      <point x="101" y="331"/>
      <point x="108" y="339"/>
      <point x="121" y="352" type="curve" smooth="yes"/>
      <point x="129" y="360"/>
      <point x="135" y="363"/>
      <point x="143" y="372" type="curve" smooth="yes"/>
      <point x="149" y="380"/>
      <point x="155" y="384"/>
      <point x="155" y="394" type="curve" smooth="yes"/>
      <point x="155" y="407"/>
      <point x="142" y="408"/>
      <point x="136" y="420" type="curve" smooth="yes"/>
      <point x="127" y="438"/>
      <point x="122" y="448"/>
      <point x="114" y="466" type="curve" smooth="yes"/>
      <point x="107" y="481"/>
      <point x="108" y="494"/>
      <point x="103" y="510" type="curve" smooth="yes"/>
      <point x="95" y="538"/>
      <point x="103" y="559"/>
      <point x="87" y="584" type="curve" smooth="yes"/>
      <point x="82" y="593"/>
      <point x="72" y="579"/>
      <point x="63" y="574" type="curve" smooth="yes"/>
      <point x="58" y="571"/>
      <point x="51" y="557"/>
      <point x="45" y="558" type="curve" smooth="yes"/>
      <point x="37" y="559"/>
      <point x="38" y="569"/>
      <point x="34" y="576" type="curve" smooth="yes"/>
      <point x="27" y="586"/>
      <point x="20" y="593"/>
      <point x="20" y="605" type="curve" smooth="yes"/>
      <point x="20" y="606"/>
      <point x="20" y="606"/>
      <point x="20" y="607" type="curve" smooth="yes"/>
      <point x="21" y="617"/>
      <point x="38" y="616"/>
      <point x="47" y="620" type="curve" smooth="yes"/>
      <point x="56" y="624"/>
      <point x="66" y="620"/>
      <point x="71" y="628" type="curve" smooth="yes"/>
      <point x="74" y="635"/>
      <point x="75" y="640"/>
      <point x="75" y="646" type="curve" smooth="yes"/>
      <point x="75" y="651"/>
      <point x="74" y="657"/>
      <point x="74" y="663" type="curve" smooth="yes"/>
      <point x="74" y="665"/>
      <point x="75" y="666"/>
      <point x="75" y="668" type="curve" smooth="yes"/>
      <point x="76" y="687"/>
      <point x="76" y="697"/>
      <point x="77" y="716" type="curve" smooth="yes"/>
      <point x="78" y="729"/>
      <point x="76" y="738"/>
      <point x="81" y="750" type="curve" smooth="yes"/>
      <point x="86" y="762"/>
      <point x="91" y="771"/>
      <point x="103" y="776" type="curve" smooth="yes"/>
      <point x="111" y="780"/>
      <point x="118" y="781"/>
      <point x="125" y="781" type="curve" smooth="yes"/>
      <point x="133" y="781"/>
      <point x="141" y="779"/>
      <point x="151" y="774" type="curve" smooth="yes"/>
      <point x="166" y="767"/>
      <point x="167" y="757"/>
      <point x="175" y="742" type="curve" smooth="yes"/>
      <point x="180" y="732"/>
      <point x="178" y="736"/>
      <point x="180" y="725" type="curve" smooth="yes"/>
      <point x="184" y="703"/>
      <point x="185" y="680"/>
      <point x="185" y="659" type="curve" smooth="yes"/>
      <point x="185" y="652"/>
      <point x="185" y="646"/>
    </contour>
  </outline>
</glyph>
<glyph name="nine" format="1">
  <advance width="399"/>
  <unicode hex="0039"/>
  <outline>
    <contour>
      <point x="251" y="740" type="curve" smooth="yes"/>
      <point x="235" y="733"/>
      <point x="227" y="725"/>
      <point x="213" y="714" type="curve" smooth="yes"/>
      <point x="196" y="701"/>
      <point x="186" y="694"/>
      <point x="171" y="680" type="curve" smooth="yes"/>
      <point x="154" y="664"/>
      <point x="144" y="655"/>
      <point x="131" y="636" type="curve" smooth="yes"/>
      <point x="117" y="617"/>
      <point x="113" y="603"/>
      <point x="103" y="582" type="curve" smooth="yes"/>
      <point x="94" y="564"/>
      <point x="87" y="554"/>
      <point x="81" y="534" type="curve" smooth="yes"/>
      <point x="76" y="518"/>
      <point x="73" y="508"/>
      <point x="73" y="494" type="curve" smooth="yes"/>
      <point x="73" y="491"/>
      <point x="73" y="488"/>
      <point x="73" y="484" type="curve" smooth="yes"/>
      <point x="74" y="474"/>
      <point x="77" y="462"/>
      <point x="87" y="462" type="curve" smooth="yes"/>
      <point x="107" y="463"/>
      <point x="114" y="476"/>
      <point x="131" y="486" type="curve" smooth="yes"/>
      <point x="147" y="496"/>
      <point x="157" y="499"/>
      <point x="171" y="512" type="curve" smooth="yes"/>
      <point x="189" y="529"/>
      <point x="197" y="541"/>
      <point x="213" y="560" type="curve" smooth="yes"/>
      <point x="228" y="579"/>
      <point x="236" y="590"/>
      <point x="251" y="610" type="curve" smooth="yes"/>
      <point x="260" y="622"/>
      <point x="265" y="630"/>
      <point x="273" y="642" type="curve" smooth="yes"/>
      <point x="280" y="653"/>
      <point x="287" y="657"/>
      <point x="291" y="670" type="curve" smooth="yes"/>
      <point x="294" y="683"/>
      <point x="297" y="692"/>
      <point x="297" y="703" type="curve" smooth="yes"/>
      <point x="297" y="708"/>
      <point x="296" y="714"/>
      <point x="295" y="720" type="curve" smooth="yes"/>
      <point x="294" y="731"/>
      <point x="290" y="740"/>
      <point x="281" y="744" type="curve" smooth="yes"/>
      <point x="270" y="749"/>
      <point x="262" y="745"/>
    </contour>
    <contour>
      <point x="251" y="116" type="curve" smooth="yes"/>
      <point x="251" y="106"/>
      <point x="255" y="102"/>
      <point x="261" y="94" type="curve" smooth="yes"/>
      <point x="268" y="84"/>
      <point x="281" y="85"/>
      <point x="283" y="72" type="curve" smooth="yes"/>
      <point x="283" y="70"/>
      <point x="283" y="69"/>
      <point x="283" y="67" type="curve" smooth="yes"/>
      <point x="283" y="57"/>
      <point x="278" y="49"/>
      <point x="269" y="42" type="curve" smooth="yes"/>
      <point x="261" y="36"/>
      <point x="254" y="33"/>
      <point x="245" y="33" type="curve" smooth="yes"/>
      <point x="243" y="33"/>
      <point x="240" y="34"/>
      <point x="237" y="34" type="curve" smooth="yes"/>
      <point x="227" y="36"/>
      <point x="221" y="41"/>
      <point x="217" y="50" type="curve" smooth="yes"/>
      <point x="208" y="67"/>
      <point x="207" y="78"/>
      <point x="205" y="98" type="curve" smooth="yes"/>
      <point x="203" y="114"/>
      <point x="203" y="126"/>
      <point x="203" y="139" type="curve" smooth="yes"/>
      <point x="203" y="147"/>
      <point x="203" y="154"/>
      <point x="203" y="164" type="curve" smooth="yes"/>
      <point x="204" y="193"/>
      <point x="206" y="209"/>
      <point x="211" y="238" type="curve" smooth="yes"/>
      <point x="215" y="264"/>
      <point x="222" y="278"/>
      <point x="227" y="304" type="curve" smooth="yes"/>
      <point x="232" y="330"/>
      <point x="232" y="344"/>
      <point x="237" y="370" type="curve" smooth="yes"/>
      <point x="241" y="391"/>
      <point x="246" y="402"/>
      <point x="251" y="422" type="curve" smooth="yes"/>
      <point x="256" y="438"/>
      <point x="258" y="448"/>
      <point x="263" y="464" type="curve" smooth="yes"/>
      <point x="269" y="487"/>
      <point x="275" y="499"/>
      <point x="279" y="522" type="curve" smooth="yes"/>
      <point x="281" y="537"/>
      <point x="291" y="554"/>
      <point x="291" y="566" type="curve" smooth="yes"/>
      <point x="291" y="572"/>
      <point x="288" y="576"/>
      <point x="281" y="578" type="curve" smooth="yes"/>
      <point x="279" y="578"/>
      <point x="278" y="579"/>
      <point x="277" y="579" type="curve" smooth="yes"/>
      <point x="260" y="579"/>
      <point x="262" y="546"/>
      <point x="247" y="530" type="curve" smooth="yes"/>
      <point x="221" y="501"/>
      <point x="205" y="487"/>
      <point x="175" y="462" type="curve" smooth="yes"/>
      <point x="154" y="445"/>
      <point x="142" y="435"/>
      <point x="117" y="424" type="curve" smooth="yes"/>
      <point x="106" y="419"/>
      <point x="97" y="416"/>
      <point x="87" y="416" type="curve" smooth="yes"/>
      <point x="83" y="416"/>
      <point x="78" y="417"/>
      <point x="73" y="418" type="curve" smooth="yes"/>
      <point x="58" y="421"/>
      <point x="52" y="430"/>
      <point x="41" y="440" type="curve" smooth="yes"/>
      <point x="32" y="447"/>
      <point x="23" y="450"/>
      <point x="21" y="462" type="curve" smooth="yes"/>
      <point x="20" y="467"/>
      <point x="20" y="472"/>
      <point x="20" y="477" type="curve" smooth="yes"/>
      <point x="20" y="493"/>
      <point x="25" y="506"/>
      <point x="27" y="526" type="curve" smooth="yes"/>
      <point x="29" y="546"/>
      <point x="30" y="558"/>
      <point x="35" y="578" type="curve" smooth="yes"/>
      <point x="39" y="596"/>
      <point x="43" y="606"/>
      <point x="51" y="622" type="curve" smooth="yes"/>
      <point x="61" y="640"/>
      <point x="67" y="650"/>
      <point x="81" y="666" type="curve" smooth="yes"/>
      <point x="93" y="679"/>
      <point x="102" y="683"/>
      <point x="115" y="696" type="curve" smooth="yes"/>
      <point x="127" y="708"/>
      <point x="132" y="716"/>
      <point x="143" y="728" type="curve" smooth="yes"/>
      <point x="154" y="739"/>
      <point x="159" y="746"/>
      <point x="171" y="756" type="curve" smooth="yes"/>
      <point x="180" y="764"/>
      <point x="185" y="769"/>
      <point x="195" y="774" type="curve" smooth="yes"/>
      <point x="207" y="780"/>
      <point x="216" y="779"/>
      <point x="229" y="782" type="curve" smooth="yes"/>
      <point x="245" y="786"/>
      <point x="253" y="792"/>
      <point x="269" y="792" type="curve" smooth="yes"/>
      <point x="281" y="792"/>
      <point x="288" y="790"/>
      <point x="299" y="784" type="curve" smooth="yes"/>
      <point x="311" y="778"/>
      <point x="320" y="774"/>
      <point x="325" y="762" type="curve" smooth="yes"/>
      <point x="326" y="760"/>
      <point x="326" y="757"/>
      <point x="326" y="755" type="curve" smooth="yes"/>
      <point x="326" y="747"/>
      <point x="322" y="740"/>
      <point x="322" y="733" type="curve" smooth="yes"/>
      <point x="322" y="730"/>
      <point x="323" y="727"/>
      <point x="325" y="724" type="curve" smooth="yes"/>
      <point x="332" y="716"/>
      <point x="340" y="734"/>
      <point x="351" y="734" type="curve" smooth="yes"/>
      <point x="359" y="734"/>
      <point x="363" y="731"/>
      <point x="369" y="726" type="curve" smooth="yes"/>
      <point x="375" y="721"/>
      <point x="379" y="716"/>
      <point x="379" y="708" type="curve" smooth="yes"/>
      <point x="379" y="686"/>
      <point x="374" y="674"/>
      <point x="369" y="652" type="curve" smooth="yes"/>
      <point x="365" y="634"/>
      <point x="361" y="625"/>
      <point x="355" y="608" type="curve" smooth="yes"/>
      <point x="349" y="591"/>
      <point x="343" y="582"/>
      <point x="339" y="566" type="curve" smooth="yes"/>
      <point x="333" y="545"/>
      <point x="333" y="533"/>
      <point x="329" y="512" type="curve" smooth="yes"/>
      <point x="325" y="489"/>
      <point x="323" y="477"/>
      <point x="317" y="454" type="curve" smooth="yes"/>
      <point x="314" y="441"/>
      <point x="310" y="434"/>
      <point x="307" y="422" type="curve" smooth="yes"/>
      <point x="300" y="395"/>
      <point x="296" y="379"/>
      <point x="291" y="352" type="curve" smooth="yes"/>
      <point x="285" y="324"/>
      <point x="284" y="308"/>
      <point x="279" y="280" type="curve" smooth="yes"/>
      <point x="275" y="258"/>
      <point x="270" y="246"/>
      <point x="267" y="224" type="curve" smooth="yes"/>
      <point x="264" y="204"/>
      <point x="266" y="192"/>
      <point x="263" y="172" type="curve" smooth="yes"/>
      <point x="260" y="150"/>
      <point x="252" y="138"/>
    </contour>
  </outline>
</glyph>
<glyph name="A" format="1">
  <advance width="421"/>
  <unicode hex="0041"/>
  <outline>
    <contour>
      <point x="278.097" y="625" type="curve" smooth="yes"/>
      <point x="255.097" y="545"/>
      <point x="253.097" y="497"/>
      <point x="232.097" y="417" type="curve" smooth="yes"/>
      <point x="225.891" y="392.952"/>
      <point x="195.013" y="368.303"/>
      <point x="195.013" y="352.388" type="curve" smooth="yes"/>
      <point x="195.013" y="347.786"/>
      <point x="197.593" y="343.915"/>
      <point x="204.097" y="341" type="curve" smooth="yes"/>
      <point x="209.27" y="338.701"/>
      <point x="214.091" y="337.682"/>
      <point x="218.653" y="337.682" type="curve" smooth="yes"/>
      <point x="245.846" y="337.682"/>
      <point x="263.838" y="373.874"/>
      <point x="292.097" y="391" type="curve" smooth="yes"/>
      <point x="301.097" y="396"/>
      <point x="313.097" y="396"/>
      <point x="314.097" y="407" type="curve" smooth="yes"/>
      <point x="314.449" y="412.64"/>
      <point x="314.608" y="417.976"/>
      <point x="314.608" y="423.08" type="curve" smooth="yes"/>
      <point x="314.608" y="461.413"/>
      <point x="305.627" y="486.64"/>
      <point x="302.097" y="529" type="curve" smooth="yes"/>
      <point x="298.097" y="570"/>
      <point x="304.097" y="595"/>
      <point x="294.097" y="635" type="curve" smooth="yes"/>
      <point x="292.097" y="642"/>
      <point x="280.097" y="632"/>
    </contour>
    <contour>
      <point x="196.097" y="475" type="curve" smooth="yes"/>
      <point x="173.097" y="428"/>
      <point x="168.097" y="398"/>
      <point x="150.097" y="349" type="curve" smooth="yes"/>
      <point x="130.097" y="294"/>
      <point x="109.097" y="265"/>
      <point x="100.097" y="207" type="curve" smooth="yes"/>
      <point x="99.9404" y="206.112"/>
      <point x="99.8652" y="205.363"/>
      <point x="99.8652" y="204.744" type="curve" smooth="yes"/>
      <point x="99.8652" y="203.086"/>
      <point x="100.4" y="202.353"/>
      <point x="101.339" y="202.353" type="curve" smooth="yes"/>
      <point x="106.762" y="202.353"/>
      <point x="125.632" y="226.879"/>
      <point x="132.097" y="239" type="curve" smooth="yes"/>
      <point x="135.597" y="245.5"/>
      <point x="135.847" y="251.5"/>
      <point x="135.847" y="257.625" type="curve" smooth="yes"/>
      <point x="135.847" y="258.646"/>
      <point x="135.84" y="259.67"/>
      <point x="135.84" y="260.701" type="curve" smooth="yes"/>
      <point x="135.84" y="265.854"/>
      <point x="136.014" y="271.167"/>
      <point x="138.097" y="277" type="curve" smooth="yes"/>
      <point x="141.097" y="288"/>
      <point x="148.097" y="293"/>
      <point x="152.097" y="303" type="curve" smooth="yes"/>
      <point x="161.097" y="324"/>
      <point x="165.097" y="337"/>
      <point x="172.097" y="359" type="curve" smooth="yes"/>
      <point x="185.097" y="399"/>
      <point x="196.097" y="420"/>
      <point x="204.097" y="461" type="curve" smooth="yes"/>
      <point x="205.097" y="467"/>
      <point x="199.097" y="481"/>
    </contour>
    <contour>
      <point x="300.097" y="333" type="curve" smooth="yes"/>
      <point x="300.097" y="341"/>
      <point x="289.097" y="347"/>
      <point x="282.097" y="343" type="curve" smooth="yes"/>
      <point x="239.097" y="320"/>
      <point x="215.097" y="304"/>
      <point x="180.097" y="269" type="curve" smooth="yes"/>
      <point x="165.097" y="254"/>
      <point x="169.097" y="238"/>
      <point x="160.097" y="219" type="curve" smooth="yes"/>
      <point x="129.097" y="157"/>
      <point x="113.097" y="121"/>
      <point x="78.0967" y="61" type="curve" smooth="yes"/>
      <point x="70.0967" y="47"/>
      <point x="64.0967" y="39"/>
      <point x="50.0967" y="31" type="curve" smooth="yes"/>
      <point x="44.0967" y="27"/>
      <point x="37.0967" y="30"/>
      <point x="32.0967" y="35" type="curve" smooth="yes"/>
      <point x="24.0967" y="42"/>
      <point x="20.0967" y="49"/>
      <point x="20.0967" y="59" type="curve" smooth="yes"/>
      <point x="20.0312" y="60.1123"/>
      <point x="20" y="61.1904"/>
      <point x="20" y="62.2393" type="curve" smooth="yes"/>
      <point x="20" y="77.208"/>
      <point x="26.3584" y="86.0469"/>
      <point x="30.0967" y="101" type="curve" smooth="yes"/>
      <point x="41.0967" y="143"/>
      <point x="47.0967" y="167"/>
      <point x="58.0967" y="209" type="curve" smooth="yes"/>
      <point x="66.0967" y="238"/>
      <point x="68.0967" y="255"/>
      <point x="78.0967" y="283" type="curve" smooth="yes"/>
      <point x="92.0967" y="322"/>
      <point x="104.097" y="343"/>
      <point x="120.097" y="381" type="curve" smooth="yes"/>
      <point x="137.097" y="423"/>
      <point x="146.097" y="447"/>
      <point x="162.097" y="489" type="curve" smooth="yes"/>
      <point x="177.097" y="529"/>
      <point x="183.097" y="552"/>
      <point x="198.097" y="593" type="curve" smooth="yes"/>
      <point x="206.097" y="614"/>
      <point x="212.097" y="625"/>
      <point x="220.097" y="645" type="curve" smooth="yes"/>
      <point x="236.097" y="683"/>
      <point x="242.097" y="706"/>
      <point x="260.097" y="743" type="curve" smooth="yes"/>
      <point x="264.097" y="750"/>
      <point x="267.097" y="756"/>
      <point x="274.097" y="759" type="curve" smooth="yes"/>
      <point x="285.097" y="763"/>
      <point x="297.097" y="769"/>
      <point x="304.097" y="759" type="curve" smooth="yes"/>
      <point x="320.097" y="738"/>
      <point x="317.097" y="720"/>
      <point x="322.097" y="695" type="curve" smooth="yes"/>
      <point x="331.097" y="652"/>
      <point x="336.097" y="627"/>
      <point x="340.097" y="583" type="curve" smooth="yes"/>
      <point x="340.945" y="571.968"/>
      <point x="341.233" y="562.296"/>
      <point x="341.233" y="553.216" type="curve" smooth="yes"/>
      <point x="341.233" y="533.924"/>
      <point x="339.932" y="517.298"/>
      <point x="339.932" y="495.961" type="curve" smooth="yes"/>
      <point x="339.932" y="491.834"/>
      <point x="339.98" y="487.532"/>
      <point x="340.097" y="483" type="curve" smooth="yes"/>
      <point x="340.158" y="481.71"/>
      <point x="340.186" y="480.442"/>
      <point x="340.186" y="479.196" type="curve" smooth="yes"/>
      <point x="340.186" y="468.642"/>
      <point x="338.217" y="459.56"/>
      <point x="338.217" y="450.686" type="curve" smooth="yes"/>
      <point x="338.217" y="443.543"/>
      <point x="339.492" y="436.534"/>
      <point x="344.097" y="429" type="curve" smooth="yes"/>
      <point x="349.097" y="420"/>
      <point x="360.097" y="432"/>
      <point x="370.097" y="431" type="curve" smooth="yes"/>
      <point x="381.097" y="430"/>
      <point x="391.097" y="432"/>
      <point x="396.097" y="423" type="curve" smooth="yes"/>
      <point x="399.597" y="417.5"/>
      <point x="401.347" y="411.75"/>
      <point x="401.347" y="406" type="curve" smooth="yes"/>
      <point x="401.347" y="400.25"/>
      <point x="399.597" y="394.5"/>
      <point x="396.097" y="389" type="curve" smooth="yes"/>
      <point x="391.097" y="381"/>
      <point x="381.097" y="388"/>
      <point x="372.097" y="385" type="curve" smooth="yes"/>
      <point x="362.097" y="382"/>
      <point x="349.097" y="383"/>
      <point x="348.097" y="373" type="curve" smooth="yes"/>
      <point x="334.097" y="265"/>
      <point x="347.097" y="201"/>
      <point x="334.097" y="93" type="curve" smooth="yes"/>
      <point x="332.097" y="79"/>
      <point x="326.097" y="69"/>
      <point x="312.097" y="65" type="curve" smooth="yes"/>
      <point x="302.097" y="62"/>
      <point x="292.097" y="69"/>
      <point x="290.097" y="79" type="curve" smooth="yes"/>
      <point x="287.863" y="91.126"/>
      <point x="287.055" y="101.724"/>
      <point x="287.055" y="111.802" type="curve" smooth="yes"/>
      <point x="287.055" y="133.308"/>
      <point x="290.734" y="152.444"/>
      <point x="292.097" y="179" type="curve" smooth="yes"/>
      <point x="293.769" y="229.161"/>
      <point x="301.032" y="261.149"/>
      <point x="301.032" y="305.351" type="curve" smooth="yes"/>
      <point x="301.032" y="314.021"/>
      <point x="300.753" y="323.161"/>
    </contour>
  </outline>
</glyph>
<glyph name="B" format="1">
  <advance width="540"/>
  <unicode hex="0042"/>
  <outline>
    <contour>
      <point x="155.189" y="641" type="curve" smooth="yes"/>
      <point x="163.189" y="667"/>
      <point x="179.189" y="677"/>
      <point x="201.189" y="693" type="curve" smooth="yes"/>
      <point x="209.189" y="699"/>
      <point x="218.189" y="690"/>
      <point x="227.189" y="695" type="curve" smooth="yes"/>
      <point x="244.189" y="705"/>
      <point x="247.189" y="720"/>
      <point x="265.189" y="729" type="curve" smooth="yes"/>
      <point x="290.189" y="742"/>
      <point x="305.189" y="745"/>
      <point x="333.189" y="751" type="curve" smooth="yes"/>
      <point x="366.823" y="758.567"/>
      <point x="388.438" y="770.378"/>
      <point x="418.842" y="770.378" type="curve" smooth="yes"/>
      <point x="424.596" y="770.378"/>
      <point x="430.664" y="769.955"/>
      <point x="437.189" y="769" type="curve" smooth="yes"/>
      <point x="465.189" y="765"/>
      <point x="478.189" y="750"/>
      <point x="497.189" y="729" type="curve" smooth="yes"/>
      <point x="512.189" y="713"/>
      <point x="517.189" y="699"/>
      <point x="519.189" y="677" type="curve" smooth="yes"/>
      <point x="519.4" y="674.678"/>
      <point x="519.5" y="672.466"/>
      <point x="519.5" y="670.346" type="curve" smooth="yes"/>
      <point x="519.5" y="652.377"/>
      <point x="512.345" y="640.889"/>
      <point x="505.189" y="623" type="curve" smooth="yes"/>
      <point x="495.189" y="595"/>
      <point x="488.189" y="578"/>
      <point x="473.189" y="553" type="curve" smooth="yes"/>
      <point x="457.189" y="526"/>
      <point x="447.189" y="512"/>
      <point x="425.189" y="489" type="curve" smooth="yes"/>
      <point x="421.189" y="484"/>
      <point x="408.189" y="491"/>
      <point x="409.189" y="485" type="curve" smooth="yes"/>
      <point x="410.189" y="475"/>
      <point x="418.189" y="471"/>
      <point x="427.189" y="465" type="curve" smooth="yes"/>
      <point x="443.189" y="455"/>
      <point x="455.189" y="457"/>
      <point x="471.189" y="447" type="curve" smooth="yes"/>
      <point x="489.189" y="436"/>
      <point x="504.189" y="431"/>
      <point x="513.189" y="413" type="curve" smooth="yes"/>
      <point x="518.951" y="401.477"/>
      <point x="520.323" y="391.599"/>
      <point x="520.323" y="381.355" type="curve" smooth="yes"/>
      <point x="520.323" y="372.043"/>
      <point x="519.189" y="362.429"/>
      <point x="519.189" y="351" type="curve" smooth="yes"/>
      <point x="519.189" y="339.8"/>
      <point x="519.669" y="330.36"/>
      <point x="519.669" y="321.336" type="curve" smooth="yes"/>
      <point x="519.669" y="307.8"/>
      <point x="518.589" y="295.2"/>
      <point x="513.189" y="279" type="curve" smooth="yes"/>
      <point x="505.189" y="255"/>
      <point x="493.189" y="244"/>
      <point x="475.189" y="225" type="curve" smooth="yes"/>
      <point x="455.189" y="203"/>
      <point x="441.189" y="193"/>
      <point x="417.189" y="175" type="curve" smooth="yes"/>
      <point x="389.189" y="153"/>
      <point x="374.189" y="140"/>
      <point x="343.189" y="123" type="curve" smooth="yes"/>
      <point x="323.189" y="112"/>
      <point x="308.189" y="114"/>
      <point x="289.189" y="103" type="curve" smooth="yes"/>
      <point x="277.189" y="96"/>
      <point x="278.189" y="81"/>
      <point x="265.189" y="77" type="curve" smooth="yes"/>
      <point x="243.446" y="69.7529"/>
      <point x="227.482" y="64.6064"/>
      <point x="208.54" y="64.6064" type="curve" smooth="yes"/>
      <point x="201.346" y="64.6064"/>
      <point x="193.722" y="65.3486"/>
      <point x="185.189" y="67" type="curve" smooth="yes"/>
      <point x="175.189" y="69"/>
      <point x="174.189" y="84"/>
      <point x="179.189" y="93" type="curve" smooth="yes"/>
      <point x="188.189" y="109"/>
      <point x="201.189" y="111"/>
      <point x="217.189" y="121" type="curve" smooth="yes"/>
      <point x="240.189" y="135"/>
      <point x="255.189" y="139"/>
      <point x="277.189" y="153" type="curve" smooth="yes"/>
      <point x="302.189" y="169"/>
      <point x="313.189" y="182"/>
      <point x="337.189" y="197" type="curve" smooth="yes"/>
      <point x="352.189" y="206"/>
      <point x="363.189" y="205"/>
      <point x="377.189" y="215" type="curve" smooth="yes"/>
      <point x="396.189" y="229"/>
      <point x="404.189" y="240"/>
      <point x="419.189" y="257" type="curve" smooth="yes"/>
      <point x="429.189" y="268"/>
      <point x="433.189" y="274"/>
      <point x="441.189" y="287" type="curve" smooth="yes"/>
      <point x="453.189" y="307"/>
      <point x="467.189" y="317"/>
      <point x="469.189" y="341" type="curve" smooth="yes"/>
      <point x="469.412" y="343.46"/>
      <point x="469.523" y="345.832"/>
      <point x="469.523" y="348.129" type="curve" smooth="yes"/>
      <point x="469.523" y="366.379"/>
      <point x="462.512" y="379.9"/>
      <point x="449.189" y="395" type="curve" smooth="yes"/>
      <point x="434.189" y="411"/>
      <point x="419.189" y="416"/>
      <point x="397.189" y="419" type="curve" smooth="yes"/>
      <point x="392.984" y="419.664"/>
      <point x="389.123" y="419.985"/>
      <point x="385.475" y="419.985" type="curve" smooth="yes"/>
      <point x="372.634" y="419.985"/>
      <point x="362.427" y="416.009"/>
      <point x="349.189" y="409" type="curve" smooth="yes"/>
      <point x="337.189" y="403"/>
      <point x="339.189" y="389"/>
      <point x="327.189" y="383" type="curve" smooth="yes"/>
      <point x="318.309" y="378.218"/>
      <point x="309.895" y="373.437"/>
      <point x="301.31" y="373.437" type="curve" smooth="yes"/>
      <point x="297.327" y="373.437"/>
      <point x="293.309" y="374.465"/>
      <point x="289.189" y="377" type="curve" smooth="yes"/>
      <point x="270.189" y="388"/>
      <point x="258.189" y="401"/>
      <point x="257.189" y="423" type="curve" smooth="yes"/>
      <point x="257.163" y="423.356"/>
      <point x="257.151" y="423.704"/>
      <point x="257.151" y="424.043" type="curve" smooth="yes"/>
      <point x="257.151" y="437.007"/>
      <point x="275.443" y="437.255"/>
      <point x="285.189" y="447" type="curve" smooth="yes"/>
      <point x="300.189" y="462"/>
      <point x="306.189" y="471"/>
      <point x="321.189" y="487" type="curve" smooth="yes"/>
      <point x="340.189" y="508"/>
      <point x="352.189" y="518"/>
      <point x="371.189" y="539" type="curve" smooth="yes"/>
      <point x="385.189" y="554"/>
      <point x="392.189" y="563"/>
      <point x="405.189" y="579" type="curve" smooth="yes"/>
      <point x="417.189" y="595"/>
      <point x="423.189" y="605"/>
      <point x="435.189" y="621" type="curve" smooth="yes"/>
      <point x="440.189" y="628"/>
      <point x="447.189" y="631"/>
      <point x="449.189" y="639" type="curve" smooth="yes"/>
      <point x="451.384" y="647.229"/>
      <point x="452.976" y="653.953"/>
      <point x="452.976" y="660.823" type="curve" smooth="yes"/>
      <point x="452.976" y="666.477"/>
      <point x="451.897" y="672.229"/>
      <point x="449.189" y="679" type="curve" smooth="yes"/>
      <point x="444.189" y="690"/>
      <point x="436.189" y="695"/>
      <point x="425.189" y="699" type="curve" smooth="yes"/>
      <point x="412.92" y="702.874"/>
      <point x="403.152" y="705.081"/>
      <point x="392.387" y="705.081" type="curve" smooth="yes"/>
      <point x="386.48" y="705.081"/>
      <point x="380.274" y="704.417"/>
      <point x="373.189" y="703" type="curve" smooth="yes"/>
      <point x="348.189" y="698"/>
      <point x="335.189" y="689"/>
      <point x="313.189" y="677" type="curve" smooth="yes"/>
      <point x="293.189" y="667"/>
      <point x="283.189" y="661"/>
      <point x="265.189" y="647" type="curve" smooth="yes"/>
      <point x="250.189" y="635"/>
      <point x="244.189" y="625"/>
      <point x="229.189" y="613" type="curve" smooth="yes"/>
      <point x="221.189" y="607"/>
      <point x="215.189" y="600"/>
      <point x="205.189" y="601" type="curve" smooth="yes"/>
      <point x="192.189" y="602"/>
      <point x="187.189" y="609"/>
      <point x="177.189" y="617" type="curve" smooth="yes"/>
      <point x="168.264" y="624.14"/>
      <point x="154.56" y="628.094"/>
      <point x="154.56" y="637.392" type="curve" smooth="yes"/>
      <point x="154.56" y="638.512"/>
      <point x="154.759" y="639.71"/>
    </contour>
    <contour>
      <point x="45.1895" y="649" type="curve" smooth="yes"/>
      <point x="46.1895" y="665"/>
      <point x="54.1895" y="674"/>
      <point x="67.1895" y="683" type="curve" smooth="yes"/>
      <point x="77.1895" y="690"/>
      <point x="86.1895" y="692"/>
      <point x="97.1895" y="687" type="curve" smooth="yes"/>
      <point x="110.189" y="681"/>
      <point x="117.189" y="673"/>
      <point x="121.189" y="659" type="curve" smooth="yes"/>
      <point x="124.189" y="649"/>
      <point x="115.189" y="643"/>
      <point x="113.189" y="633" type="curve" smooth="yes"/>
      <point x="108.189" y="614"/>
      <point x="104.189" y="604"/>
      <point x="103.189" y="585" type="curve" smooth="yes"/>
      <point x="102.937" y="580.333"/>
      <point x="102.827" y="575.904"/>
      <point x="102.827" y="571.654" type="curve" smooth="yes"/>
      <point x="102.827" y="544.479"/>
      <point x="107.287" y="524.601"/>
      <point x="107.287" y="496.277" type="curve" smooth="yes"/>
      <point x="107.287" y="493.913"/>
      <point x="107.256" y="491.49"/>
      <point x="107.189" y="489" type="curve" smooth="yes"/>
      <point x="106.189" y="442"/>
      <point x="100.189" y="416"/>
      <point x="99.1895" y="369" type="curve" smooth="yes"/>
      <point x="99.0977" y="365.363"/>
      <point x="99.0566" y="361.876"/>
      <point x="99.0566" y="358.51" type="curve" smooth="yes"/>
      <point x="99.0566" y="324.852"/>
      <point x="103.189" y="303.363"/>
      <point x="103.189" y="267" type="curve" smooth="yes"/>
      <point x="103.189" y="248.538"/>
      <point x="100.23" y="235.994"/>
      <point x="100.23" y="220.264" type="curve" smooth="yes"/>
      <point x="100.23" y="215.544"/>
      <point x="100.497" y="210.538"/>
      <point x="101.189" y="205" type="curve" smooth="yes"/>
      <point x="105.189" y="171"/>
      <point x="115.189" y="153"/>
      <point x="121.189" y="119" type="curve" smooth="yes"/>
      <point x="122.422" y="109.755"/>
      <point x="124.794" y="102.409"/>
      <point x="124.794" y="95.0898" type="curve" smooth="yes"/>
      <point x="124.794" y="90.5342"/>
      <point x="123.875" y="85.9873"/>
      <point x="121.189" y="81" type="curve" smooth="yes"/>
      <point x="106.189" y="54"/>
      <point x="97.1895" y="31"/>
      <point x="67.1895" y="23" type="curve" smooth="yes"/>
      <point x="64.9785" y="22.4473"/>
      <point x="62.8408" y="22.1875"/>
      <point x="60.7773" y="22.1875" type="curve" smooth="yes"/>
      <point x="44.167" y="22.1875"/>
      <point x="32.3047" y="38.9893"/>
      <point x="25.1895" y="55" type="curve" smooth="yes"/>
      <point x="21.3262" y="63.8848"/>
      <point x="20" y="71.7246"/>
      <point x="20" y="79.4414" type="curve" smooth="yes"/>
      <point x="20" y="91.7041"/>
      <point x="23.3477" y="103.657"/>
      <point x="25.1895" y="119" type="curve" smooth="yes"/>
      <point x="27.1895" y="132"/>
      <point x="37.1895" y="138"/>
      <point x="37.1895" y="151" type="curve" smooth="yes"/>
      <point x="39.4375" y="213.306"/>
      <point x="39.9316" y="266.947"/>
      <point x="39.9316" y="317.489" type="curve" smooth="yes"/>
      <point x="39.9316" y="357.212"/>
      <point x="39.626" y="395.021"/>
      <point x="39.626" y="433.617" type="curve" smooth="yes"/>
      <point x="39.626" y="498.821"/>
      <point x="40.498" y="566.273"/>
    </contour>
  </outline>
</glyph>
<glyph name="C" format="1">
  <advance width="648"/>
  <unicode hex="0043"/>
  <outline>
    <contour>
      <point x="465.269" y="783" type="curve" smooth="yes"/>
      <point x="489.269" y="775"/>
      <point x="506.269" y="763"/>
      <point x="510.269" y="738" type="curve" smooth="yes"/>
      <point x="510.473" y="736.566"/>
      <point x="510.57" y="735.198"/>
      <point x="510.57" y="733.888" type="curve" smooth="yes"/>
      <point x="510.57" y="715.998"/>
      <point x="492.381" y="708.84"/>
      <point x="480.269" y="693" type="curve" smooth="yes"/>
      <point x="470.742" y="680.876"/>
      <point x="466.466" y="658.252"/>
      <point x="455.749" y="658.252" type="curve" smooth="yes"/>
      <point x="454.091" y="658.252"/>
      <point x="452.278" y="658.794"/>
      <point x="450.269" y="660" type="curve" smooth="yes"/>
      <point x="446.149" y="662.518"/>
      <point x="444.701" y="666.134"/>
      <point x="444.701" y="670.348" type="curve" smooth="yes"/>
      <point x="444.701" y="680.333"/>
      <point x="452.836" y="693.667"/>
      <point x="452.836" y="703.652" type="curve" smooth="yes"/>
      <point x="452.836" y="707.866"/>
      <point x="451.388" y="711.482"/>
      <point x="447.269" y="714" type="curve" smooth="yes"/>
      <point x="440.727" y="718.163"/>
      <point x="434.272" y="719.851"/>
      <point x="427.828" y="719.851" type="curve" smooth="yes"/>
      <point x="412.602" y="719.851"/>
      <point x="397.429" y="710.432"/>
      <point x="381.269" y="702" type="curve" smooth="yes"/>
      <point x="321.269" y="670"/>
      <point x="286.269" y="651"/>
      <point x="237.269" y="603" type="curve" smooth="yes"/>
      <point x="197.269" y="564"/>
      <point x="186.269" y="532"/>
      <point x="159.269" y="483" type="curve" smooth="yes"/>
      <point x="137.269" y="444"/>
      <point x="126.269" y="421"/>
      <point x="111.269" y="378" type="curve" smooth="yes"/>
      <point x="99.2686" y="344"/>
      <point x="99.2686" y="323"/>
      <point x="90.2686" y="288" type="curve" smooth="yes"/>
      <point x="86.4766" y="273.78"/>
      <point x="78.1914" y="265.852"/>
      <point x="78.1914" y="251.435" type="curve" smooth="yes"/>
      <point x="78.1914" y="250.644"/>
      <point x="78.2168" y="249.832"/>
      <point x="78.2686" y="249" type="curve" smooth="yes"/>
      <point x="80.2686" y="225"/>
      <point x="89.2686" y="213"/>
      <point x="99.2686" y="192" type="curve" smooth="yes"/>
      <point x="107.269" y="175"/>
      <point x="113.269" y="167"/>
      <point x="126.269" y="153" type="curve" smooth="yes"/>
      <point x="142.269" y="136"/>
      <point x="150.269" y="124"/>
      <point x="171.269" y="114" type="curve" smooth="yes"/>
      <point x="193.269" y="104"/>
      <point x="208.269" y="108"/>
      <point x="231.269" y="105" type="curve" smooth="yes"/>
      <point x="259.269" y="102"/>
      <point x="275.269" y="99"/>
      <point x="303.269" y="99" type="curve" smooth="yes"/>
      <point x="336.269" y="99"/>
      <point x="355.269" y="99"/>
      <point x="387.269" y="105" type="curve" smooth="yes"/>
      <point x="411.269" y="110"/>
      <point x="425.269" y="116"/>
      <point x="447.269" y="126" type="curve" smooth="yes"/>
      <point x="468.269" y="136"/>
      <point x="478.269" y="144"/>
      <point x="498.269" y="156" type="curve" smooth="yes"/>
      <point x="511.269" y="164"/>
      <point x="522.269" y="165"/>
      <point x="531.269" y="177" type="curve" smooth="yes"/>
      <point x="549.269" y="200"/>
      <point x="539.269" y="232"/>
      <point x="567.269" y="243" type="curve" smooth="yes"/>
      <point x="571.719" y="244.741"/>
      <point x="576.168" y="245.547"/>
      <point x="580.531" y="245.547" type="curve" smooth="yes"/>
      <point x="598.719" y="245.547"/>
      <point x="615.396" y="231.55"/>
      <point x="624.269" y="213" type="curve" smooth="yes"/>
      <point x="627.165" y="206.628"/>
      <point x="628.468" y="200.423"/>
      <point x="628.468" y="194.387" type="curve" smooth="yes"/>
      <point x="628.468" y="179.582"/>
      <point x="620.634" y="165.786"/>
      <point x="609.269" y="153" type="curve" smooth="yes"/>
      <point x="577.269" y="117"/>
      <point x="552.269" y="100"/>
      <point x="507.269" y="81" type="curve" smooth="yes"/>
      <point x="445.269" y="55"/>
      <point x="407.269" y="45"/>
      <point x="339.269" y="39" type="curve" smooth="yes"/>
      <point x="319.769" y="37.2002"/>
      <point x="302.698" y="36.2998"/>
      <point x="286.601" y="36.2998" type="curve" smooth="yes"/>
      <point x="249.038" y="36.2998"/>
      <point x="216.769" y="41.2002"/>
      <point x="171.269" y="51" type="curve" smooth="yes"/>
      <point x="136.269" y="59"/>
      <point x="117.269" y="69"/>
      <point x="90.2686" y="93" type="curve" smooth="yes"/>
      <point x="59.2686" y="120"/>
      <point x="41.2686" y="138"/>
      <point x="27.2686" y="177" type="curve" smooth="yes"/>
      <point x="21.7246" y="191.925"/>
      <point x="20" y="204.849"/>
      <point x="20" y="217.634" type="curve" smooth="yes"/>
      <point x="20" y="234.832"/>
      <point x="23.1211" y="251.777"/>
      <point x="24.2686" y="273" type="curve" smooth="yes"/>
      <point x="26.2686" y="307"/>
      <point x="30.2686" y="327"/>
      <point x="39.2686" y="360" type="curve" smooth="yes"/>
      <point x="50.2686" y="397"/>
      <point x="59.2686" y="418"/>
      <point x="75.2686" y="453" type="curve" smooth="yes"/>
      <point x="87.2686" y="481"/>
      <point x="96.2686" y="495"/>
      <point x="111.269" y="522" type="curve" smooth="yes"/>
      <point x="121.269" y="540"/>
      <point x="126.269" y="549"/>
      <point x="138.269" y="567" type="curve" smooth="yes"/>
      <point x="156.269" y="594"/>
      <point x="165.269" y="611"/>
      <point x="186.269" y="636" type="curve" smooth="yes"/>
      <point x="211.269" y="665"/>
      <point x="225.269" y="681"/>
      <point x="255.269" y="705" type="curve" smooth="yes"/>
      <point x="283.269" y="728"/>
      <point x="300.269" y="740"/>
      <point x="333.269" y="756" type="curve" smooth="yes"/>
      <point x="357.269" y="768"/>
      <point x="373.269" y="769"/>
      <point x="399.269" y="774" type="curve" smooth="yes"/>
      <point x="418.31" y="777.809"/>
      <point x="432.13" y="785.678"/>
      <point x="448.683" y="785.678" type="curve" smooth="yes"/>
      <point x="453.862" y="785.678"/>
      <point x="459.31" y="784.907"/>
    </contour>
  </outline>
</glyph>
<glyph name="D" format="1">
  <advance width="584"/>
  <unicode hex="0044"/>
  <outline>
    <contour>
      <point x="89.168" y="51" type="curve" smooth="yes"/>
      <point x="85.168" y="35"/>
      <point x="78.168" y="26"/>
      <point x="65.168" y="15" type="curve" smooth="yes"/>
      <point x="59.168" y="10"/>
      <point x="51.168" y="8"/>
      <point x="45.168" y="13" type="curve" smooth="yes"/>
      <point x="35.168" y="22"/>
      <point x="33.168" y="32"/>
      <point x="31.168" y="45" type="curve" smooth="yes"/>
      <point x="25.584" y="77.707"/>
      <point x="20" y="99.5947"/>
      <point x="20" y="127.926" type="curve" smooth="yes"/>
      <point x="20" y="135.109"/>
      <point x="20.3594" y="142.707"/>
      <point x="21.168" y="151" type="curve" smooth="yes"/>
      <point x="22.168" y="159"/>
      <point x="38.168" y="137"/>
      <point x="41.168" y="145" type="curve" smooth="yes"/>
      <point x="57.168" y="181"/>
      <point x="56.168" y="206"/>
      <point x="63.168" y="245" type="curve" smooth="yes"/>
      <point x="66.168" y="261"/>
      <point x="64.168" y="271"/>
      <point x="67.168" y="287" type="curve" smooth="yes"/>
      <point x="71.168" y="308"/>
      <point x="77.168" y="319"/>
      <point x="79.168" y="341" type="curve" smooth="yes"/>
      <point x="86.168" y="426"/>
      <point x="83.168" y="474"/>
      <point x="89.168" y="559" type="curve" smooth="yes"/>
      <point x="90.168" y="577"/>
      <point x="90.168" y="589"/>
      <point x="99.168" y="605" type="curve" smooth="yes"/>
      <point x="104.168" y="614"/>
      <point x="115.168" y="623"/>
      <point x="123.168" y="617" type="curve" smooth="yes"/>
      <point x="138.168" y="607"/>
      <point x="136.168" y="592"/>
      <point x="141.168" y="575" type="curve" smooth="yes"/>
      <point x="147.168" y="554"/>
      <point x="151.168" y="541"/>
      <point x="151.168" y="519" type="curve" smooth="yes"/>
      <point x="150.168" y="474"/>
      <point x="144.168" y="448"/>
      <point x="139.168" y="403" type="curve" smooth="yes"/>
      <point x="132.168" y="336"/>
      <point x="128.168" y="298"/>
      <point x="119.168" y="231" type="curve" smooth="yes"/>
      <point x="109.168" y="161"/>
      <point x="106.168" y="120"/>
    </contour>
    <contour>
      <point x="89.168" y="763" type="curve" smooth="yes"/>
      <point x="113.168" y="753"/>
      <point x="113.168" y="724"/>
      <point x="139.168" y="719" type="curve" smooth="yes"/>
      <point x="172.48" y="712.564"/>
      <point x="200.634" y="711.002"/>
      <point x="227.643" y="711.002" type="curve" smooth="yes"/>
      <point x="253.161" y="711.002"/>
      <point x="277.658" y="712.397"/>
      <point x="304.519" y="712.397" type="curve" smooth="yes"/>
      <point x="324.33" y="712.397"/>
      <point x="345.427" y="711.638"/>
      <point x="369.168" y="709" type="curve" smooth="yes"/>
      <point x="405.168" y="705"/>
      <point x="425.168" y="699"/>
      <point x="457.168" y="683" type="curve" smooth="yes"/>
      <point x="485.168" y="669"/>
      <point x="501.168" y="657"/>
      <point x="521.168" y="633" type="curve" smooth="yes"/>
      <point x="542.168" y="608"/>
      <point x="549.168" y="590"/>
      <point x="559.168" y="559" type="curve" smooth="yes"/>
      <point x="563.146" y="545.929"/>
      <point x="564.218" y="535.44"/>
      <point x="564.218" y="524.416" type="curve" smooth="yes"/>
      <point x="564.218" y="516.043"/>
      <point x="563.6" y="507.36"/>
      <point x="563.168" y="497" type="curve" smooth="yes"/>
      <point x="562.168" y="466"/>
      <point x="562.168" y="447"/>
      <point x="553.168" y="417" type="curve" smooth="yes"/>
      <point x="539.168" y="374"/>
      <point x="529.168" y="349"/>
      <point x="505.168" y="311" type="curve" smooth="yes"/>
      <point x="469.168" y="254"/>
      <point x="446.168" y="225"/>
      <point x="401.168" y="175" type="curve" smooth="yes"/>
      <point x="383.168" y="155"/>
      <point x="370.168" y="149"/>
      <point x="347.168" y="135" type="curve" smooth="yes"/>
      <point x="309.168" y="112"/>
      <point x="287.168" y="101"/>
      <point x="247.168" y="83" type="curve" smooth="yes"/>
      <point x="238.168" y="79"/>
      <point x="230.168" y="84"/>
      <point x="221.168" y="79" type="curve" smooth="yes"/>
      <point x="204.168" y="68"/>
      <point x="203.168" y="46"/>
      <point x="183.168" y="43" type="curve" smooth="yes"/>
      <point x="180.577" y="42.5908"/>
      <point x="177.949" y="42.3867"/>
      <point x="175.332" y="42.3867" type="curve" smooth="yes"/>
      <point x="158.757" y="42.3867"/>
      <point x="142.623" y="50.5908"/>
      <point x="139.168" y="67" type="curve" smooth="yes"/>
      <point x="138.38" y="70.2852"/>
      <point x="138.023" y="73.3623"/>
      <point x="138.023" y="76.2803" type="curve" smooth="yes"/>
      <point x="138.023" y="95.5713"/>
      <point x="153.613" y="107.891"/>
      <point x="163.168" y="127" type="curve" smooth="yes"/>
      <point x="171.168" y="144"/>
      <point x="170.168" y="164"/>
      <point x="189.168" y="167" type="curve" smooth="yes"/>
      <point x="189.743" y="167.123"/>
      <point x="190.278" y="167.183"/>
      <point x="190.776" y="167.183" type="curve" smooth="yes"/>
      <point x="202.387" y="167.183"/>
      <point x="193.743" y="135"/>
      <point x="207.168" y="135" type="curve" smooth="yes"/>
      <point x="232.168" y="135"/>
      <point x="241.168" y="155"/>
      <point x="263.168" y="167" type="curve" smooth="yes"/>
      <point x="289.168" y="181"/>
      <point x="305.168" y="186"/>
      <point x="329.168" y="203" type="curve" smooth="yes"/>
      <point x="347.168" y="215"/>
      <point x="354.168" y="225"/>
      <point x="369.168" y="241" type="curve" smooth="yes"/>
      <point x="393.168" y="266"/>
      <point x="407.168" y="280"/>
      <point x="429.168" y="307" type="curve" smooth="yes"/>
      <point x="446.168" y="329"/>
      <point x="457.168" y="342"/>
      <point x="469.168" y="367" type="curve" smooth="yes"/>
      <point x="483.168" y="397"/>
      <point x="492.168" y="415"/>
      <point x="497.168" y="447" type="curve" smooth="yes"/>
      <point x="502.502" y="479"/>
      <point x="510.946" y="503.444"/>
      <point x="510.946" y="529.519" type="curve" smooth="yes"/>
      <point x="510.946" y="542.556"/>
      <point x="508.835" y="556"/>
      <point x="503.168" y="571" type="curve" smooth="yes"/>
      <point x="490.168" y="606"/>
      <point x="462.168" y="618"/>
      <point x="427.168" y="631" type="curve" smooth="yes"/>
      <point x="379.168" y="649"/>
      <point x="348.168" y="642"/>
      <point x="297.168" y="647" type="curve" smooth="yes"/>
      <point x="235.168" y="653"/>
      <point x="199.168" y="650"/>
      <point x="137.168" y="659" type="curve" smooth="yes"/>
      <point x="113.168" y="663"/>
      <point x="97.168" y="665"/>
      <point x="77.168" y="679" type="curve" smooth="yes"/>
      <point x="60.168" y="691"/>
      <point x="52.168" y="703"/>
      <point x="47.168" y="723" type="curve" smooth="yes"/>
      <point x="46.5039" y="725.655"/>
      <point x="46.1836" y="728.164"/>
      <point x="46.1836" y="730.558" type="curve" smooth="yes"/>
      <point x="46.1836" y="738.983"/>
      <point x="50.1592" y="745.991"/>
      <point x="57.168" y="753" type="curve" smooth="yes"/>
      <point x="63.918" y="759.75"/>
      <point x="71.793" y="764.812"/>
      <point x="80.3711" y="764.812" type="curve" smooth="yes"/>
      <point x="83.2305" y="764.812"/>
      <point x="86.168" y="764.25"/>
    </contour>
  </outline>
</glyph>
<glyph name="E" format="1">
  <advance width="686"/>
  <unicode hex="0045"/>
  <outline>
    <contour>
      <point x="200.313" y="740" type="curve" smooth="yes"/>
      <point x="201.313" y="746"/>
      <point x="206.313" y="749"/>
      <point x="212.313" y="751" type="curve" smooth="yes"/>
      <point x="222.313" y="754"/>
      <point x="229.313" y="756"/>
      <point x="239.313" y="752" type="curve" smooth="yes"/>
      <point x="253.313" y="746"/>
      <point x="265.313" y="741"/>
      <point x="268.313" y="727" type="curve" smooth="yes"/>
      <point x="269.64" y="721.473"/>
      <point x="270.185" y="716.434"/>
      <point x="270.185" y="711.656" type="curve" smooth="yes"/>
      <point x="270.185" y="694.829"/>
      <point x="263.429" y="681.251"/>
      <point x="260.313" y="661" type="curve" smooth="yes"/>
      <point x="254.313" y="628"/>
      <point x="251.313" y="610"/>
      <point x="242.313" y="578" type="curve" smooth="yes"/>
      <point x="233.313" y="545"/>
      <point x="226.313" y="527"/>
      <point x="214.313" y="494" type="curve" smooth="yes"/>
      <point x="194.313" y="437"/>
      <point x="180.313" y="407"/>
      <point x="161.313" y="349" type="curve" smooth="yes"/>
      <point x="146.313" y="304"/>
      <point x="142.313" y="278"/>
      <point x="128.313" y="233" type="curve" smooth="yes"/>
      <point x="120.313" y="209"/>
      <point x="113.313" y="196"/>
      <point x="104.313" y="172" type="curve" smooth="yes"/>
      <point x="97.3135" y="152"/>
      <point x="93.3135" y="141"/>
      <point x="86.3135" y="121" type="curve" smooth="yes"/>
      <point x="83.3135" y="113"/>
      <point x="80.3135" y="109"/>
      <point x="79.3135" y="100" type="curve" smooth="yes"/>
      <point x="78.3135" y="91"/>
      <point x="74.3135" y="80"/>
      <point x="83.3135" y="77" type="curve" smooth="yes"/>
      <point x="87.6885" y="75.7129"/>
      <point x="91.667" y="75.1553"/>
      <point x="95.4521" y="75.1553" type="curve" smooth="yes"/>
      <point x="106.373" y="75.1553"/>
      <point x="115.688" y="79.8018"/>
      <point x="128.313" y="85" type="curve" smooth="yes"/>
      <point x="198.313" y="112"/>
      <point x="236.313" y="134"/>
      <point x="305.313" y="163" type="curve" smooth="yes"/>
      <point x="357.313" y="185"/>
      <point x="388.313" y="193"/>
      <point x="439.313" y="217" type="curve" smooth="yes"/>
      <point x="446.313" y="220"/>
      <point x="444.313" y="230"/>
      <point x="451.313" y="233" type="curve" smooth="yes"/>
      <point x="462.313" y="238"/>
      <point x="471.313" y="241"/>
      <point x="482.313" y="236" type="curve" smooth="yes"/>
      <point x="493.313" y="231"/>
      <point x="498.313" y="223"/>
      <point x="502.313" y="211" type="curve" smooth="yes"/>
      <point x="504.313" y="204.5"/>
      <point x="505.813" y="198.75"/>
      <point x="505.813" y="193.125" type="curve" smooth="yes"/>
      <point x="505.813" y="187.5"/>
      <point x="504.313" y="182"/>
      <point x="500.313" y="176" type="curve" smooth="yes"/>
      <point x="494.313" y="167"/>
      <point x="483.313" y="171"/>
      <point x="472.313" y="167" type="curve" smooth="yes"/>
      <point x="334.313" y="110"/>
      <point x="259.313" y="70"/>
      <point x="118.313" y="19" type="curve" smooth="yes"/>
      <point x="113.928" y="17.3555"/>
      <point x="109.917" y="16.6875"/>
      <point x="106.098" y="16.6875" type="curve" smooth="yes"/>
      <point x="95.9824" y="16.6875"/>
      <point x="87.2012" y="21.3701"/>
      <point x="76.3135" y="25" type="curve" smooth="yes"/>
      <point x="61.3135" y="30"/>
      <point x="53.3135" y="33"/>
      <point x="41.3135" y="43" type="curve" smooth="yes"/>
      <point x="30.3135" y="52"/>
      <point x="21.3135" y="59"/>
      <point x="20.3135" y="73" type="curve" smooth="yes"/>
      <point x="20.0996" y="75.7783"/>
      <point x="20" y="78.4189"/>
      <point x="20" y="80.9521" type="curve" smooth="yes"/>
      <point x="20" y="102.129"/>
      <point x="26.9541" y="115.778"/>
      <point x="32.3135" y="139" type="curve" smooth="yes"/>
      <point x="39.3135" y="165"/>
      <point x="44.3135" y="179"/>
      <point x="53.3135" y="205" type="curve" smooth="yes"/>
      <point x="64.3135" y="239"/>
      <point x="73.3135" y="258"/>
      <point x="83.3135" y="293" type="curve" smooth="yes"/>
      <point x="88.3135" y="310"/>
      <point x="86.3135" y="320"/>
      <point x="92.3135" y="337" type="curve" smooth="yes"/>
      <point x="104.313" y="372"/>
      <point x="115.313" y="391"/>
      <point x="128.313" y="425" type="curve" smooth="yes"/>
      <point x="141.313" y="458"/>
      <point x="147.313" y="477"/>
      <point x="158.313" y="511" type="curve" smooth="yes"/>
      <point x="175.313" y="563"/>
      <point x="190.313" y="592"/>
      <point x="200.313" y="646" type="curve" smooth="yes"/>
      <point x="202.086" y="655.116"/>
      <point x="202.704" y="663.334"/>
      <point x="202.704" y="671.109" type="curve" smooth="yes"/>
      <point x="202.704" y="689.056"/>
      <point x="199.41" y="704.642"/>
      <point x="199.41" y="723.457" type="curve" smooth="yes"/>
      <point x="199.41" y="728.683"/>
      <point x="199.664" y="734.156"/>
    </contour>
    <contour>
      <point x="190.313" y="396" type="curve" smooth="yes"/>
      <point x="199.313" y="405"/>
      <point x="205.313" y="408"/>
      <point x="218.313" y="412" type="curve" smooth="yes"/>
      <point x="229.313" y="416"/>
      <point x="233.313" y="401"/>
      <point x="244.313" y="398" type="curve" smooth="yes"/>
      <point x="265.265" y="392.762"/>
      <point x="278.596" y="389.811"/>
      <point x="297.611" y="389.811" type="curve" smooth="yes"/>
      <point x="300.378" y="389.811"/>
      <point x="303.265" y="389.873"/>
      <point x="306.313" y="390" type="curve" smooth="yes"/>
      <point x="332.313" y="391"/>
      <point x="346.313" y="397"/>
      <point x="372.313" y="404" type="curve" smooth="yes"/>
      <point x="407.313" y="413"/>
      <point x="427.313" y="418"/>
      <point x="462.313" y="430" type="curve" smooth="yes"/>
      <point x="477.313" y="435"/>
      <point x="485.313" y="439"/>
      <point x="498.313" y="446" type="curve" smooth="yes"/>
      <point x="506.313" y="450"/>
      <point x="508.313" y="458"/>
      <point x="516.313" y="460" type="curve" smooth="yes"/>
      <point x="525.639" y="462.194"/>
      <point x="533.159" y="463.787"/>
      <point x="540.69" y="463.787" type="curve" smooth="yes"/>
      <point x="546.887" y="463.787"/>
      <point x="553.091" y="462.709"/>
      <point x="560.313" y="460" type="curve" smooth="yes"/>
      <point x="570.313" y="456"/>
      <point x="572.313" y="448"/>
      <point x="574.313" y="438" type="curve" smooth="yes"/>
      <point x="575.313" y="430"/>
      <point x="570.313" y="427"/>
      <point x="566.313" y="420" type="curve" smooth="yes"/>
      <point x="559.313" y="409"/>
      <point x="558.313" y="399"/>
      <point x="546.313" y="392" type="curve" smooth="yes"/>
      <point x="529.313" y="382"/>
      <point x="517.313" y="386"/>
      <point x="498.313" y="380" type="curve" smooth="yes"/>
      <point x="462.313" y="369"/>
      <point x="443.313" y="360"/>
      <point x="406.313" y="350" type="curve" smooth="yes"/>
      <point x="378.313" y="343"/>
      <point x="362.313" y="339"/>
      <point x="334.313" y="336" type="curve" smooth="yes"/>
      <point x="309.015" y="333.47"/>
      <point x="290.517" y="330.94"/>
      <point x="269.964" y="330.94" type="curve" smooth="yes"/>
      <point x="258.021" y="330.94"/>
      <point x="245.383" y="331.795"/>
      <point x="230.313" y="334" type="curve" smooth="yes"/>
      <point x="215.313" y="336"/>
      <point x="206.313" y="343"/>
      <point x="198.313" y="356" type="curve" smooth="yes"/>
      <point x="192.133" y="364.927"/>
      <point x="185.481" y="375.268"/>
      <point x="185.481" y="384.434" type="curve" smooth="yes"/>
      <point x="185.481" y="388.616"/>
      <point x="186.866" y="392.554"/>
    </contour>
    <contour>
      <point x="280.313" y="686" type="curve" smooth="yes"/>
      <point x="294.313" y="701"/>
      <point x="316.313" y="689"/>
      <point x="332.313" y="700" type="curve" smooth="yes"/>
      <point x="378.313" y="732"/>
      <point x="411.313" y="739"/>
      <point x="464.313" y="756" type="curve" smooth="yes"/>
      <point x="506.313" y="770"/>
      <point x="531.313" y="773"/>
      <point x="574.313" y="780" type="curve" smooth="yes"/>
      <point x="586.097" y="781.964"/>
      <point x="594.881" y="783.928"/>
      <point x="604.873" y="783.928" type="curve" smooth="yes"/>
      <point x="610.145" y="783.928"/>
      <point x="615.752" y="783.382"/>
      <point x="622.313" y="782" type="curve" smooth="yes"/>
      <point x="639.313" y="778"/>
      <point x="650.313" y="774"/>
      <point x="662.313" y="760" type="curve" smooth="yes"/>
      <point x="668.313" y="752"/>
      <point x="667.313" y="743"/>
      <point x="662.313" y="734" type="curve" smooth="yes"/>
      <point x="657.313" y="725"/>
      <point x="651.313" y="719"/>
      <point x="640.313" y="718" type="curve" smooth="yes"/>
      <point x="639.188" y="717.882"/>
      <point x="638.093" y="717.826"/>
      <point x="637.026" y="717.826" type="curve" smooth="yes"/>
      <point x="622.11" y="717.826"/>
      <point x="612.644" y="728.645"/>
      <point x="598.378" y="728.645" type="curve" smooth="yes"/>
      <point x="596.452" y="728.645"/>
      <point x="594.439" y="728.447"/>
      <point x="592.313" y="728" type="curve" smooth="yes"/>
      <point x="541.313" y="719"/>
      <point x="513.313" y="706"/>
      <point x="466.313" y="686" type="curve" smooth="yes"/>
      <point x="413.313" y="663"/>
      <point x="387.313" y="652"/>
      <point x="334.313" y="618" type="curve" smooth="yes"/>
      <point x="329.821" y="615.142"/>
      <point x="325.496" y="613.95"/>
      <point x="321.201" y="613.95" type="curve" smooth="yes"/>
      <point x="314.979" y="613.95"/>
      <point x="308.821" y="616.45"/>
      <point x="302.313" y="620" type="curve" smooth="yes"/>
      <point x="290.313" y="626"/>
      <point x="284.313" y="633"/>
      <point x="280.313" y="646" type="curve" smooth="yes"/>
      <point x="277.386" y="654.783"/>
      <point x="274.115" y="663.223"/>
      <point x="274.115" y="670.919" type="curve" smooth="yes"/>
      <point x="274.115" y="676.366"/>
      <point x="275.754" y="681.44"/>
    </contour>
  </outline>
</glyph>
<glyph name="F" format="1">
  <advance width="526"/>
  <unicode hex="0046"/>
  <outline>
    <contour>
      <point x="24.3203" y="643" type="curve" smooth="yes"/>
      <point x="21.3203" y="651"/>
      <point x="16.3203" y="662"/>
      <point x="24.3203" y="665" type="curve" smooth="yes"/>
      <point x="120.32" y="704"/>
      <point x="178.32" y="715"/>
      <point x="277.32" y="746" type="curve" smooth="yes"/>
      <point x="300.32" y="753"/>
      <point x="312.32" y="760"/>
      <point x="336.32" y="762" type="curve" smooth="yes"/>
      <point x="353.031" y="763.566"/>
      <point x="366.197" y="765.134"/>
      <point x="379.379" y="765.134" type="curve" smooth="yes"/>
      <point x="391.438" y="765.134"/>
      <point x="403.509" y="763.822"/>
      <point x="418.32" y="760" type="curve" smooth="yes"/>
      <point x="433.32" y="756"/>
      <point x="438.32" y="745"/>
      <point x="447.32" y="733" type="curve" smooth="yes"/>
      <point x="451.32" y="728"/>
      <point x="452.32" y="723"/>
      <point x="450.32" y="717" type="curve" smooth="yes"/>
      <point x="449.32" y="711"/>
      <point x="445.32" y="709"/>
      <point x="440.32" y="706" type="curve" smooth="yes"/>
      <point x="434.32" y="703"/>
      <point x="430.32" y="702"/>
      <point x="424.32" y="702" type="curve" smooth="yes"/>
      <point x="419.32" y="702"/>
      <point x="416.32" y="704"/>
      <point x="412.32" y="707" type="curve" smooth="yes"/>
      <point x="408.32" y="710"/>
      <point x="408.32" y="714"/>
      <point x="404.32" y="716" type="curve" smooth="yes"/>
      <point x="400.32" y="718"/>
      <point x="397.32" y="718"/>
      <point x="392.32" y="717" type="curve" smooth="yes"/>
      <point x="365.32" y="713"/>
      <point x="351.32" y="710"/>
      <point x="324.32" y="703" type="curve" smooth="yes"/>
      <point x="289.32" y="694"/>
      <point x="270.32" y="688"/>
      <point x="235.32" y="678" type="curve" smooth="yes"/>
      <point x="203.32" y="669"/>
      <point x="185.32" y="663"/>
      <point x="153.32" y="653" type="curve" smooth="yes"/>
      <point x="149.32" y="652"/>
      <point x="145.32" y="651"/>
      <point x="142.32" y="648" type="curve" smooth="yes"/>
      <point x="139.32" y="644"/>
      <point x="139.32" y="641"/>
      <point x="138.32" y="636" type="curve" smooth="yes"/>
      <point x="137.32" y="629"/>
      <point x="137.32" y="625"/>
      <point x="137.32" y="618" type="curve" smooth="yes"/>
      <point x="137.32" y="595"/>
      <point x="138.32" y="581"/>
      <point x="138.32" y="558" type="curve" smooth="yes"/>
      <point x="138.32" y="540"/>
      <point x="139.32" y="530"/>
      <point x="139.32" y="512" type="curve" smooth="yes"/>
      <point x="139.32" y="499"/>
      <point x="139.32" y="492"/>
      <point x="137.32" y="480" type="curve" smooth="yes"/>
      <point x="135.32" y="464"/>
      <point x="132.32" y="455"/>
      <point x="129.32" y="439" type="curve" smooth="yes"/>
      <point x="126.32" y="423"/>
      <point x="126.32" y="415"/>
      <point x="122.32" y="399" type="curve" smooth="yes"/>
      <point x="121.32" y="396"/>
      <point x="118.32" y="396"/>
      <point x="117.32" y="393" type="curve" smooth="yes"/>
      <point x="116.32" y="389"/>
      <point x="114.32" y="385"/>
      <point x="117.32" y="382" type="curve" smooth="yes"/>
      <point x="120.32" y="379"/>
      <point x="124.32" y="379"/>
      <point x="129.32" y="380" type="curve" smooth="yes"/>
      <point x="142.32" y="381"/>
      <point x="149.32" y="383"/>
      <point x="162.32" y="387" type="curve" smooth="yes"/>
      <point x="184.32" y="393"/>
      <point x="196.32" y="397"/>
      <point x="217.32" y="405" type="curve" smooth="yes"/>
      <point x="253.32" y="420"/>
      <point x="272.32" y="429"/>
      <point x="307.32" y="446" type="curve" smooth="yes"/>
      <point x="332.32" y="458"/>
      <point x="345.32" y="466"/>
      <point x="370.32" y="480" type="curve" smooth="yes"/>
      <point x="383.32" y="487"/>
      <point x="390.32" y="492"/>
      <point x="403.32" y="500" type="curve" smooth="yes"/>
      <point x="427.32" y="514"/>
      <point x="440.32" y="523"/>
      <point x="466.32" y="536" type="curve" smooth="yes"/>
      <point x="471.32" y="538"/>
      <point x="474.32" y="538"/>
      <point x="479.32" y="537" type="curve" smooth="yes"/>
      <point x="483.32" y="536"/>
      <point x="484.32" y="533"/>
      <point x="488.32" y="530" type="curve" smooth="yes"/>
      <point x="492.32" y="526"/>
      <point x="494.32" y="525"/>
      <point x="497.32" y="520" type="curve" smooth="yes"/>
      <point x="501.32" y="513"/>
      <point x="505.32" y="509"/>
      <point x="506.32" y="501" type="curve" smooth="yes"/>
      <point x="507.32" y="495"/>
      <point x="505.32" y="492"/>
      <point x="502.32" y="487" type="curve" smooth="yes"/>
      <point x="499.32" y="481"/>
      <point x="497.32" y="476"/>
      <point x="491.32" y="473" type="curve" smooth="yes"/>
      <point x="426.32" y="439"/>
      <point x="387.32" y="425"/>
      <point x="320.32" y="393" type="curve" smooth="yes"/>
      <point x="276.32" y="372"/>
      <point x="254.32" y="353"/>
      <point x="207.32" y="339" type="curve" smooth="yes"/>
      <point x="197.146" y="335.917"/>
      <point x="188.017" y="335.02"/>
      <point x="179.289" y="335.02" type="curve" smooth="yes"/>
      <point x="167.149" y="335.02"/>
      <point x="155.786" y="336.755"/>
      <point x="143.463" y="336.755" type="curve" smooth="yes"/>
      <point x="135.909" y="336.755"/>
      <point x="127.994" y="336.103"/>
      <point x="119.32" y="334" type="curve" smooth="yes"/>
      <point x="112.32" y="332"/>
      <point x="113.32" y="323"/>
      <point x="111.32" y="316" type="curve" smooth="yes"/>
      <point x="107.32" y="301"/>
      <point x="107.32" y="292"/>
      <point x="103.32" y="276" type="curve" smooth="yes"/>
      <point x="93.3203" y="236" type="line"/>
      <point x="93.3203" y="221" type="line"/>
      <point x="97.3203" y="217" type="line"/>
      <point x="104.32" y="223" type="line"/>
      <point x="110.32" y="238" type="line"/>
      <point x="118.32" y="243" type="line"/>
      <point x="124.32" y="236" type="line"/>
      <point x="125.32" y="212" type="line"/>
      <point x="121.32" y="192" type="line"/>
      <point x="113.32" y="177" type="line"/>
      <point x="109.32" y="156" type="line" smooth="yes"/>
      <point x="105.32" y="132"/>
      <point x="103.32" y="118"/>
      <point x="99.3203" y="94" type="curve" smooth="yes"/>
      <point x="96.3203" y="76"/>
      <point x="95.3203" y="64"/>
      <point x="89.3203" y="47" type="curve" smooth="yes"/>
      <point x="87.3203" y="40"/>
      <point x="85.3203" y="35"/>
      <point x="78.3203" y="32" type="curve" smooth="yes"/>
      <point x="69.3203" y="28"/>
      <point x="63.3203" y="30"/>
      <point x="54.3203" y="32" type="curve" smooth="yes"/>
      <point x="46.3203" y="34"/>
      <point x="42.3203" y="38"/>
      <point x="35.3203" y="42" type="curve" smooth="yes"/>
      <point x="32.3203" y="44"/>
      <point x="29.3203" y="45"/>
      <point x="29.3203" y="48" type="curve" smooth="yes"/>
      <point x="27.418" y="61.9473"/>
      <point x="26.7217" y="71.876"/>
      <point x="26.7217" y="82.8809" type="curve" smooth="yes"/>
      <point x="26.7217" y="89.2344"/>
      <point x="26.9541" y="95.9473"/>
      <point x="27.3203" y="104" type="curve" smooth="yes"/>
      <point x="29.3203" y="143"/>
      <point x="31.3203" y="165"/>
      <point x="36.3203" y="204" type="curve" smooth="yes"/>
      <point x="39.3203" y="229"/>
      <point x="41.3203" y="242"/>
      <point x="46.3203" y="267" type="curve" smooth="yes"/>
      <point x="47.3203" y="272"/>
      <point x="51.3203" y="274"/>
      <point x="52.3203" y="279" type="curve" smooth="yes"/>
      <point x="55.3203" y="295"/>
      <point x="54.3203" y="304"/>
      <point x="57.3203" y="320" type="curve" smooth="yes"/>
      <point x="60.0508" y="331.834"/>
      <point x="68.582" y="338.696"/>
      <point x="68.582" y="348.884" type="curve" smooth="yes"/>
      <point x="68.582" y="349.888"/>
      <point x="68.499" y="350.924"/>
      <point x="68.3203" y="352" type="curve" smooth="yes"/>
      <point x="67.3203" y="359"/>
      <point x="56.3203" y="351"/>
      <point x="50.3203" y="355" type="curve" smooth="yes"/>
      <point x="47.3203" y="358"/>
      <point x="49.3203" y="362"/>
      <point x="49.3203" y="366" type="curve" smooth="yes"/>
      <point x="49.3203" y="372"/>
      <point x="46.3203" y="376"/>
      <point x="48.3203" y="382" type="curve" smooth="yes"/>
      <point x="51.3203" y="389"/>
      <point x="56.3203" y="390"/>
      <point x="61.3203" y="395" type="curve" smooth="yes"/>
      <point x="63.3203" y="397"/>
      <point x="67.3203" y="396"/>
      <point x="67.3203" y="399" type="curve" smooth="yes"/>
      <point x="74.3203" y="458"/>
      <point x="76.3203" y="491"/>
      <point x="80.3203" y="550" type="curve" smooth="yes"/>
      <point x="81.6738" y="565.569"/>
      <point x="86.6934" y="577.932"/>
      <point x="86.6934" y="590.809" type="curve" smooth="yes"/>
      <point x="86.6934" y="596.953"/>
      <point x="85.5508" y="603.216"/>
      <point x="82.3203" y="610" type="curve" smooth="yes"/>
      <point x="77.3203" y="620"/>
      <point x="64.3203" y="605"/>
      <point x="53.3203" y="608" type="curve" smooth="yes"/>
      <point x="46.3203" y="610"/>
      <point x="45.3203" y="617"/>
      <point x="40.3203" y="622" type="curve" smooth="yes"/>
      <point x="33.3203" y="630"/>
      <point x="28.3203" y="633"/>
    </contour>
  </outline>
</glyph>
<glyph name="G" format="1">
  <advance width="561"/>
  <unicode hex="0047"/>
  <outline>
    <contour>
      <point x="328.201" y="729" type="curve" smooth="yes"/>
      <point x="306.201" y="712"/>
      <point x="294.201" y="703"/>
      <point x="275.201" y="683" type="curve" smooth="yes"/>
      <point x="258.201" y="665"/>
      <point x="251.201" y="653"/>
      <point x="237.201" y="633" type="curve" smooth="yes"/>
      <point x="225.201" y="617"/>
      <point x="219.201" y="607"/>
      <point x="209.201" y="590" type="curve" smooth="yes"/>
      <point x="195.201" y="566"/>
      <point x="188.201" y="552"/>
      <point x="175.201" y="528" type="curve" smooth="yes"/>
      <point x="163.201" y="505"/>
      <point x="155.201" y="493"/>
      <point x="144.201" y="469" type="curve" smooth="yes"/>
      <point x="130.201" y="439"/>
      <point x="123.201" y="421"/>
      <point x="113.201" y="389" type="curve" smooth="yes"/>
      <point x="104.201" y="360"/>
      <point x="100.201" y="342"/>
      <point x="94.2012" y="312" type="curve" smooth="yes"/>
      <point x="85.2012" y="268"/>
      <point x="81.2012" y="243"/>
      <point x="76.2012" y="199" type="curve" smooth="yes"/>
      <point x="74.9648" y="189.111"/>
      <point x="74.1113" y="182.278"/>
      <point x="74.1113" y="174.725" type="curve" smooth="yes"/>
      <point x="74.1113" y="170.056"/>
      <point x="74.4375" y="165.111"/>
      <point x="75.2012" y="159" type="curve" smooth="yes"/>
      <point x="77.2012" y="141"/>
      <point x="79.2012" y="130"/>
      <point x="85.2012" y="113" type="curve" smooth="yes"/>
      <point x="89.2012" y="103"/>
      <point x="93.2012" y="97"/>
      <point x="101.201" y="90" type="curve" smooth="yes"/>
      <point x="112.201" y="80"/>
      <point x="118.201" y="73"/>
      <point x="132.201" y="69" type="curve" smooth="yes"/>
      <point x="136.728" y="67.4912"/>
      <point x="140.826" y="66.9785"/>
      <point x="144.874" y="66.9785" type="curve" smooth="yes"/>
      <point x="151.56" y="66.9785"/>
      <point x="158.104" y="68.377"/>
      <point x="166.201" y="69" type="curve" smooth="yes"/>
      <point x="182.201" y="71"/>
      <point x="191.201" y="70"/>
      <point x="206.201" y="76" type="curve" smooth="yes"/>
      <point x="225.201" y="84"/>
      <point x="233.201" y="91"/>
      <point x="249.201" y="103" type="curve" smooth="yes"/>
      <point x="270.201" y="118"/>
      <point x="280.201" y="127"/>
      <point x="299.201" y="144" type="curve" smooth="yes"/>
      <point x="322.201" y="164"/>
      <point x="334.201" y="177"/>
      <point x="355.201" y="199" type="curve" smooth="yes"/>
      <point x="377.201" y="223"/>
      <point x="389.201" y="238"/>
      <point x="410.201" y="264" type="curve" smooth="yes"/>
      <point x="427.201" y="285"/>
      <point x="439.201" y="296"/>
      <point x="454.201" y="318" type="curve" smooth="yes"/>
      <point x="464.201" y="332"/>
      <point x="468.201" y="341"/>
      <point x="474.201" y="357" type="curve" smooth="yes"/>
      <point x="478.201" y="366"/>
      <point x="480.201" y="370"/>
      <point x="479.201" y="379" type="curve" smooth="yes"/>
      <point x="478.201" y="385"/>
      <point x="476.201" y="388"/>
      <point x="471.201" y="391" type="curve" smooth="yes"/>
      <point x="467.201" y="394"/>
      <point x="462.201" y="393"/>
      <point x="457.201" y="394" type="curve" smooth="yes"/>
      <point x="444.201" y="397"/>
      <point x="437.201" y="399"/>
      <point x="424.201" y="402" type="curve" smooth="yes"/>
      <point x="414.526" y="403.612"/>
      <point x="408.103" y="407.825"/>
      <point x="399.688" y="407.825" type="curve" smooth="yes"/>
      <point x="397.664" y="407.825"/>
      <point x="395.526" y="407.581"/>
      <point x="393.201" y="407" type="curve" smooth="yes"/>
      <point x="383.201" y="404"/>
      <point x="383.201" y="396"/>
      <point x="376.201" y="389" type="curve" smooth="yes"/>
      <point x="368.201" y="381"/>
      <point x="364.201" y="376"/>
      <point x="356.201" y="369" type="curve" smooth="yes"/>
      <point x="346.201" y="360"/>
      <point x="339.201" y="355"/>
      <point x="328.201" y="348" type="curve" smooth="yes"/>
      <point x="322.201" y="344"/>
      <point x="318.201" y="341"/>
      <point x="311.201" y="340" type="curve" smooth="yes"/>
      <point x="300.201" y="339"/>
      <point x="294.201" y="340"/>
      <point x="284.201" y="343" type="curve" smooth="yes"/>
      <point x="277.201" y="345"/>
      <point x="272.201" y="348"/>
      <point x="268.201" y="354" type="curve" smooth="yes"/>
      <point x="265.201" y="359"/>
      <point x="265.201" y="363"/>
      <point x="266.201" y="369" type="curve" smooth="yes"/>
      <point x="267.201" y="375"/>
      <point x="270.201" y="378"/>
      <point x="274.201" y="383" type="curve" smooth="yes"/>
      <point x="282.201" y="394"/>
      <point x="288.201" y="398"/>
      <point x="297.201" y="408" type="curve" smooth="yes"/>
      <point x="309.201" y="421"/>
      <point x="313.201" y="432"/>
      <point x="328.201" y="442" type="curve" smooth="yes"/>
      <point x="345.201" y="454"/>
      <point x="357.201" y="459"/>
      <point x="377.201" y="464" type="curve" smooth="yes"/>
      <point x="389.201" y="467"/>
      <point x="396.201" y="466"/>
      <point x="407.201" y="463" type="curve" smooth="yes"/>
      <point x="424.201" y="458"/>
      <point x="432.201" y="451"/>
      <point x="449.201" y="444" type="curve" smooth="yes"/>
      <point x="460.201" y="439"/>
      <point x="466.201" y="436"/>
      <point x="477.201" y="433" type="curve" smooth="yes"/>
      <point x="488.201" y="430"/>
      <point x="495.201" y="433"/>
      <point x="505.201" y="428" type="curve" smooth="yes"/>
      <point x="519.201" y="421"/>
      <point x="531.201" y="419"/>
      <point x="538.201" y="404" type="curve" smooth="yes"/>
      <point x="540.534" y="398.667"/>
      <point x="541.424" y="393.889"/>
      <point x="541.424" y="389.296" type="curve" smooth="yes"/>
      <point x="541.424" y="380.111"/>
      <point x="537.868" y="371.667"/>
      <point x="535.201" y="361" type="curve" smooth="yes"/>
      <point x="532.201" y="349"/>
      <point x="527.201" y="344"/>
      <point x="522.201" y="333" type="curve" smooth="yes"/>
      <point x="508.201" y="306"/>
      <point x="503.201" y="290"/>
      <point x="486.201" y="265" type="curve" smooth="yes"/>
      <point x="465.201" y="234"/>
      <point x="449.201" y="219"/>
      <point x="424.201" y="191" type="curve" smooth="yes"/>
      <point x="407.201" y="172"/>
      <point x="398.201" y="161"/>
      <point x="379.201" y="144" type="curve" smooth="yes"/>
      <point x="352.201" y="120"/>
      <point x="335.201" y="108"/>
      <point x="306.201" y="85" type="curve" smooth="yes"/>
      <point x="285.201" y="69"/>
      <point x="276.201" y="57"/>
      <point x="253.201" y="45" type="curve" smooth="yes"/>
      <point x="227.201" y="31"/>
      <point x="211.201" y="25"/>
      <point x="182.201" y="19" type="curve" smooth="yes"/>
      <point x="168.451" y="15.875"/>
      <point x="157.436" y="14.3125"/>
      <point x="145.492" y="14.3125" type="curve" smooth="yes"/>
      <point x="138.326" y="14.3125"/>
      <point x="130.826" y="14.875"/>
      <point x="122.201" y="16" type="curve" smooth="yes"/>
      <point x="105.201" y="19"/>
      <point x="95.2012" y="24"/>
      <point x="80.2012" y="34" type="curve" smooth="yes"/>
      <point x="67.2012" y="43"/>
      <point x="61.2012" y="51"/>
      <point x="51.2012" y="63" type="curve" smooth="yes"/>
      <point x="41.2012" y="75"/>
      <point x="34.2012" y="82"/>
      <point x="27.2012" y="97" type="curve" smooth="yes"/>
      <point x="22.2012" y="107"/>
      <point x="21.2012" y="114"/>
      <point x="20.2012" y="125" type="curve" smooth="yes"/>
      <point x="20.0615" y="127.234"/>
      <point x="20" y="129.331"/>
      <point x="20" y="131.33" type="curve" smooth="yes"/>
      <point x="20" y="143.649"/>
      <point x="22.3408" y="152.234"/>
      <point x="23.2012" y="166" type="curve" smooth="yes"/>
      <point x="24.2012" y="177"/>
      <point x="23.2012" y="183"/>
      <point x="24.2012" y="194" type="curve" smooth="yes"/>
      <point x="25.2012" y="213"/>
      <point x="26.2012" y="224"/>
      <point x="29.2012" y="243" type="curve" smooth="yes"/>
      <point x="33.2012" y="268"/>
      <point x="35.2012" y="282"/>
      <point x="41.2012" y="307" type="curve" smooth="yes"/>
      <point x="44.2012" y="318"/>
      <point x="47.2012" y="324"/>
      <point x="50.2012" y="335" type="curve" smooth="yes"/>
      <point x="56.2012" y="361"/>
      <point x="56.2012" y="376"/>
      <point x="63.2012" y="401" type="curve" smooth="yes"/>
      <point x="72.2012" y="434"/>
      <point x="79.2012" y="451"/>
      <point x="92.2012" y="482" type="curve" smooth="yes"/>
      <point x="107.201" y="517"/>
      <point x="117.201" y="536"/>
      <point x="135.201" y="569" type="curve" smooth="yes"/>
      <point x="147.201" y="592"/>
      <point x="156.201" y="603"/>
      <point x="170.201" y="625" type="curve" smooth="yes"/>
      <point x="188.201" y="654"/>
      <point x="199.201" y="671"/>
      <point x="218.201" y="700" type="curve" smooth="yes"/>
      <point x="232.201" y="720"/>
      <point x="238.201" y="734"/>
      <point x="255.201" y="752" type="curve" smooth="yes"/>
      <point x="272.201" y="770"/>
      <point x="283.201" y="781"/>
      <point x="306.201" y="790" type="curve" smooth="yes"/>
      <point x="311.996" y="792.173"/>
      <point x="317.134" y="792.903"/>
      <point x="322.14" y="792.903" type="curve" smooth="yes"/>
      <point x="330.955" y="792.903"/>
      <point x="339.357" y="790.638"/>
      <point x="350.201" y="790" type="curve" smooth="yes"/>
      <point x="352.201" y="789.875"/>
      <point x="354.123" y="789.828"/>
      <point x="355.984" y="789.828" type="curve" smooth="yes"/>
      <point x="361.568" y="789.828"/>
      <point x="366.607" y="790.25"/>
      <point x="371.576" y="790.25" type="curve" smooth="yes"/>
      <point x="378.201" y="790.25"/>
      <point x="384.701" y="789.5"/>
      <point x="392.201" y="786" type="curve" smooth="yes"/>
      <point x="404.201" y="781"/>
      <point x="409.201" y="773"/>
      <point x="415.201" y="761" type="curve" smooth="yes"/>
      <point x="418.201" y="755"/>
      <point x="415.201" y="749"/>
      <point x="415.201" y="742" type="curve" smooth="yes"/>
      <point x="415.201" y="736"/>
      <point x="415.201" y="732"/>
      <point x="414.201" y="726" type="curve" smooth="yes"/>
      <point x="413.201" y="717"/>
      <point x="414.201" y="712"/>
      <point x="411.201" y="703" type="curve" smooth="yes"/>
      <point x="409.201" y="695"/>
      <point x="406.201" y="692"/>
      <point x="401.201" y="686" type="curve" smooth="yes"/>
      <point x="397.201" y="682"/>
      <point x="394.201" y="681"/>
      <point x="389.201" y="680" type="curve" smooth="yes"/>
      <point x="384.201" y="679"/>
      <point x="380.201" y="678"/>
      <point x="377.201" y="681" type="curve" smooth="yes"/>
      <point x="373.201" y="685"/>
      <point x="377.201" y="688"/>
      <point x="376.201" y="693" type="curve" smooth="yes"/>
      <point x="375.201" y="701"/>
      <point x="373.201" y="706"/>
      <point x="371.201" y="714" type="curve" smooth="yes"/>
      <point x="369.201" y="722"/>
      <point x="373.201" y="729"/>
      <point x="367.201" y="734" type="curve" smooth="yes"/>
      <point x="360.201" y="740"/>
      <point x="354.201" y="737"/>
      <point x="345.201" y="736" type="curve" smooth="yes"/>
      <point x="338.201" y="735"/>
      <point x="334.201" y="734"/>
    </contour>
  </outline>
</glyph>
<glyph name="H" format="1">
  <advance width="521"/>
  <unicode hex="0048"/>
  <outline>
    <contour>
      <point x="92.6729" y="575" type="curve" smooth="yes"/>
      <point x="113.673" y="651"/>
      <point x="124.673" y="696"/>
      <point x="149.673" y="771" type="curve" smooth="yes"/>
      <point x="153.673" y="782"/>
      <point x="158.673" y="788"/>
      <point x="167.673" y="796" type="curve" smooth="yes"/>
      <point x="172.673" y="800"/>
      <point x="177.673" y="798"/>
      <point x="184.673" y="799" type="curve" smooth="yes"/>
      <point x="190.673" y="800"/>
      <point x="193.673" y="799"/>
      <point x="199.673" y="799" type="curve" smooth="yes"/>
      <point x="203.673" y="799"/>
      <point x="206.673" y="800"/>
      <point x="210.673" y="798" type="curve" smooth="yes"/>
      <point x="213.673" y="796"/>
      <point x="215.673" y="794"/>
      <point x="216.673" y="791" type="curve" smooth="yes"/>
      <point x="218.673" y="787"/>
      <point x="217.673" y="785"/>
      <point x="218.673" y="781" type="curve" smooth="yes"/>
      <point x="219.673" y="777"/>
      <point x="220.673" y="775"/>
      <point x="219.673" y="771" type="curve" smooth="yes"/>
      <point x="217.673" y="767"/>
      <point x="213.673" y="766"/>
      <point x="211.673" y="763" type="curve" smooth="yes"/>
      <point x="208.673" y="759"/>
      <point x="207.673" y="757"/>
      <point x="206.673" y="753" type="curve" smooth="yes"/>
      <point x="205.673" y="748"/>
      <point x="202.673" y="746"/>
      <point x="204.673" y="741" type="curve" smooth="yes"/>
      <point x="207.673" y="735"/>
      <point x="215.673" y="735"/>
      <point x="218.673" y="729" type="curve" smooth="yes"/>
      <point x="221.673" y="722"/>
      <point x="219.673" y="717"/>
      <point x="219.673" y="709" type="curve" smooth="yes"/>
      <point x="219.673" y="702"/>
      <point x="221.673" y="697"/>
      <point x="216.673" y="692" type="curve" smooth="yes"/>
      <point x="209.673" y="686"/>
      <point x="203.673" y="689"/>
      <point x="194.673" y="688" type="curve" smooth="yes"/>
      <point x="190.673" y="688"/>
      <point x="188.673" y="690"/>
      <point x="184.673" y="690" type="curve" smooth="yes"/>
      <point x="180.673" y="690"/>
      <point x="176.673" y="691"/>
      <point x="174.673" y="687" type="curve" smooth="yes"/>
      <point x="170.673" y="680"/>
      <point x="172.673" y="674"/>
      <point x="170.673" y="666" type="curve" smooth="yes"/>
      <point x="167.673" y="654"/>
      <point x="165.673" y="647"/>
      <point x="161.673" y="635" type="curve" smooth="yes"/>
      <point x="152.673" y="609"/>
      <point x="145.673" y="595"/>
      <point x="136.673" y="569" type="curve" smooth="yes"/>
      <point x="135.673" y="567"/>
      <point x="134.673" y="564"/>
      <point x="136.673" y="563" type="curve" smooth="yes"/>
      <point x="145.673" y="558"/>
      <point x="151.673" y="556"/>
      <point x="160.673" y="555" type="curve" smooth="yes"/>
      <point x="175.888" y="554.154"/>
      <point x="188.245" y="553.846"/>
      <point x="200.16" y="553.846" type="curve" smooth="yes"/>
      <point x="216.437" y="553.846"/>
      <point x="231.888" y="554.423"/>
      <point x="252.673" y="555" type="curve" smooth="yes"/>
      <point x="265.673" y="555"/>
      <point x="272.673" y="555"/>
      <point x="285.673" y="557" type="curve" smooth="yes"/>
      <point x="314.673" y="562"/>
      <point x="330.673" y="566"/>
      <point x="358.673" y="573" type="curve" smooth="yes"/>
      <point x="369.673" y="576"/>
      <point x="376.673" y="577"/>
      <point x="386.673" y="583" type="curve" smooth="yes"/>
      <point x="390.673" y="586"/>
      <point x="392.673" y="589"/>
      <point x="393.673" y="594" type="curve" smooth="yes"/>
      <point x="394.226" y="597.593"/>
      <point x="394.396" y="600.728"/>
      <point x="394.396" y="603.657" type="curve" smooth="yes"/>
      <point x="394.396" y="608.398"/>
      <point x="393.949" y="612.602"/>
      <point x="393.949" y="617.343" type="curve" smooth="yes"/>
      <point x="393.949" y="620.272"/>
      <point x="394.12" y="623.407"/>
      <point x="394.673" y="627" type="curve" smooth="yes"/>
      <point x="399.673" y="654"/>
      <point x="406.673" y="669"/>
      <point x="412.673" y="696" type="curve" smooth="yes"/>
      <point x="414.673" y="704"/>
      <point x="413.673" y="709"/>
      <point x="415.673" y="717" type="curve" smooth="yes"/>
      <point x="417.673" y="723"/>
      <point x="419.673" y="725"/>
      <point x="422.673" y="730" type="curve" smooth="yes"/>
      <point x="427.673" y="739"/>
      <point x="430.673" y="744"/>
      <point x="434.673" y="753" type="curve" smooth="yes"/>
      <point x="438.673" y="762"/>
      <point x="440.673" y="768"/>
      <point x="442.673" y="777" type="curve" smooth="yes"/>
      <point x="443.673" y="783"/>
      <point x="440.673" y="787"/>
      <point x="444.673" y="792" type="curve" smooth="yes"/>
      <point x="448.673" y="798"/>
      <point x="452.673" y="799"/>
      <point x="459.673" y="801" type="curve" smooth="yes"/>
      <point x="463.673" y="802"/>
      <point x="465.673" y="800"/>
      <point x="469.673" y="800" type="curve" smooth="yes"/>
      <point x="478.673" y="799"/>
      <point x="484.673" y="802"/>
      <point x="492.673" y="797" type="curve" smooth="yes"/>
      <point x="498.673" y="793"/>
      <point x="501.673" y="788"/>
      <point x="501.673" y="781" type="curve" smooth="yes"/>
      <point x="502.673" y="770"/>
      <point x="498.673" y="764"/>
      <point x="494.673" y="753" type="curve" smooth="yes"/>
      <point x="478.673" y="705"/>
      <point x="468.673" y="679"/>
      <point x="450.673" y="631" type="curve" smooth="yes"/>
      <point x="448.673" y="627"/>
      <point x="445.673" y="625"/>
      <point x="444.673" y="621" type="curve" smooth="yes"/>
      <point x="443.673" y="618"/>
      <point x="444.673" y="616"/>
      <point x="444.673" y="613" type="curve" smooth="yes"/>
      <point x="444.673" y="610"/>
      <point x="443.673" y="608"/>
      <point x="444.673" y="605" type="curve" smooth="yes"/>
      <point x="445.673" y="599"/>
      <point x="446.673" y="596"/>
      <point x="448.673" y="590" type="curve" smooth="yes"/>
      <point x="449.673" y="586"/>
      <point x="451.673" y="583"/>
      <point x="452.673" y="579" type="curve" smooth="yes"/>
      <point x="453.673" y="573"/>
      <point x="454.673" y="569"/>
      <point x="452.673" y="563" type="curve" smooth="yes"/>
      <point x="449.673" y="554"/>
      <point x="444.673" y="551"/>
      <point x="439.673" y="543" type="curve" smooth="yes"/>
      <point x="433.673" y="534"/>
      <point x="427.673" y="529"/>
      <point x="424.673" y="519" type="curve" smooth="yes"/>
      <point x="411.673" y="482"/>
      <point x="411.673" y="458"/>
      <point x="398.673" y="421" type="curve" smooth="yes"/>
      <point x="396.673" y="415"/>
      <point x="387.673" y="416"/>
      <point x="385.673" y="410" type="curve" smooth="yes"/>
      <point x="379.673" y="394"/>
      <point x="382.673" y="383"/>
      <point x="378.673" y="366" type="curve" smooth="yes"/>
      <point x="375.673" y="351"/>
      <point x="370.673" y="343"/>
      <point x="366.673" y="329" type="curve" smooth="yes"/>
      <point x="360.673" y="306"/>
      <point x="358.673" y="292"/>
      <point x="354.673" y="269" type="curve" smooth="yes"/>
      <point x="349.673" y="241"/>
      <point x="346.673" y="224"/>
      <point x="342.673" y="196" type="curve" smooth="yes"/>
      <point x="340.673" y="182"/>
      <point x="340.673" y="174"/>
      <point x="338.673" y="160" type="curve" smooth="yes"/>
      <point x="337.673" y="151"/>
      <point x="335.673" y="147"/>
      <point x="334.673" y="138" type="curve" smooth="yes"/>
      <point x="333.673" y="129"/>
      <point x="332.673" y="124"/>
      <point x="332.673" y="115" type="curve" smooth="yes"/>
      <point x="332.673" y="108"/>
      <point x="330.673" y="103"/>
      <point x="332.673" y="96" type="curve" smooth="yes"/>
      <point x="334.673" y="90"/>
      <point x="337.673" y="87"/>
      <point x="342.673" y="83" type="curve" smooth="yes"/>
      <point x="346.673" y="80"/>
      <point x="349.673" y="80"/>
      <point x="354.673" y="78" type="curve" smooth="yes"/>
      <point x="359.673" y="76"/>
      <point x="364.673" y="76"/>
      <point x="368.673" y="73" type="curve" smooth="yes"/>
      <point x="372.673" y="70"/>
      <point x="374.673" y="67"/>
      <point x="375.673" y="62" type="curve" smooth="yes"/>
      <point x="376.673" y="56"/>
      <point x="373.673" y="53"/>
      <point x="372.673" y="48" type="curve" smooth="yes"/>
      <point x="370.673" y="42"/>
      <point x="369.673" y="39"/>
      <point x="367.673" y="34" type="curve" smooth="yes"/>
      <point x="364.673" y="25"/>
      <point x="364.673" y="20"/>
      <point x="358.673" y="12" type="curve" smooth="yes"/>
      <point x="356.673" y="9"/>
      <point x="352.673" y="10"/>
      <point x="348.673" y="9" type="curve" smooth="yes"/>
      <point x="343.673" y="8"/>
      <point x="339.673" y="6"/>
      <point x="334.673" y="6" type="curve" smooth="yes"/>
      <point x="326.673" y="6"/>
      <point x="321.673" y="6"/>
      <point x="314.673" y="10" type="curve" smooth="yes"/>
      <point x="302.673" y="16"/>
      <point x="293.673" y="19"/>
      <point x="285.673" y="30" type="curve" smooth="yes"/>
      <point x="280.673" y="37"/>
      <point x="283.673" y="43"/>
      <point x="283.673" y="51" type="curve" smooth="yes"/>
      <point x="286.673" y="120"/>
      <point x="288.673" y="158"/>
      <point x="294.673" y="227" type="curve" smooth="yes"/>
      <point x="295.673" y="236"/>
      <point x="298.673" y="240"/>
      <point x="300.673" y="249" type="curve" smooth="yes"/>
      <point x="304.673" y="269"/>
      <point x="302.673" y="280"/>
      <point x="307.673" y="300" type="curve" smooth="yes"/>
      <point x="316.673" y="340"/>
      <point x="325.673" y="362"/>
      <point x="335.673" y="401" type="curve" smooth="yes"/>
      <point x="341.673" y="425"/>
      <point x="342.673" y="439"/>
      <point x="348.673" y="463" type="curve" smooth="yes"/>
      <point x="353.673" y="482"/>
      <point x="359.673" y="492"/>
      <point x="362.673" y="511" type="curve" smooth="yes"/>
      <point x="363.673" y="515"/>
      <point x="362.673" y="518"/>
      <point x="358.673" y="520" type="curve" smooth="yes"/>
      <point x="352.673" y="523"/>
      <point x="348.673" y="523"/>
      <point x="341.673" y="521" type="curve" smooth="yes"/>
      <point x="315.673" y="514"/>
      <point x="302.673" y="501"/>
      <point x="276.673" y="498" type="curve" smooth="yes"/>
      <point x="269.117" y="497.111"/>
      <point x="262.253" y="496.766"/>
      <point x="255.762" y="496.766" type="curve" smooth="yes"/>
      <point x="233.043" y="496.766"/>
      <point x="214.895" y="501"/>
      <point x="187.673" y="501" type="curve" smooth="yes"/>
      <point x="177.173" y="501"/>
      <point x="169.173" y="501.25"/>
      <point x="161.173" y="501.25" type="curve" smooth="yes"/>
      <point x="153.173" y="501.25"/>
      <point x="145.173" y="501"/>
      <point x="134.673" y="500" type="curve" smooth="yes"/>
      <point x="129.673" y="499"/>
      <point x="126.673" y="498"/>
      <point x="124.673" y="494" type="curve" smooth="yes"/>
      <point x="112.673" y="463"/>
      <point x="108.673" y="446"/>
      <point x="101.673" y="413" type="curve" smooth="yes"/>
      <point x="99.6729" y="404"/>
      <point x="99.4229" y="397"/>
      <point x="99.4229" y="390" type="curve" smooth="yes"/>
      <point x="99.4229" y="387.667"/>
      <point x="99.4502" y="385.333"/>
      <point x="99.4502" y="382.926" type="curve" smooth="yes"/>
      <point x="99.4502" y="378.111"/>
      <point x="99.3398" y="373"/>
      <point x="98.6729" y="367" type="curve" smooth="yes"/>
      <point x="97.6729" y="354"/>
      <point x="96.6729" y="347"/>
      <point x="94.6729" y="335" type="curve" smooth="yes"/>
      <point x="93.6729" y="326"/>
      <point x="90.6729" y="322"/>
      <point x="89.6729" y="313" type="curve" smooth="yes"/>
      <point x="87.6729" y="292"/>
      <point x="86.6729" y="279"/>
      <point x="85.6729" y="258" type="curve" smooth="yes"/>
      <point x="85.4619" y="252.717"/>
      <point x="85.3838" y="247.925"/>
      <point x="85.3838" y="243.417" type="curve" smooth="yes"/>
      <point x="85.3838" y="231.1"/>
      <point x="85.9619" y="220.9"/>
      <point x="85.9619" y="208.583" type="curve" smooth="yes"/>
      <point x="85.9619" y="204.075"/>
      <point x="85.8838" y="199.283"/>
      <point x="85.6729" y="194" type="curve" smooth="yes"/>
      <point x="85.6729" y="189"/>
      <point x="82.6729" y="186"/>
      <point x="81.6729" y="181" type="curve" smooth="yes"/>
      <point x="80.6729" y="175"/>
      <point x="81.6729" y="171"/>
      <point x="81.6729" y="165" type="curve" smooth="yes"/>
      <point x="81.6729" y="155" type="line" smooth="yes"/>
      <point x="81.6729" y="150"/>
      <point x="79.6729" y="147"/>
      <point x="81.6729" y="142" type="curve" smooth="yes"/>
      <point x="85.6729" y="131"/>
      <point x="94.6729" y="128"/>
      <point x="96.6729" y="117" type="curve" smooth="yes"/>
      <point x="97.6729" y="111"/>
      <point x="93.6729" y="106"/>
      <point x="88.6729" y="103" type="curve" smooth="yes"/>
      <point x="78.6729" y="96"/>
      <point x="72.6729" y="93"/>
      <point x="60.6729" y="92" type="curve" smooth="yes"/>
      <point x="52.6729" y="91"/>
      <point x="46.6729" y="93"/>
      <point x="41.6729" y="99" type="curve" smooth="yes"/>
      <point x="29.6729" y="114"/>
      <point x="25.6729" y="125"/>
      <point x="20.6729" y="143" type="curve" smooth="yes"/>
      <point x="18.6729" y="152"/>
      <point x="21.6729" y="157"/>
      <point x="22.6729" y="166" type="curve" smooth="yes"/>
      <point x="23.6729" y="180"/>
      <point x="25.6729" y="188"/>
      <point x="26.6729" y="202" type="curve" smooth="yes"/>
      <point x="27.6729" y="227"/>
      <point x="26.6729" y="240"/>
      <point x="28.6729" y="265" type="curve" smooth="yes"/>
      <point x="32.6729" y="307"/>
      <point x="35.6729" y="330"/>
      <point x="42.6729" y="372" type="curve" smooth="yes"/>
      <point x="46.6729" y="398"/>
      <point x="51.6729" y="413"/>
      <point x="57.6729" y="439" type="curve" smooth="yes"/>
      <point x="70.6729" y="492"/>
      <point x="77.6729" y="522"/>
    </contour>
  </outline>
</glyph>
<glyph name="I" format="1">
  <advance width="638"/>
  <unicode hex="0049"/>
  <outline>
    <contour>
      <point x="67.3096" y="762" type="curve" smooth="yes"/>
      <point x="73.3096" y="770"/>
      <point x="79.3096" y="773"/>
      <point x="89.3096" y="776" type="curve" smooth="yes"/>
      <point x="100.31" y="779"/>
      <point x="108.31" y="780"/>
      <point x="118.31" y="776" type="curve" smooth="yes"/>
      <point x="125.31" y="774"/>
      <point x="125.31" y="767"/>
      <point x="130.31" y="762" type="curve" smooth="yes"/>
      <point x="134.31" y="759"/>
      <point x="137.31" y="756"/>
      <point x="142.31" y="756" type="curve" smooth="yes"/>
      <point x="167.668" y="754.098"/>
      <point x="185.793" y="753.402"/>
      <point x="205.855" y="753.402" type="curve" smooth="yes"/>
      <point x="217.438" y="753.402"/>
      <point x="229.668" y="753.634"/>
      <point x="244.31" y="754" type="curve" smooth="yes"/>
      <point x="258.31" y="754"/>
      <point x="265.31" y="759"/>
      <point x="278.31" y="761" type="curve" smooth="yes"/>
      <point x="299.31" y="763"/>
      <point x="311.31" y="761"/>
      <point x="332.31" y="764" type="curve" smooth="yes"/>
      <point x="351.31" y="766"/>
      <point x="361.31" y="770"/>
      <point x="380.31" y="774" type="curve" smooth="yes"/>
      <point x="398.31" y="778"/>
      <point x="407.31" y="781"/>
      <point x="425.31" y="784" type="curve" smooth="yes"/>
      <point x="442.31" y="787"/>
      <point x="452.31" y="787"/>
      <point x="470.31" y="788" type="curve" smooth="yes"/>
      <point x="502.734" y="789.38"/>
      <point x="525.165" y="791.712"/>
      <point x="551.391" y="791.712" type="curve" smooth="yes"/>
      <point x="563.18" y="791.712"/>
      <point x="575.734" y="791.24"/>
      <point x="590.31" y="790" type="curve" smooth="yes"/>
      <point x="600.31" y="789"/>
      <point x="607.31" y="785"/>
      <point x="612.31" y="776" type="curve" smooth="yes"/>
      <point x="617.31" y="767"/>
      <point x="622.31" y="755"/>
      <point x="613.31" y="750" type="curve" smooth="yes"/>
      <point x="606.771" y="746.154"/>
      <point x="600.676" y="744.971"/>
      <point x="594.514" y="744.971" type="curve" smooth="yes"/>
      <point x="584.652" y="744.971"/>
      <point x="574.617" y="748"/>
      <point x="562.31" y="748" type="curve" smooth="yes"/>
      <point x="547.109" y="748"/>
      <point x="537.029" y="749.28"/>
      <point x="523.877" y="749.28" type="curve" smooth="yes"/>
      <point x="520.59" y="749.28"/>
      <point x="517.109" y="749.2"/>
      <point x="513.31" y="749" type="curve" smooth="yes"/>
      <point x="497.31" y="748"/>
      <point x="489.31" y="744"/>
      <point x="473.31" y="741" type="curve" smooth="yes"/>
      <point x="459.31" y="738"/>
      <point x="452.31" y="737"/>
      <point x="438.31" y="734" type="curve" smooth="yes"/>
      <point x="427.31" y="732"/>
      <point x="421.31" y="731"/>
      <point x="410.31" y="728" type="curve" smooth="yes"/>
      <point x="400.31" y="725"/>
      <point x="395.31" y="722"/>
      <point x="385.31" y="720" type="curve" smooth="yes"/>
      <point x="375.31" y="718"/>
      <point x="369.31" y="717"/>
      <point x="358.31" y="716" type="curve" smooth="yes"/>
      <point x="350.31" y="715"/>
      <point x="344.31" y="720"/>
      <point x="338.31" y="715" type="curve" smooth="yes"/>
      <point x="334.31" y="712"/>
      <point x="341.31" y="707"/>
      <point x="342.31" y="702" type="curve" smooth="yes"/>
      <point x="344.31" y="689"/>
      <point x="346.31" y="681"/>
      <point x="346.31" y="668" type="curve" smooth="yes"/>
      <point x="346.676" y="648.967"/>
      <point x="346.907" y="632.881"/>
      <point x="346.907" y="617.585" type="curve" smooth="yes"/>
      <point x="346.907" y="591.091"/>
      <point x="346.211" y="566.967"/>
      <point x="344.31" y="534" type="curve" smooth="yes"/>
      <point x="343.31" y="514"/>
      <point x="340.31" y="502"/>
      <point x="337.31" y="482" type="curve" smooth="yes"/>
      <point x="334.31" y="465"/>
      <point x="332.31" y="455"/>
      <point x="330.31" y="438" type="curve" smooth="yes"/>
      <point x="327.31" y="416"/>
      <point x="326.31" y="404"/>
      <point x="324.31" y="382" type="curve" smooth="yes"/>
      <point x="322.31" y="362"/>
      <point x="321.31" y="352"/>
      <point x="318.31" y="332" type="curve" smooth="yes"/>
      <point x="316.31" y="316"/>
      <point x="314.31" y="308"/>
      <point x="311.31" y="292" type="curve" smooth="yes"/>
      <point x="306.31" y="269"/>
      <point x="303.31" y="255"/>
      <point x="298.31" y="232" type="curve" smooth="yes"/>
      <point x="294.31" y="217"/>
      <point x="290.31" y="209"/>
      <point x="288.31" y="194" type="curve" smooth="yes"/>
      <point x="286.31" y="180"/>
      <point x="286.31" y="172"/>
      <point x="286.31" y="158" type="curve" smooth="yes"/>
      <point x="286.31" y="148"/>
      <point x="285.865" y="141.111"/>
      <point x="285.865" y="133.186" type="curve" smooth="yes"/>
      <point x="285.865" y="129.223"/>
      <point x="285.976" y="125"/>
      <point x="286.31" y="120" type="curve" smooth="yes"/>
      <point x="287.31" y="111"/>
      <point x="288.31" y="106"/>
      <point x="292.31" y="98" type="curve" smooth="yes"/>
      <point x="294.31" y="95"/>
      <point x="296.31" y="92"/>
      <point x="300.31" y="92" type="curve" smooth="yes"/>
      <point x="318.31" y="92"/>
      <point x="328.31" y="93"/>
      <point x="346.31" y="97" type="curve" smooth="yes"/>
      <point x="359.31" y="100"/>
      <point x="365.31" y="107"/>
      <point x="378.31" y="110" type="curve" smooth="yes"/>
      <point x="398.31" y="115"/>
      <point x="409.31" y="114"/>
      <point x="429.31" y="118" type="curve" smooth="yes"/>
      <point x="443.31" y="121"/>
      <point x="450.31" y="123"/>
      <point x="464.31" y="126" type="curve" smooth="yes"/>
      <point x="485.31" y="130"/>
      <point x="497.31" y="133"/>
      <point x="518.31" y="137" type="curve" smooth="yes"/>
      <point x="528.31" y="139"/>
      <point x="534.31" y="138"/>
      <point x="544.31" y="141" type="curve" smooth="yes"/>
      <point x="549.31" y="143"/>
      <point x="549.31" y="147"/>
      <point x="554.31" y="150" type="curve" smooth="yes"/>
      <point x="558.31" y="153"/>
      <point x="560.31" y="155"/>
      <point x="564.31" y="156" type="curve" smooth="yes"/>
      <point x="572.31" y="158"/>
      <point x="577.31" y="161"/>
      <point x="586.31" y="158" type="curve" smooth="yes"/>
      <point x="592.31" y="156"/>
      <point x="592.31" y="151"/>
      <point x="596.31" y="146" type="curve" smooth="yes"/>
      <point x="599.31" y="142"/>
      <point x="601.31" y="139"/>
      <point x="602.31" y="134" type="curve" smooth="yes"/>
      <point x="603.31" y="131"/>
      <point x="604.31" y="128"/>
      <point x="602.31" y="125" type="curve" smooth="yes"/>
      <point x="598.31" y="118"/>
      <point x="594.31" y="115"/>
      <point x="588.31" y="110" type="curve" smooth="yes"/>
      <point x="578.31" y="102"/>
      <point x="573.31" y="99"/>
      <point x="561.31" y="93" type="curve" smooth="yes"/>
      <point x="552.31" y="88"/>
      <point x="546.31" y="86"/>
      <point x="536.31" y="83" type="curve" smooth="yes"/>
      <point x="519.31" y="77"/>
      <point x="509.31" y="74"/>
      <point x="492.31" y="70" type="curve" smooth="yes"/>
      <point x="477.31" y="66"/>
      <point x="468.31" y="67"/>
      <point x="452.31" y="63" type="curve" smooth="yes"/>
      <point x="436.31" y="59"/>
      <point x="427.31" y="54"/>
      <point x="411.31" y="49" type="curve" smooth="yes"/>
      <point x="398.31" y="45"/>
      <point x="391.31" y="44"/>
      <point x="378.31" y="42" type="curve" smooth="yes"/>
      <point x="364.31" y="39"/>
      <point x="356.31" y="38"/>
      <point x="342.31" y="36" type="curve" smooth="yes"/>
      <point x="328.31" y="34"/>
      <point x="319.31" y="33"/>
      <point x="305.31" y="30" type="curve" smooth="yes"/>
      <point x="295.31" y="28"/>
      <point x="290.31" y="26"/>
      <point x="280.31" y="23" type="curve" smooth="yes"/>
      <point x="271.31" y="20"/>
      <point x="265.31" y="19"/>
      <point x="256.31" y="16" type="curve" smooth="yes"/>
      <point x="251.31" y="15"/>
      <point x="249.31" y="13"/>
      <point x="244.31" y="12" type="curve" smooth="yes"/>
      <point x="230.31" y="9"/>
      <point x="222.31" y="5"/>
      <point x="208.31" y="4" type="curve" smooth="yes"/>
      <point x="180.424" y="1.67578"/>
      <point x="162.139" y="-0.647461"/>
      <point x="138.581" y="-0.647461" type="curve" smooth="yes"/>
      <point x="131.726" y="-0.647461"/>
      <point x="124.424" y="-0.451172"/>
      <point x="116.31" y="0" type="curve" smooth="yes"/>
      <point x="105.31" y="1"/>
      <point x="101.31" y="8"/>
      <point x="90.3096" y="10" type="curve" smooth="yes"/>
      <point x="79.3096" y="12"/>
      <point x="73.3096" y="10"/>
      <point x="62.3096" y="12" type="curve" smooth="yes"/>
      <point x="52.3096" y="14"/>
      <point x="46.3096" y="16"/>
      <point x="38.3096" y="22" type="curve" smooth="yes"/>
      <point x="30.3096" y="28"/>
      <point x="25.3096" y="33"/>
      <point x="22.3096" y="43" type="curve" smooth="yes"/>
      <point x="20.6191" y="48.0723"/>
      <point x="20" y="52.4287"/>
      <point x="20" y="56.751" type="curve" smooth="yes"/>
      <point x="20" y="62.6553"/>
      <point x="21.1543" y="68.4941"/>
      <point x="22.3096" y="76" type="curve" smooth="yes"/>
      <point x="23.3096" y="84"/>
      <point x="25.3096" y="88"/>
      <point x="30.3096" y="94" type="curve" smooth="yes"/>
      <point x="35.3096" y="100"/>
      <point x="40.3096" y="103"/>
      <point x="48.3096" y="104" type="curve" smooth="yes"/>
      <point x="55.0811" y="105.354"/>
      <point x="60.6289" y="105.894"/>
      <point x="66.0586" y="105.894" type="curve" smooth="yes"/>
      <point x="72.6572" y="105.894"/>
      <point x="79.0811" y="105.097"/>
      <point x="87.3096" y="104" type="curve" smooth="yes"/>
      <point x="92.3096" y="103"/>
      <point x="94.3096" y="100"/>
      <point x="99.3096" y="98" type="curve" smooth="yes"/>
      <point x="104.31" y="96"/>
      <point x="108.31" y="95"/>
      <point x="113.31" y="92" type="curve" smooth="yes"/>
      <point x="116.31" y="90"/>
      <point x="118.31" y="89"/>
      <point x="119.31" y="86" type="curve" smooth="yes"/>
      <point x="121.31" y="82"/>
      <point x="123.31" y="79"/>
      <point x="120.31" y="76" type="curve" smooth="yes"/>
      <point x="116.31" y="72"/>
      <point x="111.31" y="73"/>
      <point x="105.31" y="73" type="curve" smooth="yes"/>
      <point x="100.31" y="73"/>
      <point x="98.3096" y="75"/>
      <point x="93.3096" y="75" type="curve" smooth="yes"/>
      <point x="90.3096" y="75"/>
      <point x="86.3096" y="75"/>
      <point x="86.3096" y="72" type="curve" smooth="yes"/>
      <point x="86.3096" y="68"/>
      <point x="89.3096" y="65"/>
      <point x="92.3096" y="64" type="curve" smooth="yes"/>
      <point x="99.3096" y="61"/>
      <point x="103.31" y="62"/>
      <point x="110.31" y="62" type="curve" smooth="yes"/>
      <point x="148.31" y="63"/>
      <point x="170.31" y="63"/>
      <point x="208.31" y="66" type="curve" smooth="yes"/>
      <point x="216.31" y="67"/>
      <point x="225.31" y="65"/>
      <point x="227.31" y="72" type="curve" smooth="yes"/>
      <point x="237.31" y="120"/>
      <point x="231.31" y="149"/>
      <point x="236.31" y="198" type="curve" smooth="yes"/>
      <point x="239.31" y="229"/>
      <point x="244.31" y="247"/>
      <point x="249.31" y="278" type="curve" smooth="yes"/>
      <point x="252.31" y="299"/>
      <point x="256.31" y="311"/>
      <point x="258.31" y="332" type="curve" smooth="yes"/>
      <point x="263.31" y="374"/>
      <point x="262.31" y="397"/>
      <point x="268.31" y="439" type="curve" smooth="yes"/>
      <point x="272.31" y="466"/>
      <point x="276.31" y="480"/>
      <point x="284.31" y="507" type="curve" smooth="yes"/>
      <point x="285.31" y="511"/>
      <point x="290.31" y="512"/>
      <point x="290.31" y="516" type="curve" smooth="yes"/>
      <point x="291.524" y="545.166"/>
      <point x="293.479" y="566.948"/>
      <point x="293.479" y="590.319" type="curve" smooth="yes"/>
      <point x="293.479" y="605.411"/>
      <point x="292.664" y="621.166"/>
      <point x="290.31" y="640" type="curve" smooth="yes"/>
      <point x="289.31" y="651"/>
      <point x="276.31" y="651"/>
      <point x="272.31" y="662" type="curve" smooth="yes"/>
      <point x="271.592" y="664.011"/>
      <point x="271.307" y="666.082"/>
      <point x="271.307" y="668.178" type="curve" smooth="yes"/>
      <point x="271.307" y="676.245"/>
      <point x="275.53" y="684.659"/>
      <point x="275.53" y="691.224" type="curve" smooth="yes"/>
      <point x="275.53" y="694.828"/>
      <point x="274.256" y="697.875"/>
      <point x="270.31" y="700" type="curve" smooth="yes"/>
      <point x="262.688" y="704.503"/>
      <point x="255.548" y="706.007"/>
      <point x="248.431" y="706.007" type="curve" smooth="yes"/>
      <point x="234.999" y="706.007"/>
      <point x="221.649" y="700.653"/>
      <point x="205.31" y="700" type="curve" smooth="yes"/>
      <point x="202.31" y="700"/>
      <point x="201.31" y="698"/>
      <point x="198.31" y="697" type="curve" smooth="yes"/>
      <point x="189.31" y="695"/>
      <point x="183.31" y="693"/>
      <point x="174.31" y="694" type="curve" smooth="yes"/>
      <point x="171.31" y="694"/>
      <point x="173.31" y="699"/>
      <point x="170.31" y="700" type="curve" smooth="yes"/>
      <point x="166.009" y="700.807"/>
      <point x="162.143" y="701.035"/>
      <point x="158.495" y="701.035" type="curve" smooth="yes"/>
      <point x="153.728" y="701.035"/>
      <point x="149.336" y="700.645"/>
      <point x="144.842" y="700.645" type="curve" smooth="yes"/>
      <point x="139.984" y="700.645"/>
      <point x="135.008" y="701.101"/>
      <point x="129.31" y="703" type="curve" smooth="yes"/>
      <point x="115.31" y="707"/>
      <point x="108.31" y="713"/>
      <point x="96.3096" y="722" type="curve" smooth="yes"/>
      <point x="84.3096" y="731"/>
      <point x="77.3096" y="737"/>
      <point x="68.3096" y="750" type="curve" smooth="yes"/>
      <point x="65.3096" y="754"/>
      <point x="64.3096" y="758"/>
    </contour>
  </outline>
</glyph>
<glyph name="J" format="1">
  <advance width="685"/>
  <unicode hex="004A"/>
  <outline>
    <contour>
      <point x="20.2549" y="732" type="curve" smooth="yes"/>
      <point x="20.083" y="733.458"/>
      <point x="20" y="734.857"/>
      <point x="20" y="736.203" type="curve" smooth="yes"/>
      <point x="20" y="750.544"/>
      <point x="29.4561" y="758.772"/>
      <point x="42.2549" y="767" type="curve" smooth="yes"/>
      <point x="52.2549" y="773"/>
      <point x="60.2549" y="766"/>
      <point x="72.2549" y="763" type="curve" smooth="yes"/>
      <point x="82.2549" y="761"/>
      <point x="88.2549" y="757"/>
      <point x="98.2549" y="754" type="curve" smooth="yes"/>
      <point x="123.255" y="747"/>
      <point x="137.255" y="742"/>
      <point x="162.255" y="736" type="curve" smooth="yes"/>
      <point x="172.952" y="733.531"/>
      <point x="180.264" y="731.74"/>
      <point x="189.762" y="731.74" type="curve" smooth="yes"/>
      <point x="191.807" y="731.74"/>
      <point x="193.952" y="731.823"/>
      <point x="196.255" y="732" type="curve" smooth="yes"/>
      <point x="217.255" y="734"/>
      <point x="228.255" y="738"/>
      <point x="248.255" y="744" type="curve" smooth="yes"/>
      <point x="266.255" y="749"/>
      <point x="277.255" y="752"/>
      <point x="294.255" y="760" type="curve" smooth="yes"/>
      <point x="302.255" y="764"/>
      <point x="303.255" y="773"/>
      <point x="311.255" y="774" type="curve" smooth="yes"/>
      <point x="313.164" y="774.318"/>
      <point x="314.947" y="774.459"/>
      <point x="316.645" y="774.459" type="curve" smooth="yes"/>
      <point x="325.609" y="774.459"/>
      <point x="332.164" y="770.522"/>
      <point x="342.255" y="768" type="curve" smooth="yes"/>
      <point x="352.255" y="765"/>
      <point x="356.255" y="759"/>
      <point x="366.255" y="758" type="curve" smooth="yes"/>
      <point x="378.302" y="757.073"/>
      <point x="387.986" y="756.361"/>
      <point x="397.598" y="756.361" type="curve" smooth="yes"/>
      <point x="408.73" y="756.361"/>
      <point x="419.765" y="757.316"/>
      <point x="434.255" y="760" type="curve" smooth="yes"/>
      <point x="449.255" y="763"/>
      <point x="456.255" y="773"/>
      <point x="471.255" y="776" type="curve" smooth="yes"/>
      <point x="475.139" y="776.729"/>
      <point x="478.669" y="776.985"/>
      <point x="482.031" y="776.985" type="curve" smooth="yes"/>
      <point x="490.083" y="776.985"/>
      <point x="497.174" y="775.513"/>
      <point x="505.855" y="775.513" type="curve" smooth="yes"/>
      <point x="508.485" y="775.513"/>
      <point x="511.262" y="775.647"/>
      <point x="514.255" y="776" type="curve" smooth="yes"/>
      <point x="536.255" y="778"/>
      <point x="548.255" y="785"/>
      <point x="570.255" y="787" type="curve" smooth="yes"/>
      <point x="576.366" y="787.764"/>
      <point x="581.456" y="788.09"/>
      <point x="586.306" y="788.09" type="curve" smooth="yes"/>
      <point x="594.151" y="788.09"/>
      <point x="601.366" y="787.236"/>
      <point x="611.255" y="786" type="curve" smooth="yes"/>
      <point x="615.505" y="785.5"/>
      <point x="619.505" y="785.438"/>
      <point x="623.317" y="785.438" type="curve" smooth="yes"/>
      <point x="624.588" y="785.438"/>
      <point x="625.838" y="785.444"/>
      <point x="627.069" y="785.444" type="curve" smooth="yes"/>
      <point x="636.922" y="785.444"/>
      <point x="645.588" y="785"/>
      <point x="654.255" y="777" type="curve" smooth="yes"/>
      <point x="660.661" y="771.234"/>
      <point x="665.836" y="761.774"/>
      <point x="665.836" y="753.88" type="curve" smooth="yes"/>
      <point x="665.836" y="749.452"/>
      <point x="664.208" y="745.516"/>
      <point x="660.255" y="743" type="curve" smooth="yes"/>
      <point x="651.475" y="737.879"/>
      <point x="643.364" y="736.37"/>
      <point x="635.286" y="736.37" type="curve" smooth="yes"/>
      <point x="623.712" y="736.37"/>
      <point x="612.205" y="739.467"/>
      <point x="598.893" y="739.467" type="curve" smooth="yes"/>
      <point x="596.099" y="739.467"/>
      <point x="593.226" y="739.33"/>
      <point x="590.255" y="739" type="curve" smooth="yes"/>
      <point x="562.255" y="736"/>
      <point x="547.255" y="733"/>
      <point x="519.255" y="728" type="curve" smooth="yes"/>
      <point x="497.255" y="724"/>
      <point x="484.255" y="723"/>
      <point x="462.255" y="718" type="curve" smooth="yes"/>
      <point x="444.255" y="714"/>
      <point x="435.255" y="711"/>
      <point x="417.255" y="707" type="curve" smooth="yes"/>
      <point x="407.255" y="705"/>
      <point x="397.255" y="710"/>
      <point x="391.255" y="702" type="curve" smooth="yes"/>
      <point x="386.255" y="696"/>
      <point x="397.255" y="693"/>
      <point x="400.255" y="686" type="curve" smooth="yes"/>
      <point x="405.255" y="673"/>
      <point x="408.255" y="665"/>
      <point x="410.255" y="652" type="curve" smooth="yes"/>
      <point x="410.808" y="648.684"/>
      <point x="410.979" y="645.672"/>
      <point x="410.979" y="642.798" type="curve" smooth="yes"/>
      <point x="410.979" y="638.146"/>
      <point x="410.531" y="633.854"/>
      <point x="410.531" y="629.202" type="curve" smooth="yes"/>
      <point x="410.531" y="626.328"/>
      <point x="410.702" y="623.316"/>
      <point x="411.255" y="620" type="curve" smooth="yes"/>
      <point x="414.255" y="606"/>
      <point x="421.255" y="599"/>
      <point x="422.255" y="584" type="curve" smooth="yes"/>
      <point x="425.214" y="543.761"/>
      <point x="426.071" y="514.027"/>
      <point x="426.071" y="482.365" type="curve" smooth="yes"/>
      <point x="426.071" y="460.521"/>
      <point x="425.663" y="437.761"/>
      <point x="425.255" y="410" type="curve" smooth="yes"/>
      <point x="425.255" y="384"/>
      <point x="425.255" y="369"/>
      <point x="418.255" y="344" type="curve" smooth="yes"/>
      <point x="415.255" y="334"/>
      <point x="403.255" y="334"/>
      <point x="400.255" y="324" type="curve" smooth="yes"/>
      <point x="392.255" y="298"/>
      <point x="396.255" y="283"/>
      <point x="390.255" y="256" type="curve" smooth="yes"/>
      <point x="386.255" y="236"/>
      <point x="380.255" y="226"/>
      <point x="374.255" y="206" type="curve" smooth="yes"/>
      <point x="368.255" y="187"/>
      <point x="365.255" y="177"/>
      <point x="359.255" y="158" type="curve" smooth="yes"/>
      <point x="353.255" y="141"/>
      <point x="349.255" y="132"/>
      <point x="343.255" y="116" type="curve" smooth="yes"/>
      <point x="339.255" y="104"/>
      <point x="339.255" y="98"/>
      <point x="334.255" y="86" type="curve" smooth="yes"/>
      <point x="329.255" y="74"/>
      <point x="325.255" y="68"/>
      <point x="318.255" y="58" type="curve" smooth="yes"/>
      <point x="310.255" y="47"/>
      <point x="306.255" y="41"/>
      <point x="296.255" y="32" type="curve" smooth="yes"/>
      <point x="285.255" y="22"/>
      <point x="280.255" y="11"/>
      <point x="265.255" y="8" type="curve" smooth="yes"/>
      <point x="252.21" y="5.31445"/>
      <point x="241.079" y="4.39551"/>
      <point x="230.337" y="4.39551" type="curve" smooth="yes"/>
      <point x="213.08" y="4.39551"/>
      <point x="196.826" y="6.76758"/>
      <point x="175.255" y="8" type="curve" smooth="yes"/>
      <point x="160.255" y="9"/>
      <point x="151.255" y="9"/>
      <point x="137.255" y="17" type="curve" smooth="yes"/>
      <point x="120.255" y="26"/>
      <point x="113.255" y="36"/>
      <point x="100.255" y="50" type="curve" smooth="yes"/>
      <point x="87.2549" y="64"/>
      <point x="82.2549" y="74"/>
      <point x="72.2549" y="90" type="curve" smooth="yes"/>
      <point x="68.2549" y="97"/>
      <point x="64.2549" y="100"/>
      <point x="63.2549" y="108" type="curve" smooth="yes"/>
      <point x="62.4268" y="118.77"/>
      <point x="61.9414" y="127.651"/>
      <point x="61.9414" y="136.281" type="curve" smooth="yes"/>
      <point x="61.9414" y="148.485"/>
      <point x="62.9121" y="160.184"/>
      <point x="65.2549" y="176" type="curve" smooth="yes"/>
      <point x="66.2549" y="180"/>
      <point x="71.2549" y="180"/>
      <point x="75.2549" y="180" type="curve" smooth="yes"/>
      <point x="82.2549" y="180"/>
      <point x="85.2549" y="180"/>
      <point x="92.2549" y="178" type="curve" smooth="yes"/>
      <point x="95.2549" y="177"/>
      <point x="97.2549" y="175"/>
      <point x="99.2549" y="172" type="curve" smooth="yes"/>
      <point x="104.255" y="164"/>
      <point x="104.255" y="158"/>
      <point x="110.255" y="150" type="curve" smooth="yes"/>
      <point x="117.255" y="141"/>
      <point x="122.255" y="137"/>
      <point x="131.255" y="130" type="curve" smooth="yes"/>
      <point x="139.255" y="123"/>
      <point x="146.255" y="121"/>
      <point x="154.255" y="114" type="curve" smooth="yes"/>
      <point x="162.255" y="107"/>
      <point x="166.255" y="103"/>
      <point x="174.255" y="96" type="curve" smooth="yes"/>
      <point x="179.255" y="92"/>
      <point x="181.255" y="90"/>
      <point x="186.255" y="86" type="curve" smooth="yes"/>
      <point x="189.255" y="83"/>
      <point x="190.255" y="78"/>
      <point x="194.255" y="78" type="curve" smooth="yes"/>
      <point x="203.374" y="77.1318"/>
      <point x="210.797" y="76.4512"/>
      <point x="217.914" y="76.4512" type="curve" smooth="yes"/>
      <point x="227.186" y="76.4512"/>
      <point x="235.94" y="77.6055"/>
      <point x="247.255" y="81" type="curve" smooth="yes"/>
      <point x="256.255" y="84"/>
      <point x="257.255" y="92"/>
      <point x="262.255" y="100" type="curve" smooth="yes"/>
      <point x="269.255" y="110"/>
      <point x="275.255" y="115"/>
      <point x="279.255" y="126" type="curve" smooth="yes"/>
      <point x="283.255" y="137"/>
      <point x="280.255" y="144"/>
      <point x="284.255" y="156" type="curve" smooth="yes"/>
      <point x="290.255" y="177"/>
      <point x="296.255" y="188"/>
      <point x="303.255" y="208" type="curve" smooth="yes"/>
      <point x="308.255" y="223"/>
      <point x="311.255" y="231"/>
      <point x="316.255" y="246" type="curve" smooth="yes"/>
      <point x="330.255" y="290"/>
      <point x="340.255" y="315"/>
      <point x="350.255" y="360" type="curve" smooth="yes"/>
      <point x="354.255" y="378"/>
      <point x="353.255" y="389"/>
      <point x="354.255" y="408" type="curve" smooth="yes"/>
      <point x="356.935" y="462.482"/>
      <point x="360.411" y="495.426"/>
      <point x="360.411" y="545.306" type="curve" smooth="yes"/>
      <point x="360.411" y="551.272"/>
      <point x="360.361" y="557.482"/>
      <point x="360.255" y="564" type="curve" smooth="yes"/>
      <point x="360.255" y="580"/>
      <point x="353.255" y="588"/>
      <point x="351.255" y="603" type="curve" smooth="yes"/>
      <point x="350.255" y="609.333"/>
      <point x="350.032" y="614.889"/>
      <point x="350.032" y="620.186" type="curve" smooth="yes"/>
      <point x="350.032" y="624.422"/>
      <point x="350.175" y="628.493"/>
      <point x="350.175" y="632.664" type="curve" smooth="yes"/>
      <point x="350.175" y="638.92"/>
      <point x="349.854" y="645.4"/>
      <point x="348.255" y="653" type="curve" smooth="yes"/>
      <point x="345.255" y="665"/>
      <point x="341.255" y="670"/>
      <point x="334.255" y="680" type="curve" smooth="yes"/>
      <point x="331.255" y="684"/>
      <point x="328.255" y="687"/>
      <point x="323.255" y="687" type="curve" smooth="yes"/>
      <point x="298.255" y="687"/>
      <point x="283.255" y="683"/>
      <point x="258.255" y="680" type="curve" smooth="yes"/>
      <point x="231.255" y="677"/>
      <point x="215.255" y="672"/>
      <point x="188.255" y="670" type="curve" smooth="yes"/>
      <point x="184.504" y="669.732"/>
      <point x="181.183" y="669.607"/>
      <point x="178.062" y="669.607" type="curve" smooth="yes"/>
      <point x="169.537" y="669.607"/>
      <point x="162.504" y="670.536"/>
      <point x="152.255" y="672" type="curve" smooth="yes"/>
      <point x="130.255" y="674"/>
      <point x="117.255" y="676"/>
      <point x="95.2549" y="680" type="curve" smooth="yes"/>
      <point x="88.2549" y="681"/>
      <point x="85.2549" y="684"/>
      <point x="79.2549" y="686" type="curve" smooth="yes"/>
      <point x="68.2549" y="691"/>
      <point x="60.2549" y="691"/>
      <point x="50.2549" y="698" type="curve" smooth="yes"/>
      <point x="36.2549" y="709"/>
      <point x="22.2549" y="714"/>
    </contour>
  </outline>
</glyph>
<glyph name="K" format="1">
  <advance width="519"/>
  <unicode hex="004B"/>
  <outline>
    <contour>
      <point x="93.0332" y="375" type="curve" smooth="yes"/>
      <point x="98.0332" y="401"/>
      <point x="94.0332" y="416"/>
      <point x="98.0332" y="442" type="curve" smooth="yes"/>
      <point x="100.033" y="456"/>
      <point x="104.033" y="465"/>
      <point x="108.033" y="479" type="curve" smooth="yes"/>
      <point x="112.033" y="491"/>
      <point x="115.033" y="498"/>
      <point x="118.033" y="511" type="curve" smooth="yes"/>
      <point x="123.033" y="533"/>
      <point x="125.033" y="545"/>
      <point x="130.033" y="567" type="curve" smooth="yes"/>
      <point x="135.033" y="591"/>
      <point x="138.033" y="605"/>
      <point x="144.033" y="629" type="curve" smooth="yes"/>
      <point x="150.033" y="653"/>
      <point x="154.033" y="667"/>
      <point x="160.033" y="691" type="curve" smooth="yes"/>
      <point x="167.033" y="721"/>
      <point x="164.033" y="739"/>
      <point x="177.033" y="767" type="curve" smooth="yes"/>
      <point x="184.033" y="781"/>
      <point x="193.033" y="787"/>
      <point x="207.033" y="793" type="curve" smooth="yes"/>
      <point x="217.033" y="797"/>
      <point x="226.033" y="796"/>
      <point x="234.033" y="789" type="curve" smooth="yes"/>
      <point x="241.671" y="781.362"/>
      <point x="244.268" y="773.725"/>
      <point x="244.268" y="764.254" type="curve" smooth="yes"/>
      <point x="244.268" y="762.564"/>
      <point x="244.185" y="760.816"/>
      <point x="244.033" y="759" type="curve" smooth="yes"/>
      <point x="242.033" y="742"/>
      <point x="233.033" y="735"/>
      <point x="227.033" y="719" type="curve" smooth="yes"/>
      <point x="214.033" y="681"/>
      <point x="206.033" y="660"/>
      <point x="197.033" y="622" type="curve" smooth="yes"/>
      <point x="193.033" y="604"/>
      <point x="196.033" y="593"/>
      <point x="192.033" y="575" type="curve" smooth="yes"/>
      <point x="188.033" y="557"/>
      <point x="182.033" y="549"/>
      <point x="176.033" y="532" type="curve" smooth="yes"/>
      <point x="166.033" y="505"/>
      <point x="158.033" y="491"/>
      <point x="152.033" y="464" type="curve" smooth="yes"/>
      <point x="150.175" y="455.449"/>
      <point x="149.836" y="448.005"/>
      <point x="149.836" y="440.844" type="curve" smooth="yes"/>
      <point x="149.836" y="436.74"/>
      <point x="149.947" y="432.73"/>
      <point x="149.947" y="428.659" type="curve" smooth="yes"/>
      <point x="149.947" y="420.722"/>
      <point x="149.524" y="412.551"/>
      <point x="147.033" y="403" type="curve" smooth="yes"/>
      <point x="145.033" y="396"/>
      <point x="137.033" y="396"/>
      <point x="134.033" y="389" type="curve" smooth="yes"/>
      <point x="133.033" y="386"/>
      <point x="135.033" y="382"/>
      <point x="138.033" y="381" type="curve" smooth="yes"/>
      <point x="145.033" y="378"/>
      <point x="149.033" y="376"/>
      <point x="155.033" y="379" type="curve" smooth="yes"/>
      <point x="159.033" y="381"/>
      <point x="156.033" y="387"/>
      <point x="159.033" y="390" type="curve" smooth="yes"/>
      <point x="188.033" y="420"/>
      <point x="206.033" y="436"/>
      <point x="237.033" y="465" type="curve" smooth="yes"/>
      <point x="259.033" y="485"/>
      <point x="273.033" y="495"/>
      <point x="294.033" y="516" type="curve" smooth="yes"/>
      <point x="330.033" y="551"/>
      <point x="348.033" y="574"/>
      <point x="384.033" y="609" type="curve" smooth="yes"/>
      <point x="422.033" y="645"/>
      <point x="433.033" y="658"/>
      <point x="476.033" y="693" type="curve" smooth="yes"/>
      <point x="478.173" y="694.834"/>
      <point x="480.382" y="695.64"/>
      <point x="482.548" y="695.64" type="curve" smooth="yes"/>
      <point x="491.177" y="695.64"/>
      <point x="499.104" y="682.836"/>
      <point x="499.104" y="671.23" type="curve" smooth="yes"/>
      <point x="499.104" y="666.691"/>
      <point x="497.892" y="662.335"/>
      <point x="495.033" y="659" type="curve" smooth="yes"/>
      <point x="443.033" y="599"/>
      <point x="401.033" y="562"/>
      <point x="351.033" y="489" type="curve" smooth="yes"/>
      <point x="344.092" y="479.166"/>
      <point x="342.17" y="469.667"/>
      <point x="342.17" y="459.341" type="curve" smooth="yes"/>
      <point x="342.17" y="451.816"/>
      <point x="343.19" y="443.853"/>
      <point x="344.033" y="435" type="curve" smooth="yes"/>
      <point x="347.033" y="409"/>
      <point x="356.033" y="397"/>
      <point x="363.033" y="369" type="curve" smooth="yes"/>
      <point x="375.033" y="320"/>
      <point x="369.033" y="291"/>
      <point x="381.033" y="243" type="curve" smooth="yes"/>
      <point x="394.033" y="191"/>
      <point x="405.033" y="163"/>
      <point x="426.033" y="114" type="curve" smooth="yes"/>
      <point x="430.033" y="105"/>
      <point x="444.033" y="106"/>
      <point x="444.033" y="96" type="curve" smooth="yes"/>
      <point x="444.033" y="87"/>
      <point x="435.033" y="83"/>
      <point x="426.033" y="81" type="curve" smooth="yes"/>
      <point x="415.033" y="79"/>
      <point x="406.033" y="79"/>
      <point x="399.033" y="87" type="curve" smooth="yes"/>
      <point x="372.033" y="116"/>
      <point x="358.033" y="135"/>
      <point x="342.033" y="171" type="curve" smooth="yes"/>
      <point x="323.033" y="213"/>
      <point x="323.033" y="239"/>
      <point x="315.033" y="285" type="curve" smooth="yes"/>
      <point x="308.033" y="323"/>
      <point x="307.033" y="345"/>
      <point x="303.033" y="384" type="curve" smooth="yes"/>
      <point x="302.666" y="387.062"/>
      <point x="302.523" y="390.065"/>
      <point x="302.523" y="393.009" type="curve" smooth="yes"/>
      <point x="302.523" y="403.136"/>
      <point x="304.21" y="412.553"/>
      <point x="304.21" y="421.258" type="curve" smooth="yes"/>
      <point x="304.21" y="430.67"/>
      <point x="302.238" y="439.251"/>
      <point x="294.033" y="447" type="curve" smooth="yes"/>
      <point x="291.941" y="448.917"/>
      <point x="289.941" y="449.741"/>
      <point x="288" y="449.741" type="curve" smooth="yes"/>
      <point x="278.805" y="449.741"/>
      <point x="270.941" y="431.257"/>
      <point x="261.033" y="423" type="curve" smooth="yes"/>
      <point x="225.033" y="393"/>
      <point x="201.033" y="380"/>
      <point x="171.033" y="345" type="curve" smooth="yes"/>
      <point x="156.033" y="327"/>
      <point x="165.033" y="304"/>
      <point x="147.033" y="288" type="curve" smooth="yes"/>
      <point x="138.033" y="280"/>
      <point x="131.033" y="303"/>
      <point x="120.033" y="300" type="curve" smooth="yes"/>
      <point x="111.033" y="298"/>
      <point x="110.033" y="288"/>
      <point x="108.033" y="279" type="curve" smooth="yes"/>
      <point x="107.305" y="275.359"/>
      <point x="107.048" y="272.071"/>
      <point x="107.048" y="268.966" type="curve" smooth="yes"/>
      <point x="107.048" y="261.53"/>
      <point x="108.521" y="255.137"/>
      <point x="108.521" y="247.431" type="curve" smooth="yes"/>
      <point x="108.521" y="245.096"/>
      <point x="108.386" y="242.641"/>
      <point x="108.033" y="240" type="curve" smooth="yes"/>
      <point x="103.033" y="207"/>
      <point x="99.0332" y="188"/>
      <point x="90.0332" y="156" type="curve" smooth="yes"/>
      <point x="82.0332" y="126"/>
      <point x="71.0332" y="111"/>
      <point x="63.0332" y="81" type="curve" smooth="yes"/>
      <point x="58.0332" y="60"/>
      <point x="63.0332" y="45"/>
      <point x="57.0332" y="24" type="curve" smooth="yes"/>
      <point x="54.0332" y="13"/>
      <point x="50.0332" y="-3"/>
      <point x="39.0332" y="0" type="curve" smooth="yes"/>
      <point x="25.0332" y="4"/>
      <point x="23.0332" y="18"/>
      <point x="21.0332" y="33" type="curve" smooth="yes"/>
      <point x="20.3174" y="38.4902"/>
      <point x="20" y="43.4678"/>
      <point x="20" y="48.1768" type="curve" smooth="yes"/>
      <point x="20" y="63.1963"/>
      <point x="23.2266" y="75.4902"/>
      <point x="27.0332" y="93" type="curve" smooth="yes"/>
      <point x="50.0332" y="204"/>
      <point x="70.0332" y="264"/>
    </contour>
  </outline>
</glyph>
